<svg width="708" height="294" viewBox="0 0 708 294" fill="none" xmlns="http://www.w3.org/2000/svg">
<g clip-path="url(#clip0_293_38144)">
<g clip-path="url(#clip1_293_38144)">
<path d="M202.198 294L198.219 24.6067L49.375 63.9515L52.7722 294H202.198Z" fill="url(#paint0_linear_293_38144)"/>
<path d="M263.48 294L259.234 6.4895L174.477 92.1621L177.457 294H263.48Z" fill="url(#paint1_linear_293_38144)"/>
<path d="M127.402 294L124.524 99.0935L0 71.0145L3.29288 294H127.402Z" fill="url(#paint2_linear_293_38144)"/>
<path d="M201.163 294L198.532 115.781L159.762 107.039L162.523 294H201.163Z" fill="url(#paint3_linear_293_38144)"/>
<path d="M216.102 294L213.25 100.904L198.531 115.781L201.163 294H216.102Z" fill="url(#paint4_linear_293_38144)"/>
<path d="M130.74 294L128.446 138.693L93.2109 130.747L95.6214 294H130.74Z" fill="url(#paint5_linear_293_38144)"/>
<path d="M162.523 294L159.762 107.039L128.445 138.693L130.739 294H162.523Z" fill="url(#paint6_linear_293_38144)"/>
<path d="M174.478 92.162L213.247 100.904L198.529 115.781L159.759 107.039L128.442 138.693L93.2076 130.747L124.524 99.0936L0 71.0145L14.719 56.1377L230.457 0L259.235 6.48944L174.478 92.162ZM139.242 84.2165L198.215 24.6068L49.3707 63.9515L139.242 84.2165Z" fill="#8CEEF9"/>
<path d="M278.85 284.677H448.966C447.969 217.112 446.97 149.547 445.973 81.9808C445.953 80.7069 445.778 79.5085 445.443 78.3853C445.332 78.0109 445.202 77.6445 445.056 77.2871C444.833 76.7444 444.585 76.2134 444.322 75.6888C444.245 75.5341 444.162 75.3822 444.083 75.2297C443.879 74.8451 443.665 74.4661 443.44 74.0917C443.351 73.9426 443.262 73.7925 443.169 73.644C442.863 73.158 442.543 72.6784 442.199 72.2101C442.189 72.1976 442.181 72.1839 442.171 72.1714C441.816 71.6905 441.436 71.2217 441.041 70.7597C440.927 70.6254 440.807 70.4952 440.689 70.3625C440.387 70.0234 440.075 69.6899 439.751 69.3611C439.622 69.2297 439.493 69.0972 439.36 68.9675C438.938 68.556 438.504 68.1514 438.047 67.7564C438.019 67.732 437.992 67.7065 437.964 67.6819C437.476 67.2637 436.964 66.858 436.437 66.4593C436.286 66.3448 436.13 66.2339 435.977 66.1218C435.576 65.8276 435.165 65.5397 434.742 65.2575C434.572 65.1438 434.403 65.0299 434.23 64.9184C433.698 64.5753 433.153 64.2385 432.587 63.9113C432.536 63.8817 432.487 63.8499 432.435 63.8202C431.815 63.4646 431.17 63.1215 430.51 62.7846C430.328 62.6914 430.14 62.6003 429.952 62.5088C429.449 62.2601 428.933 62.0154 428.407 61.7775C428.201 61.6843 427.996 61.5908 427.786 61.4987C427.136 61.2142 426.472 60.9376 425.789 60.6685C425.722 60.6423 425.659 60.6147 425.592 60.5886C425.569 60.5795 425.548 60.5701 425.524 60.5607C425.14 60.4113 424.731 60.274 424.336 60.1302C423.887 59.9658 423.446 59.7973 422.983 59.6395C422.557 59.494 422.108 59.3595 421.67 59.2193C421.195 59.0682 420.731 58.912 420.243 58.7667C420.205 58.7558 420.172 58.7433 420.134 58.7322C419.292 58.4836 418.429 58.2451 417.548 58.0147C417.35 57.9627 417.141 57.9157 416.94 57.8643C416.318 57.7064 415.698 57.5479 415.056 57.3994C414.861 57.3542 414.664 57.3086 414.466 57.2642C413.108 56.958 411.75 56.6895 410.393 56.438C410.224 56.4065 410.054 56.3652 409.884 56.3347C409.718 56.3048 409.552 56.2846 409.388 56.2561C408.042 56.0197 406.698 55.801 405.355 55.6188C405.35 55.618 405.346 55.6171 405.341 55.6169C405.313 55.6129 405.284 55.611 405.257 55.6072C404.046 55.4442 402.838 55.3093 401.629 55.1907C401.48 55.1759 401.333 55.1532 401.183 55.1395C400.963 55.1187 400.744 55.1094 400.524 55.0903C399.657 55.0141 398.79 54.9498 397.924 54.8968C397.687 54.8823 397.451 54.857 397.215 54.8439C397.088 54.8374 396.96 54.8374 396.833 54.8305C395.668 54.7714 394.504 54.727 393.341 54.7085C393.327 54.7085 393.311 54.7074 393.297 54.7074C393.278 54.7068 393.261 54.7076 393.243 54.7076C392.049 54.69 390.857 54.7008 389.664 54.7261C389.528 54.7292 389.393 54.7249 389.257 54.728C389.06 54.7337 388.864 54.7505 388.667 54.7565C387.594 54.79 386.521 54.841 385.45 54.9095C385.264 54.9214 385.077 54.9232 384.892 54.9363C384.781 54.944 384.669 54.9557 384.559 54.9636C384.226 54.9881 383.893 55.018 383.561 55.0461C382.952 55.0964 382.344 55.1505 381.735 55.2125C381.379 55.2487 381.023 55.2885 380.667 55.3286C380.371 55.3622 380.075 55.3891 379.78 55.4251C379.565 55.4509 379.351 55.4874 379.136 55.5147C378.446 55.6032 377.755 55.7011 377.065 55.8043C376.651 55.8661 376.237 55.9264 375.822 55.9935C375.059 56.1175 374.295 56.2547 373.532 56.3964C373.268 56.4453 373.002 56.4845 372.738 56.5361C372.669 56.5495 372.599 56.5665 372.53 56.5799C371.839 56.7151 371.15 56.8653 370.461 57.0149C370.115 57.0903 369.768 57.1583 369.422 57.2368C368.389 57.4727 367.358 57.7224 366.327 57.9907C365.198 58.2891 364.067 58.6229 362.934 58.9728C362.607 59.0741 362.28 59.181 361.954 59.2863C361.093 59.5638 360.23 59.8559 359.368 60.1626C359.055 60.2735 358.745 60.3808 358.432 60.4955C357.297 60.9125 356.161 61.3496 355.023 61.8173C354.88 61.8765 354.737 61.9419 354.595 62.0011C353.59 62.4199 352.584 62.8603 351.576 63.3183C351.231 63.4748 350.885 63.6369 350.538 63.7986C349.662 64.2094 348.782 64.6355 347.901 65.0765C347.606 65.2244 347.311 65.3678 347.014 65.5191C345.941 66.0676 344.869 66.6321 343.794 67.225C343.732 67.2597 343.669 67.2978 343.606 67.3331C343.097 67.6142 342.585 67.9192 342.075 68.2111C341.324 68.6413 340.574 69.0663 339.821 69.5181C339.281 69.8418 338.739 70.1868 338.198 70.5219C337.475 70.9703 336.75 71.4152 336.024 71.8841C335.461 72.2483 334.895 72.6317 334.331 73.0073C333.625 73.4761 332.922 73.9433 332.215 74.4309C331.633 74.8332 331.049 75.2526 330.466 75.668C329.969 76.0213 329.473 76.3587 328.976 76.7212C328.695 76.9266 328.413 77.1388 328.131 77.3471C327.94 77.4888 327.747 77.631 327.555 77.7744C326.422 78.6183 325.288 79.4865 324.151 80.3787C323.963 80.526 323.775 80.6751 323.587 80.8243C322.441 81.7307 321.295 82.6598 320.145 83.6146C319.972 83.7586 319.798 83.9059 319.625 84.0505C318.456 85.0286 317.285 86.0272 316.113 87.0549C315.969 87.1823 315.823 87.3121 315.679 87.4395C314.508 88.4716 313.336 89.522 312.161 90.6032C312.135 90.6283 312.108 90.6549 312.081 90.6794C311.116 91.5681 310.149 92.4922 309.181 93.4152C308.796 93.7816 308.414 94.1309 308.029 94.5031C306.676 95.8112 305.32 97.1512 303.96 98.5248C303.061 99.4341 302.19 100.33 301.334 101.218C301.203 101.354 301.07 101.492 300.939 101.628C300.126 102.477 299.334 103.316 298.561 104.145C298.422 104.295 298.286 104.441 298.148 104.59C297.374 105.426 296.616 106.254 295.884 107.071C295.798 107.167 295.714 107.261 295.629 107.357C294.907 108.164 294.204 108.963 293.523 109.75C293.485 109.796 293.442 109.842 293.402 109.888C293.383 109.911 293.364 109.933 293.345 109.955C293.083 110.26 292.828 110.56 292.572 110.863C292.387 111.08 292.198 111.301 292.016 111.517C291.764 111.817 291.521 112.114 291.275 112.41C291.098 112.624 290.917 112.839 290.744 113.052C290.49 113.36 290.247 113.666 290 113.972C289.844 114.167 289.683 114.364 289.528 114.557C289.236 114.925 288.953 115.288 288.671 115.65C288.571 115.778 288.467 115.909 288.369 116.037C287.99 116.526 287.622 117.011 287.263 117.491C287.175 117.608 287.093 117.722 287.006 117.84C286.738 118.201 286.47 118.562 286.213 118.919C286.083 119.098 285.959 119.275 285.832 119.455C285.626 119.744 285.417 120.034 285.218 120.321C285.079 120.519 284.949 120.714 284.814 120.911C284.634 121.172 284.452 121.435 284.279 121.695C284.269 121.71 284.257 121.727 284.246 121.743C284.211 121.795 284.18 121.846 284.145 121.898C283.805 122.408 283.48 122.912 283.164 123.411C283.066 123.564 282.97 123.717 282.875 123.87C282.565 124.366 282.266 124.858 281.98 125.343C281.944 125.404 281.906 125.466 281.87 125.527C281.554 126.066 281.257 126.597 280.971 127.122C280.897 127.258 280.825 127.392 280.754 127.527C280.525 127.954 280.306 128.378 280.097 128.796C280.059 128.873 280.014 128.954 279.976 129.03C279.956 129.07 279.939 129.108 279.92 129.147C279.783 129.428 279.654 129.704 279.525 129.979C279.462 130.116 279.395 130.255 279.334 130.39C279.173 130.746 279.022 131.095 278.876 131.443C278.853 131.498 278.827 131.555 278.804 131.609C278.638 132.012 278.482 132.41 278.336 132.803C278.294 132.912 278.26 133.018 278.221 133.125C278.12 133.404 278.02 133.683 277.93 133.958C277.921 133.985 277.909 134.015 277.9 134.043C277.886 134.088 277.877 134.13 277.862 134.174C277.671 134.768 277.501 135.352 277.358 135.923C277.353 135.941 277.348 135.959 277.343 135.977C277.201 136.551 277.09 137.111 276.996 137.661C276.988 137.708 276.975 137.757 276.968 137.803C276.963 137.831 276.962 137.857 276.958 137.885C276.886 138.339 276.832 138.784 276.795 139.222C276.787 139.314 276.782 139.404 276.775 139.495C276.747 139.9 276.73 140.3 276.731 140.691C276.731 140.726 276.727 140.762 276.727 140.797C276.728 140.831 276.728 140.865 276.728 140.899C277.435 188.826 278.143 236.751 278.85 284.677Z" fill="url(#paint7_linear_293_38144)"/>
<path d="M485.534 294L482.347 84.6591C482.355 85.2326 482.347 85.8114 482.325 86.3939C482.32 86.5084 482.311 86.625 482.305 86.7399C482.283 87.1803 482.254 87.6224 482.215 88.0679C482.199 88.2534 482.179 88.4406 482.16 88.6273C482.119 89.0176 482.072 89.4102 482.018 89.8045C481.993 89.9939 481.967 90.1835 481.938 90.374C481.877 90.7735 481.806 91.1764 481.732 91.5792C481.696 91.7744 481.664 91.9678 481.625 92.1641C481.516 92.7076 481.395 93.2543 481.263 93.8046C481.25 93.8558 481.24 93.9058 481.228 93.9565C481.081 94.5556 480.917 95.1593 480.741 95.7665C480.686 95.9594 480.622 96.155 480.563 96.3492C480.428 96.7929 480.291 97.2373 480.141 97.6851C480.099 97.8109 480.055 97.9372 480.012 98.0635C479.808 98.6582 479.595 99.2555 479.364 99.8582C479.154 100.407 478.923 100.965 478.675 101.531C478.574 101.76 478.458 101.995 478.352 102.226C478.194 102.568 478.043 102.907 477.872 103.254C477.634 103.737 477.377 104.227 477.114 104.721C477.066 104.812 477.024 104.899 476.974 104.991C476.656 105.581 476.319 106.179 475.963 106.786C475.895 106.901 475.819 107.02 475.751 107.137C475.459 107.627 475.162 108.121 474.847 108.621C474.698 108.856 474.537 109.097 474.384 109.334C474.134 109.721 473.889 110.106 473.625 110.5C473.095 111.289 472.532 112.096 471.946 112.912C471.786 113.135 471.62 113.361 471.455 113.585C470.992 114.219 470.513 114.859 470.017 115.508C469.838 115.743 469.661 115.977 469.478 116.213C468.816 117.066 468.133 117.927 467.415 118.805C467.363 118.87 467.306 118.935 467.254 118.999C466.576 119.824 465.869 120.663 465.142 121.511C464.902 121.79 464.66 122.07 464.415 122.351C463.974 122.859 463.523 123.371 463.064 123.889C462.778 124.209 462.492 124.53 462.2 124.854C461.737 125.366 461.264 125.884 460.785 126.404C460.487 126.727 460.192 127.051 459.886 127.378C459.361 127.942 458.82 128.512 458.275 129.084C458.001 129.372 457.735 129.656 457.455 129.946C456.626 130.809 455.78 131.679 454.907 132.561C453.774 133.707 452.636 134.825 451.498 135.929C451.154 136.264 450.808 136.591 450.463 136.922C449.627 137.722 448.789 138.511 447.951 139.29C447.614 139.603 447.276 139.917 446.938 140.226C445.695 141.364 444.449 142.485 443.201 143.576C443.094 143.669 442.986 143.758 442.879 143.851C441.732 144.848 440.581 145.821 439.427 146.777C439.087 147.06 438.744 147.342 438.401 147.622C437.281 148.538 436.158 149.438 435.033 150.316C434.884 150.431 434.738 150.551 434.59 150.666C433.341 151.634 432.09 152.571 430.834 153.491C430.482 153.75 430.129 154.004 429.776 154.259C428.823 154.947 427.866 155.621 426.909 156.282C426.596 156.5 426.282 156.721 425.967 156.935C424.742 157.768 423.514 158.582 422.283 159.372C422.024 159.538 421.764 159.696 421.504 159.861C420.498 160.497 419.49 161.12 418.479 161.726C418.112 161.949 417.743 162.169 417.374 162.386C416.269 163.039 415.162 163.675 414.051 164.291C413.892 164.38 413.734 164.474 413.573 164.561C412.909 164.928 412.242 165.279 411.574 165.633C411.207 165.826 410.842 166.029 410.476 166.218C409.442 166.755 408.407 167.277 407.369 167.782C406.001 168.449 404.621 169.087 403.236 169.712C402.886 169.871 402.536 170.028 402.185 170.184C400.803 170.795 399.414 171.394 398.014 171.964C397.95 171.991 397.884 172.016 397.82 172.041C396.472 172.589 395.115 173.112 393.752 173.622C393.384 173.76 393.016 173.896 392.646 174.031C391.232 174.548 389.813 175.051 388.381 175.528C388.27 175.564 388.157 175.598 388.047 175.634C386.701 176.079 385.345 176.502 383.985 176.911C383.605 177.024 383.225 177.139 382.844 177.25C381.395 177.673 379.939 178.083 378.472 178.468C378.322 178.506 378.171 178.541 378.021 178.58C376.669 178.93 375.308 179.259 373.942 179.574C373.552 179.664 373.162 179.754 372.771 179.841C371.286 180.173 369.793 180.491 368.29 180.782C368.137 180.813 367.983 180.838 367.83 180.867C366.174 181.184 364.506 181.473 362.829 181.741C362.559 181.786 362.29 181.832 362.02 181.873C360.304 182.14 358.576 182.378 356.838 182.595C356.054 182.691 355.272 182.792 354.485 182.879C353.364 183.003 352.238 183.112 351.109 183.212C350.737 183.246 350.362 183.272 349.989 183.303C349.233 183.364 348.478 183.424 347.719 183.475C347.178 183.511 346.635 183.539 346.092 183.571C345.432 183.608 344.773 183.646 344.111 183.676C343.598 183.699 343.084 183.714 342.57 183.732C341.874 183.757 341.178 183.781 340.478 183.796C340.026 183.807 339.574 183.81 339.122 183.818C338.406 183.827 337.687 183.836 336.967 183.837C336.474 183.837 335.979 183.831 335.484 183.828C334.793 183.823 334.1 183.815 333.407 183.802C332.909 183.791 332.41 183.778 331.91 183.764C331.216 183.744 330.521 183.72 329.824 183.691C329.326 183.671 328.828 183.649 328.33 183.625C327.632 183.591 326.934 183.552 326.234 183.507C325.712 183.476 325.189 183.444 324.665 183.407C323.958 183.358 323.249 183.303 322.54 183.244C322.026 183.203 321.512 183.16 320.997 183.114C320.326 183.053 319.652 182.986 318.98 182.917C318.361 182.855 317.742 182.793 317.121 182.723C316.472 182.651 315.82 182.572 315.168 182.493C314.548 182.419 313.927 182.342 313.305 182.261C312.689 182.18 312.072 182.092 311.455 182.006C310.666 181.893 309.877 181.779 309.084 181.657C308.496 181.567 307.908 181.473 307.318 181.378C306.503 181.247 305.685 181.107 304.866 180.964C304.3 180.864 303.735 180.765 303.168 180.662C302.213 180.487 301.254 180.301 300.294 180.11C299.824 180.018 299.356 179.93 298.885 179.834C297.457 179.542 296.024 179.236 294.585 178.912C293.935 178.765 293.296 178.615 292.657 178.466C292.175 178.352 291.697 178.237 291.222 178.121C290.824 178.025 290.426 177.928 290.033 177.831C289.533 177.706 289.039 177.579 288.546 177.453C288.179 177.357 287.809 177.263 287.446 177.168C286.931 177.031 286.424 176.893 285.917 176.754C285.586 176.665 285.252 176.574 284.924 176.483C284.344 176.321 283.774 176.155 283.204 175.989C282.965 175.919 282.721 175.85 282.484 175.78C281.613 175.523 280.756 175.26 279.913 174.994C279.711 174.931 279.514 174.865 279.314 174.801C278.675 174.597 278.043 174.39 277.419 174.18C277.153 174.091 276.889 174.001 276.626 173.911C276.062 173.718 275.506 173.523 274.956 173.326C274.7 173.235 274.445 173.143 274.192 173.051C273.566 172.822 272.948 172.59 272.339 172.356C272.194 172.301 272.046 172.247 271.903 172.19C271.069 171.866 270.253 171.537 269.452 171.203C269.283 171.133 269.118 171.061 268.951 170.99C268.308 170.719 267.677 170.443 267.056 170.166C266.866 170.08 266.674 169.995 266.485 169.909C264.975 169.221 263.528 168.512 262.146 167.784C261.963 167.688 261.784 167.592 261.604 167.495C261.057 167.2 260.519 166.903 259.991 166.604C259.848 166.521 259.701 166.44 259.559 166.359C258.913 165.984 258.283 165.606 257.668 165.222C257.55 165.147 257.437 165.073 257.32 164.999C256.819 164.682 256.33 164.36 255.851 164.037C255.688 163.926 255.527 163.817 255.366 163.707C254.852 163.351 254.348 162.993 253.859 162.629C253.8 162.585 253.738 162.542 253.679 162.498C253.138 162.092 252.616 161.682 252.107 161.267C251.972 161.157 251.841 161.046 251.709 160.936C251.318 160.611 250.937 160.282 250.566 159.951C250.44 159.838 250.312 159.728 250.188 159.614C249.721 159.188 249.267 158.757 248.83 158.322C248.773 158.265 248.721 158.207 248.665 158.15C248.285 157.766 247.919 157.378 247.564 156.986C247.447 156.857 247.331 156.727 247.218 156.599C246.894 156.23 246.581 155.859 246.277 155.486C246.204 155.396 246.127 155.306 246.054 155.215C245.692 154.758 245.346 154.296 245.015 153.83C244.933 153.716 244.858 153.6 244.779 153.486C244.523 153.117 244.278 152.745 244.041 152.37C243.956 152.233 243.87 152.098 243.786 151.961C243.494 151.48 243.212 150.995 242.952 150.503C241.032 146.86 240.042 142.944 239.98 138.756L242.164 294H485.534Z" fill="url(#paint8_linear_293_38144)"/>
<path d="M479.367 99.8584C476.033 108.555 467.875 119.458 454.91 132.561C439.565 148.072 423.716 159.815 407.372 167.782C391.026 175.751 373.402 180.785 354.488 182.879C335.568 184.972 315.608 183.652 294.589 178.913C266.922 172.674 249.7 163.206 242.955 150.504C234.914 135.238 243.178 115.187 267.743 90.3577C283.205 74.7278 299.143 62.9318 315.556 54.9791C331.962 47.0239 349.61 42.0153 368.494 39.9498C387.378 37.8844 407.262 39.2062 428.145 43.9155C443.548 47.3884 455.649 51.8619 464.441 57.3391C473.231 62.8106 478.751 69.0947 481 76.1799C483.244 83.2697 482.701 91.1651 479.367 99.8584ZM359.319 163.95C377.486 159.222 397.276 146.041 418.691 124.394C440.22 102.634 449.007 86.9294 445.058 77.2872C441.109 67.6448 430.908 60.9716 414.467 57.2641C398.276 53.6134 382.234 53.8549 366.328 57.9907C346.224 63.3114 325.431 76.8235 303.961 98.5247C282.488 120.229 273.709 135.917 277.64 145.587C281.552 155.258 291.609 161.917 307.792 165.567C323.975 169.215 341.153 168.679 359.319 163.95Z" fill="#8CEEF9"/>
<path d="M646.704 294L644.211 125.174L495.375 164.52L497.287 294H646.704Z" fill="url(#paint9_linear_293_38144)"/>
<path d="M708 294L705.239 107.058L620.48 192.729L621.976 294H708Z" fill="url(#paint10_linear_293_38144)"/>
<path d="M571.911 294L570.518 199.661L445.996 171.581L447.804 294H571.911Z" fill="url(#paint11_linear_293_38144)"/>
<path d="M645.671 294L644.524 216.348L605.762 207.607L607.038 294H645.671Z" fill="url(#paint12_linear_293_38144)"/>
<path d="M660.605 294L659.239 201.47L644.52 216.348L645.666 294H660.605Z" fill="url(#paint13_linear_293_38144)"/>
<path d="M575.254 294L574.446 239.262L539.203 231.315L540.129 294H575.254Z" fill="url(#paint14_linear_293_38144)"/>
<path d="M607.037 294L605.762 207.607L574.445 239.262L575.253 294H607.037Z" fill="url(#paint15_linear_293_38144)"/>
<path d="M620.481 192.729L659.244 201.47L644.525 216.348L605.762 207.607L574.446 239.262L539.204 231.315L570.518 199.661L445.996 171.581L460.715 156.705L676.452 100.567L705.239 107.058L620.481 192.729ZM585.238 184.783L644.21 125.174L495.375 164.52L585.238 184.783Z" fill="#8CEEF9"/>
</g>
</g>
<defs>
<linearGradient id="paint0_linear_293_38144" x1="81.7423" y1="17.1902" x2="141.363" y2="209.325" gradientUnits="userSpaceOnUse">
<stop stop-color="#00E1E1"/>
<stop offset="0.0237" stop-color="#00D6E3"/>
<stop offset="0.1336" stop-color="#00ABED"/>
<stop offset="0.2397" stop-color="#0088F5"/>
<stop offset="0.3395" stop-color="#006FFA"/>
<stop offset="0.4308" stop-color="#0060FE"/>
<stop offset="0.5054" stop-color="#005BFF"/>
<stop offset="0.6343" stop-color="#0045C0"/>
<stop offset="0.931" stop-color="#000D25"/>
<stop offset="1"/>
</linearGradient>
<linearGradient id="paint1_linear_293_38144" x1="218.978" y1="79.6661" x2="218.978" y2="366.333" gradientUnits="userSpaceOnUse">
<stop stop-color="#008FE1"/>
<stop offset="0.0239" stop-color="#0088E3"/>
<stop offset="0.1606" stop-color="#0066EC"/>
<stop offset="0.2902" stop-color="#004DF2"/>
<stop offset="0.4085" stop-color="#003EF6"/>
<stop offset="0.5054" stop-color="#0039F7"/>
<stop offset="0.6383" stop-color="#002BB8"/>
<stop offset="0.9443" stop-color="#00071D"/>
<stop offset="1"/>
</linearGradient>
<linearGradient id="paint2_linear_293_38144" x1="63.7009" y1="113.46" x2="63.7009" y2="453.15" gradientUnits="userSpaceOnUse">
<stop stop-color="#00E1E1"/>
<stop offset="0.0237" stop-color="#00D6E3"/>
<stop offset="0.1336" stop-color="#00ABED"/>
<stop offset="0.2397" stop-color="#0088F5"/>
<stop offset="0.3395" stop-color="#006FFA"/>
<stop offset="0.4308" stop-color="#0060FE"/>
<stop offset="0.5054" stop-color="#005BFF"/>
<stop offset="0.6343" stop-color="#0045C0"/>
<stop offset="0.931" stop-color="#000D25"/>
<stop offset="1"/>
</linearGradient>
<linearGradient id="paint3_linear_293_38144" x1="180.462" y1="113.46" x2="180.462" y2="453.15" gradientUnits="userSpaceOnUse">
<stop stop-color="#00E1E1"/>
<stop offset="0.0237" stop-color="#00D6E3"/>
<stop offset="0.1336" stop-color="#00ABED"/>
<stop offset="0.2397" stop-color="#0088F5"/>
<stop offset="0.3395" stop-color="#006FFA"/>
<stop offset="0.4308" stop-color="#0060FE"/>
<stop offset="0.5054" stop-color="#005BFF"/>
<stop offset="0.6343" stop-color="#0045C0"/>
<stop offset="0.931" stop-color="#000D25"/>
<stop offset="1"/>
</linearGradient>
<linearGradient id="paint4_linear_293_38144" x1="207.622" y1="149.574" x2="206.452" y2="359.913" gradientUnits="userSpaceOnUse">
<stop stop-color="#00C1FF"/>
<stop offset="0.0773" stop-color="#1AA9FF"/>
<stop offset="0.1988" stop-color="#3C89FF"/>
<stop offset="0.314" stop-color="#5572FF"/>
<stop offset="0.4192" stop-color="#6464FF"/>
<stop offset="0.5054" stop-color="#695FFF"/>
<stop offset="0.6343" stop-color="#4F48C0"/>
<stop offset="0.931" stop-color="#0F0E25"/>
<stop offset="1"/>
</linearGradient>
<linearGradient id="paint5_linear_293_38144" x1="111.975" y1="113.46" x2="111.975" y2="453.15" gradientUnits="userSpaceOnUse">
<stop stop-color="#00B4E1"/>
<stop offset="0.0151" stop-color="#07AEE3"/>
<stop offset="0.127" stop-color="#3283ED"/>
<stop offset="0.2349" stop-color="#5562F5"/>
<stop offset="0.3366" stop-color="#6E4AFA"/>
<stop offset="0.4294" stop-color="#7D3BFE"/>
<stop offset="0.5054" stop-color="#8236FF"/>
<stop offset="0.6343" stop-color="#6229C0"/>
<stop offset="0.931" stop-color="#130825"/>
<stop offset="1"/>
</linearGradient>
<linearGradient id="paint6_linear_293_38144" x1="147.565" y1="150.243" x2="141.131" y2="353.006" gradientUnits="userSpaceOnUse">
<stop stop-color="#008FE1"/>
<stop offset="0.0239" stop-color="#0088E3"/>
<stop offset="0.1606" stop-color="#0066EC"/>
<stop offset="0.2902" stop-color="#004DF2"/>
<stop offset="0.4085" stop-color="#003EF6"/>
<stop offset="0.5054" stop-color="#0039F7"/>
<stop offset="0.6383" stop-color="#002BB8"/>
<stop offset="0.9443" stop-color="#00071D"/>
<stop offset="1"/>
</linearGradient>
<linearGradient id="paint7_linear_293_38144" x1="295.782" y1="32.0726" x2="448.246" y2="372.463" gradientUnits="userSpaceOnUse">
<stop stop-color="#00E1E1"/>
<stop offset="0.0237" stop-color="#00D6E3"/>
<stop offset="0.1336" stop-color="#00ABED"/>
<stop offset="0.2397" stop-color="#0088F5"/>
<stop offset="0.3395" stop-color="#006FFA"/>
<stop offset="0.4308" stop-color="#0060FE"/>
<stop offset="0.5054" stop-color="#005BFF"/>
<stop offset="0.6343" stop-color="#0045C0"/>
<stop offset="0.931" stop-color="#000D25"/>
<stop offset="1"/>
</linearGradient>
<linearGradient id="paint8_linear_293_38144" x1="362.535" y1="180.332" x2="364.299" y2="464.388" gradientUnits="userSpaceOnUse">
<stop stop-color="#00E1E1"/>
<stop offset="0.0237" stop-color="#00D6E3"/>
<stop offset="0.1336" stop-color="#00ABED"/>
<stop offset="0.2397" stop-color="#0088F5"/>
<stop offset="0.3395" stop-color="#006FFA"/>
<stop offset="0.4308" stop-color="#0060FE"/>
<stop offset="0.5054" stop-color="#005BFF"/>
<stop offset="0.6343" stop-color="#0045C0"/>
<stop offset="0.931" stop-color="#000D25"/>
<stop offset="1"/>
</linearGradient>
<linearGradient id="paint9_linear_293_38144" x1="535.058" y1="102.53" x2="606.946" y2="316.475" gradientUnits="userSpaceOnUse">
<stop stop-color="#00E1E1"/>
<stop offset="0.0237" stop-color="#00D6E3"/>
<stop offset="0.1336" stop-color="#00ABED"/>
<stop offset="0.2397" stop-color="#0088F5"/>
<stop offset="0.3395" stop-color="#006FFA"/>
<stop offset="0.4308" stop-color="#0060FE"/>
<stop offset="0.5054" stop-color="#005BFF"/>
<stop offset="0.6343" stop-color="#0045C0"/>
<stop offset="0.931" stop-color="#000D25"/>
<stop offset="1"/>
</linearGradient>
<linearGradient id="paint10_linear_293_38144" x1="663.325" y1="157.26" x2="665.665" y2="375.758" gradientUnits="userSpaceOnUse">
<stop stop-color="#008FE1"/>
<stop offset="0.0239" stop-color="#0088E3"/>
<stop offset="0.1606" stop-color="#0066EC"/>
<stop offset="0.2902" stop-color="#004DF2"/>
<stop offset="0.4085" stop-color="#003EF6"/>
<stop offset="0.5054" stop-color="#0039F7"/>
<stop offset="0.6383" stop-color="#002BB8"/>
<stop offset="0.9443" stop-color="#00071D"/>
<stop offset="1"/>
</linearGradient>
<linearGradient id="paint11_linear_293_38144" x1="509.649" y1="227.689" x2="485.085" y2="406.54" gradientUnits="userSpaceOnUse">
<stop stop-color="#00E1E1"/>
<stop offset="0.0237" stop-color="#00D6E3"/>
<stop offset="0.1336" stop-color="#00ABED"/>
<stop offset="0.2397" stop-color="#0088F5"/>
<stop offset="0.3395" stop-color="#006FFA"/>
<stop offset="0.4308" stop-color="#0060FE"/>
<stop offset="0.5054" stop-color="#005BFF"/>
<stop offset="0.6343" stop-color="#0045C0"/>
<stop offset="0.931" stop-color="#000D25"/>
<stop offset="1"/>
</linearGradient>
<linearGradient id="paint12_linear_293_38144" x1="626.676" y1="243.762" x2="602.112" y2="422.611" gradientUnits="userSpaceOnUse">
<stop stop-color="#00E1E1"/>
<stop offset="0.0237" stop-color="#00D6E3"/>
<stop offset="0.1336" stop-color="#00ABED"/>
<stop offset="0.2397" stop-color="#0088F5"/>
<stop offset="0.3395" stop-color="#006FFA"/>
<stop offset="0.4308" stop-color="#0060FE"/>
<stop offset="0.5054" stop-color="#005BFF"/>
<stop offset="0.6343" stop-color="#0045C0"/>
<stop offset="0.931" stop-color="#000D25"/>
<stop offset="1"/>
</linearGradient>
<linearGradient id="paint13_linear_293_38144" x1="652.405" y1="222.423" x2="652.99" y2="343.616" gradientUnits="userSpaceOnUse">
<stop stop-color="#00C1FF"/>
<stop offset="0.0773" stop-color="#1AA9FF"/>
<stop offset="0.1988" stop-color="#3C89FF"/>
<stop offset="0.314" stop-color="#5572FF"/>
<stop offset="0.4192" stop-color="#6464FF"/>
<stop offset="0.5054" stop-color="#695FFF"/>
<stop offset="0.6343" stop-color="#4F48C0"/>
<stop offset="0.931" stop-color="#0F0E25"/>
<stop offset="1"/>
</linearGradient>
<linearGradient id="paint14_linear_293_38144" x1="561.032" y1="234.746" x2="536.468" y2="413.597" gradientUnits="userSpaceOnUse">
<stop stop-color="#00B4E1"/>
<stop offset="0.0151" stop-color="#07AEE3"/>
<stop offset="0.127" stop-color="#3283ED"/>
<stop offset="0.2349" stop-color="#5562F5"/>
<stop offset="0.3366" stop-color="#6E4AFA"/>
<stop offset="0.4294" stop-color="#7D3BFE"/>
<stop offset="0.5054" stop-color="#8236FF"/>
<stop offset="0.6343" stop-color="#6229C0"/>
<stop offset="0.931" stop-color="#130825"/>
<stop offset="1"/>
</linearGradient>
<linearGradient id="paint15_linear_293_38144" x1="590.741" y1="241.062" x2="590.741" y2="372.743" gradientUnits="userSpaceOnUse">
<stop stop-color="#008FE1"/>
<stop offset="0.0239" stop-color="#0088E3"/>
<stop offset="0.1606" stop-color="#0066EC"/>
<stop offset="0.2902" stop-color="#004DF2"/>
<stop offset="0.4085" stop-color="#003EF6"/>
<stop offset="0.5054" stop-color="#0039F7"/>
<stop offset="0.6383" stop-color="#002BB8"/>
<stop offset="0.9443" stop-color="#00071D"/>
<stop offset="1"/>
</linearGradient>
<clipPath id="clip0_293_38144">
<rect width="708" height="294" fill="white"/>
</clipPath>
<clipPath id="clip1_293_38144">
<rect width="708" height="294" fill="white"/>
</clipPath>
</defs>
</svg>
