<svg width="46" height="46" viewBox="0 0 46 46" fill="none" xmlns="http://www.w3.org/2000/svg">
<path fill-rule="evenodd" clip-rule="evenodd" d="M5.76908 28.9211L1.68945 24.3583L14.178 19.8128L16.1217 25.1531L5.76908 28.9211Z" fill="#F89920"/>
<path fill-rule="evenodd" clip-rule="evenodd" d="M5.7391 28.8393L5.54688 34.957L18.0354 30.4116L16.0917 25.0713L5.7391 28.8393Z" fill="#FFBE22"/>
<path fill-rule="evenodd" clip-rule="evenodd" d="M40.4433 16.3104C42.2242 21.4726 36.4828 28.2553 27.552 31.5059C18.6211 34.7564 9.86216 33.2514 7.91016 28.1515L40.4433 16.3104Z" fill="#F0670A"/>
<path fill-rule="evenodd" clip-rule="evenodd" d="M40.4436 16.3105C38.5023 11.196 29.7346 9.68456 20.7944 12.9385C11.8532 16.1929 6.10955 22.987 7.90958 28.1519L40.4436 16.3105Z" fill="#FFD00E"/>
<path fill-rule="evenodd" clip-rule="evenodd" d="M40.4423 16.3108C41.5525 19.7643 35.3194 25.1436 26.4158 28.3842C17.5122 31.6249 9.27966 31.5107 7.91016 28.1515L40.4423 16.3108Z" fill="#F89920"/>
<path fill-rule="evenodd" clip-rule="evenodd" d="M40.4423 16.3108C39.0932 12.9346 30.8478 12.8145 21.9301 16.0602C13.0125 19.306 6.77245 24.6984 7.91011 28.1516L40.4423 16.3108Z" fill="#FFBE22"/>
<path d="M25.4338 11.625C24.5838 8.68696 23.6168 7.05696 22.5188 7.08796C20.3928 7.14796 19.6788 13.888 20.3658 22.522C21.0608 31.249 22.8648 37.804 25.1128 37.745C26.4528 37.71 27.2078 35.565 27.4728 31.842C27.4788 31.766 27.3928 31.818 27.3988 31.742C27.3988 31.742 27.3878 31.605 27.3368 31.602L27.0518 31.583C26.8188 35.199 26.1118 37.282 25.1018 37.308C23.2538 37.357 21.4698 30.872 20.8018 22.488C20.1448 14.241 20.8518 7.57296 22.5318 7.52496C23.3258 7.50196 24.2158 9.00296 25.0038 11.709L25.4338 11.625Z" fill="#F0670A"/>
<path d="M14.901 9.52804C13.091 10.643 15.841 16.837 20.755 23.971C25.72 31.181 30.559 35.956 32.477 34.781C33.548 34.124 33.247 32.131 31.867 29.121C31.817 29.011 31.687 28.962 31.577 29.013C31.468 29.063 31.42 29.193 31.47 29.303C32.753 32.101 33.029 33.93 32.248 34.408C30.672 35.374 25.885 30.65 21.115 23.723C16.423 16.91 13.701 10.78 15.131 9.90004C15.89 9.43304 17.696 10.561 20.081 12.999C20.108 13.026 20.261 13.184 20.295 13.195C20.369 13.217 20.332 13.06 20.391 13.002C20.477 12.918 20.479 12.779 20.394 12.693C17.845 10.089 15.932 8.89304 14.901 9.52804Z" fill="#F0670A"/>
</svg>
