<svg width="46" height="46" viewBox="0 0 46 46" fill="none" xmlns="http://www.w3.org/2000/svg">
<path d="M29 9.81818V33.8182C29 36.5036 30.8546 38 32.8182 38C34.6364 38 36.6364 36.7272 36.6364 33.8182V10C36.6364 7.53818 34.8182 6 32.8182 6C30.8182 6 29 7.69636 29 9.81818Z" fill="#F9AB00"/>
<path d="M19 21.9998V33.818C19 36.5034 20.8546 37.9998 22.8182 37.9998C24.6364 37.9998 26.6364 36.7271 26.6364 33.818V22.1816C26.6364 19.7198 24.8182 18.1816 22.8182 18.1816C20.8182 18.1816 19 19.878 19 21.9998Z" fill="#E37400"/>
<path d="M12.8182 37.9996C14.9269 37.9996 16.6364 36.2902 16.6364 34.1815C16.6364 32.0727 14.9269 30.3633 12.8182 30.3633C10.7095 30.3633 9 32.0727 9 34.1815C9 36.2902 10.7095 37.9996 12.8182 37.9996Z" fill="#E37400"/>
</svg>
