<svg width="46" height="46" viewBox="0 0 46 46" fill="none" xmlns="http://www.w3.org/2000/svg">
<g clip-path="url(#clip0_410_73536)">
<path d="M18.9256 26.728C20.0453 26.728 20.953 27.6357 20.953 28.7554V37.4521C20.953 38.5717 20.0453 39.4793 18.9256 39.4793C17.8061 39.4793 16.8984 38.5717 16.8984 37.4521V28.7554C16.8984 27.6358 17.8061 26.7282 18.9256 26.7282V26.728Z" fill="#A4C639"/>
<path d="M14.2996 16.2725C14.2929 16.3493 14.2871 16.4271 14.2871 16.5056V29.682C14.2871 31.099 15.4088 32.2406 16.8012 32.2406H30.2006C31.5931 32.2406 32.7148 31.0989 32.7148 29.682V16.5056C32.7148 16.4271 32.7119 16.3491 32.7054 16.2725H14.2996Z" fill="#A4C639"/>
<path d="M28.0717 26.7284C29.1913 26.7284 30.099 27.636 30.099 28.7557V37.4524C30.099 38.572 29.1913 39.4796 28.0717 39.4796C26.9522 39.4796 26.0445 38.572 26.0445 37.4524V28.7557C26.0445 27.6362 26.9522 26.7285 28.0717 26.7285V26.7284ZM11.0273 17.4451C12.1468 17.4451 13.0545 18.3528 13.0545 19.4725V28.1692C13.0545 29.2888 12.1468 30.1965 11.0273 30.1965C9.90768 30.1965 9 29.2888 9 28.1693V19.4726C8.99986 18.353 9.90754 17.4451 11.0273 17.4451ZM35.9699 17.4451C37.0894 17.4451 37.9971 18.3528 37.9971 19.4725V28.1692C37.9971 29.2888 37.0894 30.1965 35.9699 30.1965C34.8502 30.1965 33.9426 29.2888 33.9426 28.1693V19.4726C33.9426 18.353 34.8502 17.4451 35.9699 17.4451ZM14.3564 15.407C14.4128 11.3597 17.9453 8.04133 22.4797 7.604H24.5171C29.0518 8.04147 32.584 11.36 32.6404 15.407H14.3564Z" fill="#A4C639"/>
<path d="M15.0645 7.21338L17.203 10.9176M31.9387 7.21338L29.8 10.9176" stroke="#A4C639" stroke-width="0.427077" stroke-linecap="round" stroke-linejoin="round"/>
<path d="M20.7774 11.78C20.7791 12.3457 20.3108 12.8056 19.7314 12.8072C19.1523 12.8086 18.6814 12.3514 18.6797 11.7856V11.78C18.6781 11.2141 19.1463 10.7543 19.7256 10.7527C20.3047 10.7511 20.7756 11.2082 20.7774 11.7743V11.78ZM28.6065 11.78C28.6082 12.3457 28.14 12.8056 27.5606 12.8072C26.9815 12.8086 26.5106 12.3514 26.5089 11.7856V11.78C26.5073 11.2141 26.9755 10.7543 27.5548 10.7527C28.1339 10.7511 28.6048 11.2082 28.6065 11.7743V11.78Z" fill="white"/>
</g>
<defs>
<clipPath id="clip0_410_73536">
<rect width="28.998" height="32.4799" fill="white" transform="translate(9 7)"/>
</clipPath>
</defs>
</svg>
