<svg width="46" height="46" viewBox="0 0 46 46" fill="none" xmlns="http://www.w3.org/2000/svg">
<path d="M22.6832 39L5.00023 18.454L12.6602 8.074L22.6832 7L32.7052 8.074L40.3652 18.454L22.6832 39Z" fill="#FFAE00"/>
<path d="M22.6832 39L5.00023 18.454L40.3652 18.454L22.6832 39Z" fill="#EC6C00"/>
<path d="M22.684 39L12.16 18.454L33.207 18.454L22.684 39Z" fill="#FFAE00"/>
<path d="M22.684 6.99998L12.16 18.454L33.207 18.454L22.684 6.99998Z" fill="#FFEFB4"/>
<path d="M12.6602 8.07398L8.72316 13.3L5.00016 18.454H12.2302L12.6602 8.07398Z" fill="#FFAE00"/>
<path d="M32.7051 8.07398L36.6421 13.3L40.3651 18.454H33.1351L32.7051 8.07398Z" fill="#FFAE00"/>
<path d="M12.6616 8.07398L12.1606 18.454L22.6836 6.99998L12.6616 8.07398Z" fill="#FED305"/>
<path d="M32.7056 8.07398L33.2066 18.454L22.6836 6.99998L32.7056 8.07398Z" fill="#FED305"/>
</svg>
