<svg width="88" height="46" viewBox="0 0 88 46" fill="none" xmlns="http://www.w3.org/2000/svg">
<g clip-path="url(#clip0_410_73631)">
<path d="M61.6717 12.3073C61.6717 11.0331 62.703 10 63.9753 10C65.2477 10 66.2789 11.0331 66.2789 12.3073C66.2789 13.5823 65.2477 14.6154 63.9753 14.6154C62.703 14.6154 61.6717 13.5823 61.6717 12.3073ZM28.5012 19.2849C29.5838 20.4922 30.1824 22.0542 30.1824 23.6767V31.6773H26.6505V23.5767C26.6432 21.9845 25.3305 20.6847 23.7327 20.6847C23.6411 20.6847 23.5412 20.692 23.4412 20.7002C22.0131 20.846 20.815 22.1999 20.815 23.6611V31.6773H17.2831V23.5997C17.2757 22.0001 15.9704 20.692 14.3727 20.692C14.281 20.692 14.1811 20.7002 14.0812 20.7076C12.6603 20.8542 11.4549 22.2072 11.4549 23.6767V31.6773H8V23.5767C8 20.0384 10.8793 17.1619 14.4112 17.1619C16.1776 17.1619 17.8587 17.8998 19.0724 19.185C20.2852 17.8925 21.9746 17.1619 23.7557 17.1619C23.9482 17.1619 24.1324 17.1693 24.324 17.1848C25.9364 17.3233 27.4187 18.0694 28.5012 19.2849ZM52.2273 31.692H48.6954V10.3465H52.2273V31.692ZM58.9841 31.692H55.4522V10.3465H58.9841V31.692ZM65.7417 31.6847H62.2098V17.5304H65.7417V31.6847ZM82.25 25.8693H71.5076C71.9842 27.5771 73.5352 28.777 75.3319 28.777C76.7372 28.777 78.004 28.0611 78.7337 26.8538L78.8794 26.6155L81.7972 28.0537L81.6285 28.3388C80.2993 30.5773 77.8656 31.9688 75.2705 31.9688H75.2623C73.2813 31.9688 71.4233 31.1842 70.018 29.7615C68.6128 28.3388 67.8528 26.4615 67.8758 24.4769C67.8987 22.5308 68.6668 20.7076 70.0336 19.3308C71.4003 17.9539 73.2282 17.1848 75.1633 17.1619H75.2549C77.1212 17.1619 78.8712 17.9081 80.1994 19.2537C81.5203 20.6003 82.25 22.3695 82.25 24.2459V25.8693ZM71.5617 22.9461H78.6796C78.1727 21.4382 76.7289 20.3767 75.1165 20.3767C73.5041 20.3767 72.0603 21.4382 71.5617 22.9461ZM46.7915 24.5768C46.7915 28.6542 43.4741 31.9771 39.405 31.9771C35.335 31.9771 32.0176 28.6542 32.0176 24.5768C32.0176 20.5004 35.3277 17.1766 39.405 17.1766C43.4814 17.1766 46.7915 20.5004 46.7915 24.5768ZM43.2898 24.5842C43.2898 22.4382 41.5472 20.692 39.405 20.692C37.2628 20.692 35.5193 22.4382 35.5193 24.5842C35.5193 26.731 37.2628 28.4772 39.405 28.4772C41.5472 28.4772 43.2898 26.731 43.2898 24.5842Z" fill="#080F20"/>
</g>
<defs>
<clipPath id="clip0_410_73631">
<rect width="75" height="32" fill="white" transform="translate(8 6)"/>
</clipPath>
</defs>
</svg>
