<svg width="46" height="46" viewBox="0 0 46 46" fill="none" xmlns="http://www.w3.org/2000/svg">
<g clip-path="url(#clip0_410_36998)">
<path d="M21.0508 4.11892C21.407 4.00017 22.4164 4.00017 22.7133 4.00017C30.0758 3.88142 40.2883 10.2345 40.9414 22.2283V37.1314C40.9414 39.8033 38.7445 42.0002 36.0727 42.0002C34.1133 42.0002 31.5008 39.5064 31.5008 37.1314V22.2283C31.2039 18.3095 28.057 13.8564 22.7133 13.5595C22.4164 13.5595 21.7039 13.5595 21.1695 13.5595" fill="#FBBC04"/>
<path d="M40.8223 37.25C40.8223 39.8625 38.6254 42 36.0723 42C33.5191 42 31.3223 39.8031 31.3223 37.25C31.3223 34.6969 33.4004 32.5 36.0723 32.5C38.7441 32.5594 40.8223 34.6375 40.8223 37.25Z" fill="#4285F4"/>
<path d="M21.2879 41.8811C23.9598 41.8811 26.2754 39.6843 26.2754 37.0124C26.2754 34.3405 24.0191 32.4405 21.2879 32.4405C16.6566 32.1437 12.2629 27.9874 12.6191 22.4062V22.2874C12.916 17.8343 16.6566 13.9155 21.4066 13.6187C24.0785 13.6187 26.3941 11.6593 26.3941 8.9874C26.3941 6.31553 24.1973 4.11865 21.4066 4.11865C21.2879 4.11865 21.2285 4.11865 21.1098 4.11865C12.7973 4.41553 3.17852 11.2437 3.11914 22.8811V22.9999C3.11914 34.8155 13.4504 41.8218 21.2285 41.8218L21.2879 41.8811Z" fill="#EA4335"/>
</g>
<defs>
<clipPath id="clip0_410_36998">
<rect width="38" height="38" fill="white" transform="translate(3 4)"/>
</clipPath>
</defs>
</svg>
