<svg width="46" height="46" viewBox="0 0 46 46" fill="none" xmlns="http://www.w3.org/2000/svg">
<g clip-path="url(#clip0_410_36944)">
<path d="M6.70117 30.297L18.0062 10.1743L27.8022 15.9864L16.4986 36.109L6.70117 30.297Z" fill="#FBBC04"/>
<path d="M39.2016 30.2269L27.8896 10.097C26.4293 7.25896 23.0076 6.17465 20.2457 7.67523C17.4838 9.17582 16.43 12.692 17.8889 15.53C17.9529 15.6545 18.0212 15.7761 18.0935 15.8962L29.4055 36.0261C30.9312 38.827 34.378 39.8269 37.1037 38.2591C39.8294 36.6912 40.8024 33.1494 39.2767 30.3485C39.2517 30.3027 39.2266 30.2583 39.2016 30.214V30.2269Z" fill="#4285F4"/>
<path d="M11.656 38.9698C14.7797 38.9698 17.312 36.3677 17.312 33.1578C17.312 29.9479 14.7797 27.3457 11.656 27.3457C8.53227 27.3457 6 29.9479 6 33.1578C6 36.3677 8.53227 38.9698 11.656 38.9698Z" fill="#34A853"/>
</g>
<defs>
<clipPath id="clip0_410_36944">
<rect width="34" height="32" fill="white" transform="translate(6 7)"/>
</clipPath>
</defs>
</svg>
