<svg width="46" height="46" viewBox="0 0 46 46" fill="none" xmlns="http://www.w3.org/2000/svg">
<g clip-path="url(#clip0_410_36940)">
<path d="M27.4348 22.9286C27.3791 20.5053 25.3836 18.5773 22.959 18.6058H11.418V27.2502H18.8928V34.5202C18.7632 36.8593 20.5538 38.8612 22.8928 38.9909C22.9434 38.9935 22.9953 38.9961 23.0458 38.9961C25.4938 38.9714 27.4582 36.9682 27.4335 34.5202L27.4348 22.9286Z" fill="#B366F6"/>
<path d="M11.3669 27.3476C13.7787 27.3476 15.7339 25.3925 15.7339 22.9807C15.7339 20.5689 13.7787 18.6138 11.3669 18.6138C8.95514 18.6138 7 20.5689 7 22.9807C7 25.3925 8.95514 27.3476 11.3669 27.3476Z" fill="#8430CE"/>
<path d="M38.0905 11.3449C38.0672 8.93841 36.1093 7 33.7029 7H21.8987C19.6555 7.22561 17.9492 9.11216 17.9492 11.3669C17.9492 13.6217 19.6555 15.507 21.8987 15.7326H29.4604V22.9948C29.3632 25.3806 31.2186 27.3929 33.603 27.4901C35.9888 27.5874 38.0011 25.7319 38.0983 23.3475C38.1035 23.2308 38.1035 23.1128 38.0983 22.9961L38.0905 11.3449Z" fill="#C58AF8"/>
</g>
<defs>
<clipPath id="clip0_410_36940">
<rect width="32" height="32" fill="white" transform="translate(7 7)"/>
</clipPath>
</defs>
</svg>
