<svg width="94" height="46" viewBox="0 0 94 46" fill="none" xmlns="http://www.w3.org/2000/svg">
<g clip-path="url(#clip0_410_73652)">
<path d="M22.4002 18.5051H12.1864V21.7575L18.8434 21.7575C19.2552 21.7575 19.5889 22.0913 19.589 22.5031V28.2623H18.1662C17.7545 28.2623 17.4207 27.9285 17.4207 27.5168V23.3837H14.6094C13.9174 23.3837 13.2536 23.6587 12.7643 24.148C12.2749 24.6374 12 25.3011 12 25.9932V28.9053C12 29.5974 12.2749 30.2611 12.7643 30.7505C13.2537 31.2398 13.9174 31.5148 14.6094 31.5148H25.0096V21.1146C25.0096 20.4225 24.7347 19.7588 24.2453 19.2694C23.756 18.78 23.0923 18.5051 22.4002 18.5051Z" fill="#0ABF53"/>
<path d="M34.7664 28.2624H33.3437C32.932 28.2624 32.5982 27.9286 32.5982 27.5168V18.5051H29.7872C29.0951 18.5051 28.4314 18.78 27.942 19.2694C27.4527 19.7588 27.1777 20.4225 27.1777 21.1145V28.9054C27.1777 29.5974 27.4527 30.2611 27.942 30.7505C28.4314 31.2399 29.0951 31.5148 29.7872 31.5148H40.1874V13.0845H34.7666L34.7664 28.2624Z" fill="#0ABF53"/>
<path d="M49.9443 28.2624H48.5216C48.1098 28.2624 47.776 27.9286 47.776 27.5168V18.5051H42.3555V28.9054C42.3555 29.5974 42.6304 30.2612 43.1198 30.7505C43.6091 31.2399 44.2728 31.5148 44.9649 31.5148H49.9445V33.141H42.5419V36.9347H52.7558C54.1969 36.9347 55.3652 35.7665 55.3652 34.3253V18.5051H49.9443V28.2624Z" fill="#0ABF53"/>
<path d="M67.9333 18.5051H57.5332V28.9053C57.5332 29.5974 57.8081 30.2611 58.2975 30.7505C58.7868 31.2398 59.4506 31.5148 60.1426 31.5148H70.3563V28.2623H63.6993C63.2876 28.2623 62.9538 27.9285 62.9537 27.5168V21.7576H64.3765C64.5742 21.7576 64.7638 21.8361 64.9037 21.9759C65.0435 22.1157 65.122 22.3054 65.122 22.5031V26.6361H67.9333C68.6254 26.6361 69.2891 26.3612 69.7785 25.8718C70.2678 25.3825 70.5427 24.7188 70.5427 24.0267V21.1146C70.5427 20.4225 70.2678 19.7588 69.7785 19.2694C69.2891 18.78 68.6254 18.5051 67.9333 18.5051Z" fill="#0ABF53"/>
<path d="M83.1112 18.5051H72.7109V31.5148H78.1317V21.7575H79.5544C79.9656 21.7587 80.2987 22.0918 80.2999 22.503V31.5148H85.7207V21.1146C85.7207 20.4225 85.4457 19.7588 84.9564 19.2694C84.467 18.78 83.8033 18.5051 83.1112 18.5051Z" fill="#0ABF53"/>
</g>
<defs>
<clipPath id="clip0_410_73652">
<rect width="74" height="32" fill="white" transform="translate(12 6)"/>
</clipPath>
</defs>
</svg>
