<svg width="46" height="46" viewBox="0 0 46 46" fill="none" xmlns="http://www.w3.org/2000/svg">
<path d="M22.3496 39C31.1862 39 38.3496 31.8366 38.3496 23C38.3496 14.1634 31.1862 7 22.3496 7C13.5131 7 6.34961 14.1634 6.34961 23C6.34961 31.8366 13.5131 39 22.3496 39Z" fill="url(#paint0_linear_147_2725)"/>
<path d="M30.0802 20.9653L30.0782 21.0113L30.0745 21.1229C29.874 24.9812 26.7347 28.1355 22.9688 28.2627L22.7327 28.2667C21.447 28.2667 20.4047 27.222 20.4047 25.9333C20.4047 24.6447 21.447 23.6 22.7327 23.6C24.1228 23.6 25.3979 22.3189 25.4282 20.7882L25.4242 20.8573L25.424 20.7526C25.3696 19.3767 24.3036 18.2867 22.9324 18.2049L22.7664 18.2H22.6989C21.1748 18.2 19.9391 19.4385 19.9391 20.9662V30.9333C19.9391 32.222 18.8969 33.2667 17.6112 33.2667C17.0484 33.2667 16.5323 33.0665 16.1299 32.7334C16.5763 32.5176 16.8832 32.0613 16.8832 31.5333C16.8832 30.7969 16.2863 30.2 15.5499 30.2C15.4585 30.2 15.3694 30.2092 15.2832 30.2267L15.2832 20.9662C15.2832 16.8612 18.6034 13.5333 22.6989 13.5333H22.7664C26.8802 13.5333 30.1623 16.8892 30.0806 21.0118L30.0812 20.8803L30.0802 20.9543L30.0822 20.9183L30.0806 21.0118L30.0802 20.9653Z" fill="url(#paint1_linear_147_2725)"/>
<g filter="url(#filter0_i_147_2725)">
<path d="M30.0802 20.9653L30.0782 21.0113L30.0745 21.1229C29.874 24.9812 26.7347 28.1355 22.9688 28.2627L22.7327 28.2667C21.447 28.2667 20.4047 27.222 20.4047 25.9333C20.4047 24.6447 21.447 23.6 22.7327 23.6C24.1228 23.6 25.3979 22.3189 25.4282 20.7882L25.4242 20.8573L25.424 20.7526C25.3696 19.3767 24.3036 18.2867 22.9324 18.2049L22.7664 18.2H22.6989C21.1748 18.2 19.9391 19.4385 19.9391 20.9662V30.9333C19.9391 32.222 18.8969 33.2667 17.6112 33.2667C17.0484 33.2667 16.5323 33.0665 16.1299 32.7334C16.5763 32.5176 16.8832 32.0613 16.8832 31.5333C16.8832 30.7969 16.2863 30.2 15.5499 30.2C15.4585 30.2 15.3694 30.2092 15.2832 30.2267L15.2832 20.9662C15.2832 16.8612 18.6034 13.5333 22.6989 13.5333H22.7664C26.8802 13.5333 30.1623 16.8892 30.0806 21.0118L30.0812 20.8803L30.0802 20.9543L30.0822 20.9183L30.0806 21.0118L30.0802 20.9653Z" fill="black"/>
</g>
<path d="M22.7499 27.4C23.5599 27.4 24.2165 26.7434 24.2165 25.9333C24.2165 25.1233 23.5599 24.4667 22.7499 24.4667C21.9399 24.4667 21.2832 25.1233 21.2832 25.9333C21.2832 26.7434 21.9399 27.4 22.7499 27.4Z" fill="#F7F7F7"/>
<defs>
<filter id="filter0_i_147_2725" x="15.2832" y="13.5333" width="14.7988" height="19.7333" filterUnits="userSpaceOnUse" color-interpolation-filters="sRGB">
<feFlood flood-opacity="0" result="BackgroundImageFix"/>
<feBlend mode="normal" in="SourceGraphic" in2="BackgroundImageFix" result="shape"/>
<feColorMatrix in="SourceAlpha" type="matrix" values="0 0 0 0 0 0 0 0 0 0 0 0 0 0 0 0 0 0 127 0" result="hardAlpha"/>
<feOffset/>
<feGaussianBlur stdDeviation="4"/>
<feComposite in2="hardAlpha" operator="arithmetic" k2="-1" k3="1"/>
<feColorMatrix type="matrix" values="0 0 0 0 0 0 0 0 0 0 0 0 0 0 0 0 0 0 0.420177 0"/>
<feBlend mode="normal" in2="shape" result="effect1_innerShadow_147_2725"/>
</filter>
<linearGradient id="paint0_linear_147_2725" x1="1606.35" y1="7" x2="1606.35" y2="3207" gradientUnits="userSpaceOnUse">
<stop stop-color="white"/>
<stop offset="1" stop-color="#F2F2F2"/>
</linearGradient>
<linearGradient id="paint1_linear_147_2725" x1="755.233" y1="13.5333" x2="755.233" y2="1986.87" gradientUnits="userSpaceOnUse">
<stop stop-color="#C063D5"/>
<stop offset="1" stop-color="#5A1AA9"/>
</linearGradient>
</defs>
</svg>
