<svg width="46" height="46" viewBox="0 0 46 46" fill="none" xmlns="http://www.w3.org/2000/svg">
<path d="M36.1 7H9.9C8.3 7 7 8.299 7 9.9V36.1C7 37.7 8.299 39 9.9 39H36.1C37.701 39 39 37.701 39 36.1V9.9C39 8.3 37.701 7 36.1 7Z" fill="#DC395F"/>
<path d="M17.6939 17.0679C18.7579 17.0679 19.6489 16.2339 19.6489 15.1419C19.6489 14.0499 18.7589 13.2159 17.6939 13.2159C16.6309 13.2159 15.7399 14.0499 15.7399 15.1419C15.7399 16.2339 16.6299 17.0679 17.6939 17.0679ZM13.6409 27.3829C13.5259 27.8719 13.4689 28.3999 13.4689 28.8299C13.4689 30.5269 14.3889 31.6529 16.3429 31.6529C17.9649 31.6529 19.2789 30.6899 20.2249 29.1349L19.6479 31.4549H22.8669L24.7069 24.0749C25.1669 22.2059 26.0579 21.2359 27.4089 21.2359C28.4729 21.2359 29.1339 21.8979 29.1339 22.9899C29.1339 23.3059 29.1049 23.6499 28.9899 24.0239L28.0419 27.4169C27.8979 27.9049 27.8399 28.3939 27.8399 28.8539C27.8399 30.4639 28.7889 31.6419 30.7729 31.6419C32.4689 31.6419 33.8199 30.5499 34.5669 27.9339L33.3019 27.4459C32.6699 29.1989 32.1239 29.5159 31.6919 29.5159C31.2619 29.5159 31.0319 29.2279 31.0319 28.6539C31.0319 28.3939 31.0889 28.1079 31.1749 27.7619L32.0949 24.4569C32.3249 23.6809 32.4109 22.9929 32.4109 22.3609C32.4109 19.8889 30.9159 18.5979 29.1049 18.5979C27.4089 18.5979 25.6849 20.1279 24.8219 21.7379L25.4539 18.8479H20.5399L19.8499 21.3939H22.1499L20.7329 27.0639C19.6209 29.5359 17.5779 29.5759 17.3219 29.5189C16.9009 29.4239 16.6319 29.2639 16.6319 28.7169C16.6319 28.4009 16.6889 27.9479 16.8329 27.4009L18.9889 18.8479H13.5259L12.8359 21.3939H15.1069L13.6409 27.3839" fill="white"/>
</svg>
