<svg width="139" height="46" viewBox="0 0 139 46" fill="none" xmlns="http://www.w3.org/2000/svg">
<g clip-path="url(#clip0_410_73682)">
<path d="M11.2379 30.7441H14.0456C15.2323 30.7588 16.0664 30.5452 16.5457 30.1021C17.0243 29.6582 17.2957 29.1685 17.3562 28.6335C17.3708 28.5723 17.3791 28.5153 17.3791 28.4617V28.2899C17.3791 27.5706 17.0974 26.9862 16.5339 26.5348C15.9718 26.084 15.1037 25.8586 13.9322 25.8586H11.2379V30.7441ZM11.2379 23.8495H12.7224C13.832 23.8641 14.6584 23.6652 15.1983 23.2527C15.7395 22.8401 16.0087 22.212 16.0087 21.3709C16.0087 20.7901 15.8146 20.2822 15.4271 19.8461C15.0397 19.4099 14.3273 19.1921 13.2922 19.1921H11.2379V23.8495ZM9 17.1831H13.5203C15.1649 17.1977 16.367 17.6047 17.1287 18.4047C17.889 19.2033 18.2849 20.0826 18.3155 21.0412V21.1219V21.1782C18.3155 21.9845 18.1214 22.6586 17.7332 23.1977C17.3443 23.7396 16.7475 24.1772 15.9412 24.5118V24.5334C17.1127 24.7615 18.0303 25.2388 18.6925 25.9608C19.3541 26.6843 19.6852 27.5706 19.6852 28.6203C19.6852 28.7428 19.681 28.8645 19.6741 28.9862C19.665 29.1073 19.647 29.229 19.6163 29.3515C19.4487 30.2043 18.9548 30.9835 18.1318 31.6909C17.3103 32.3998 16.047 32.7532 14.3426 32.7532H9V17.1831Z" fill="#080F20"/>
<path d="M35.3913 26.6347C35.3913 28.5526 34.8167 30.0858 33.6675 31.2336C32.5182 32.3842 30.7875 32.9588 28.4737 32.9588C26.8299 32.9588 25.3384 32.4753 23.9993 31.5084C22.6601 30.5421 21.9902 29.0013 21.9902 26.8851V17.1821H24.2275V26.3835C24.2275 27.2823 24.2956 27.955 24.4334 28.4044C24.5704 28.8531 24.8132 29.2524 25.1638 29.6023C25.6048 30.044 26.1071 30.3752 26.6699 30.595C27.2334 30.8169 27.8497 30.9268 28.5196 30.9268C29.3718 30.9268 30.1057 30.8044 30.7228 30.5616C31.3391 30.3181 31.8219 30.0204 32.1725 29.6705C32.5683 29.276 32.8306 28.7919 32.96 28.2207C33.0894 27.651 33.1541 26.9992 33.1541 26.2694V17.1821H35.3913V26.6347Z" fill="#080F20"/>
<path d="M52.1929 18.2557V20.6529C51.5842 20.3183 51.0019 20.033 50.4468 19.7965C49.8909 19.5614 49.3323 19.3826 48.7688 19.2602C48.4488 19.1997 48.1295 19.1503 47.8095 19.112C47.4902 19.0737 47.1633 19.055 46.828 19.055C45.0478 19.055 43.5675 19.6184 42.3876 20.744C41.2078 21.871 40.6186 23.2936 40.6186 25.0132C40.6186 26.7635 41.2008 28.1868 42.3647 29.2831C43.5292 30.3788 45.0478 30.9263 46.9191 30.9263C47.3615 30.9263 47.8095 30.8887 48.2659 30.8122C48.7236 30.7357 49.18 30.6216 49.6363 30.4706C50.0927 30.3176 50.5497 30.1353 51.0061 29.9224C51.4624 29.7089 51.9118 29.4577 52.3528 29.169V31.5885C51.5925 31.9997 50.7661 32.3308 49.8756 32.5812C48.9859 32.8323 47.9313 32.9583 46.7139 32.9583C44.4155 32.9583 42.613 32.3843 41.3038 31.2344C39.9946 30.0859 39.1188 28.8184 38.6777 27.4334C38.556 27.0529 38.4648 26.6765 38.4043 26.3037C38.3431 25.9308 38.3125 25.569 38.3125 25.2191C38.3125 22.8449 39.1153 20.881 40.7222 19.329C42.3264 17.777 44.3695 17 46.8509 17C47.6572 17 48.4836 17.1023 49.3288 17.3082C50.1734 17.5141 51.1285 17.8376 52.1929 18.2786V18.2557Z" fill="#080F20"/>
<path d="M68.7918 32.7529H65.7094L57.7873 25.059V32.7529H55.5508V17.1829H57.7873V24.3056L64.341 17.1829H67.125L60.3445 24.5575L68.7918 32.7529Z" fill="#080F20"/>
<path d="M87.1005 23.9866H88.5384C89.7259 24.0012 90.5335 23.7549 90.9593 23.245C91.3843 22.7344 91.5986 22.1598 91.5986 21.5198V21.4982V21.4753C91.5826 20.7365 91.3398 20.157 90.8675 19.7348C90.3958 19.3118 89.6188 19.101 88.5384 19.101H87.1005V23.9866ZM88.7909 17.1831C90.3728 17.1977 91.6208 17.5942 92.5342 18.3706C93.4469 19.1462 93.9033 20.2113 93.9033 21.5664C93.9033 22.4645 93.6793 23.2408 93.2313 23.8941C92.7812 24.5494 92.1384 25.0447 91.3008 25.3793C91.7433 25.668 92.1419 26.0102 92.5008 26.4061C92.857 26.8026 93.2035 27.2506 93.5388 27.7535C93.7363 28.0422 93.9381 28.3497 94.144 28.6774C94.3499 29.005 94.5586 29.3431 94.7715 29.6937C94.8626 29.8461 94.9495 29.9908 95.0337 30.1271C95.1172 30.2641 95.2055 30.3949 95.296 30.516C95.312 30.5466 95.3308 30.5807 95.353 30.6175C95.3767 30.6572 95.4031 30.6906 95.4337 30.7212C95.616 30.9946 95.8212 31.2875 96.0501 31.5991C96.2775 31.9121 96.5607 32.2955 96.8946 32.7532H94.2233L92.169 29.5567C91.3008 28.2175 90.601 27.3153 90.0688 26.8506C89.536 26.3866 89.033 26.1243 88.5621 26.0631C88.4709 26.0492 88.3833 26.0367 88.2998 26.0297C88.2156 26.0221 88.1287 26.0186 88.0375 26.0186H87.1005V32.7532H84.8633V17.1831H88.7909Z" fill="#080F20"/>
<path d="M99.0873 24.9675C99.0873 26.6886 99.6619 28.1119 100.811 29.2375C101.96 30.3644 103.402 30.9258 105.137 30.9258C106.888 30.9258 108.337 30.3644 109.487 29.2375C110.636 28.1119 111.21 26.6949 111.21 24.9905C111.21 23.2709 110.636 21.8517 109.487 20.7331C108.337 19.6145 106.888 19.0545 105.137 19.0545C103.402 19.0545 101.96 19.6145 100.811 20.7331C99.6619 21.8517 99.0873 23.2709 99.0873 24.9905V24.9675ZM96.7812 24.9675C96.7812 22.8215 97.5423 20.9571 99.0644 19.3738C100.586 17.7926 102.61 17.0002 105.137 17.0002C107.709 17.0002 109.748 17.7884 111.256 19.3627C112.762 20.9376 113.517 22.8138 113.517 24.9905C113.517 27.0914 112.769 28.9446 111.279 30.5495C109.787 32.1557 107.725 32.9585 105.092 32.9585C102.55 32.9585 100.529 32.1599 99.0303 30.5606C97.5305 28.9627 96.7812 27.106 96.7812 24.9905V24.9675Z" fill="#080F20"/>
<path d="M118.331 24.9675C118.331 26.6886 118.905 28.1119 120.055 29.2375C121.204 30.3644 122.646 30.9258 124.382 30.9258C126.131 30.9258 127.58 30.3644 128.73 29.2375C129.879 28.1119 130.454 26.6949 130.454 24.9905C130.454 23.2709 129.879 21.8517 128.73 20.7331C127.58 19.6145 126.131 19.0545 124.382 19.0545C122.646 19.0545 121.204 19.6145 120.055 20.7331C118.905 21.8517 118.331 23.2709 118.331 24.9905V24.9675ZM116.025 24.9675C116.025 22.8215 116.785 20.9571 118.308 19.3738C119.83 17.7926 121.854 17.0002 124.382 17.0002C126.953 17.0002 128.993 17.7884 130.5 19.3627C132.007 20.9376 132.76 22.8138 132.76 24.9905C132.76 27.0914 132.014 28.9446 130.521 30.5495C129.03 32.1557 126.968 32.9585 124.335 32.9585C121.793 32.9585 119.774 32.1599 118.274 30.5606C116.775 28.9627 116.025 27.106 116.025 24.9905V24.9675Z" fill="#080F20"/>
<path d="M78.9337 23.6877H74.0947L76.6054 29.3266L78.9337 23.6877ZM68.8203 17.0908H71.1034L73.18 21.6786H79.8019L81.765 17.0908H84.0481L77.3594 32.7513H75.7831L68.8203 17.0908Z" fill="#CDD905"/>
</g>
<defs>
<clipPath id="clip0_410_73682">
<rect width="124" height="32" fill="white" transform="translate(9 5)"/>
</clipPath>
</defs>
</svg>
