<svg width="46" height="46" viewBox="0 0 46 46" fill="none" xmlns="http://www.w3.org/2000/svg">
<g clip-path="url(#clip0_410_73442)">
<path d="M35.3715 31.9209C34.8879 33.0381 34.3155 34.0665 33.6522 35.012C32.7482 36.301 32.0079 37.1932 31.4375 37.6887C30.5532 38.5019 29.6057 38.9184 28.5911 38.9421C27.8627 38.9421 26.9843 38.7348 25.9618 38.3144C24.936 37.8959 23.9933 37.6887 23.1313 37.6887C22.2272 37.6887 21.2576 37.8959 20.2205 38.3144C19.1818 38.7348 18.3451 38.9539 17.7054 38.9756C16.7324 39.0171 15.7626 38.5888 14.7946 37.6887C14.1768 37.1498 13.404 36.226 12.4782 34.9173C11.485 33.5197 10.6684 31.8992 10.0286 30.0516C9.34346 28.0559 9 26.1235 9 24.2526C9 22.1095 9.46308 20.2612 10.3906 18.7122C11.1196 17.4681 12.0894 16.4866 13.3031 15.7662C14.5169 15.0457 15.8284 14.6785 17.2407 14.655C18.0135 14.655 19.0269 14.8941 20.2863 15.3639C21.5421 15.8352 22.3484 16.0743 22.7019 16.0743C22.9662 16.0743 23.862 15.7948 25.3805 15.2375C26.8166 14.7208 28.0285 14.5068 29.0214 14.5911C31.7119 14.8082 33.7331 15.8688 35.0774 17.7796C32.6712 19.2375 31.4809 21.2795 31.5046 23.8991C31.5263 25.9395 32.2665 27.6375 33.7213 28.9857C34.3806 29.6114 35.1169 30.095 35.936 30.4385C35.7584 30.9537 35.5709 31.4471 35.3715 31.9209ZM29.201 7.63975C29.201 9.23903 28.6168 10.7323 27.4522 12.1144C26.0467 13.7575 24.3468 14.707 22.5034 14.5571C22.4799 14.3653 22.4662 14.1633 22.4662 13.9511C22.4662 12.4158 23.1346 10.7727 24.3215 9.4293C24.9141 8.74909 25.6677 8.1835 26.5817 7.73233C27.4936 7.28788 28.3562 7.04209 29.1675 7C29.1912 7.2138 29.201 7.42763 29.201 7.63975Z" fill="white"/>
</g>
<defs>
<clipPath id="clip0_410_73442">
<rect width="27" height="32" fill="white" transform="translate(9 7)"/>
</clipPath>
</defs>
</svg>
