<svg width="46" height="46" viewBox="0 0 46 46" fill="none" xmlns="http://www.w3.org/2000/svg">
<mask id="mask0_147_2709" style="mask-type:luminance" maskUnits="userSpaceOnUse" x="8" y="7" width="16" height="32">
<path d="M8 7.52454H23.435V38.48H8V7.52454Z" fill="white"/>
</mask>
<g mask="url(#mask0_147_2709)">
<path fill-rule="evenodd" clip-rule="evenodd" d="M23.435 38.4801H12.2083C9.8838 38.4801 8 36.5957 8 34.2723V11.7328C8 9.40886 9.8838 7.52454 12.2083 7.52454H23.435V38.4801Z" fill="#0F4C77"/>
</g>
<path fill-rule="evenodd" clip-rule="evenodd" d="M23.4355 23.0451H38.9561V11.7328C38.9561 9.40834 37.0717 7.52454 34.7478 7.52454H23.4355V23.0451Z" fill="#103A5B"/>
<path fill-rule="evenodd" clip-rule="evenodd" d="M23.4355 38.4734H34.7478C37.0717 38.4734 38.9561 36.5896 38.9561 34.2657V23.0022H23.4355V38.4734Z" fill="#155B90"/>
<path fill-rule="evenodd" clip-rule="evenodd" d="M15.9575 26.5999C15.4744 26.5999 14.9907 26.593 14.5076 26.603C14.2295 26.6083 14.1204 26.486 14.1273 26.2148C14.1383 25.7631 14.1404 25.8927 14.1356 25.4421C14.133 25.1814 14.25 25.0764 14.5071 25.078C15.4739 25.0833 31.4828 25.0833 32.4496 25.078C32.7061 25.0764 32.8236 25.1808 32.821 25.4416C32.8168 25.8927 32.8184 25.7631 32.8299 26.2143C32.8368 26.4855 32.7282 26.6083 32.4496 26.603C31.9665 26.593 16.4407 26.5999 15.9575 26.5999Z" fill="#F05651"/>
<path fill-rule="evenodd" clip-rule="evenodd" d="M24.5289 25.8401C24.5289 26.3238 24.5216 26.8075 24.5315 27.2906C24.5373 27.5687 24.4145 27.6772 24.1433 27.6704C23.6922 27.6594 23.2405 27.6573 22.7899 27.662C22.5286 27.6647 22.4242 27.5482 22.4258 27.2906C22.4311 26.3238 22.4311 25.357 22.4258 24.3902C22.4242 24.1336 22.5286 24.0161 22.7894 24.0188C23.2405 24.0235 23.6917 24.0214 24.1428 24.0104C24.414 24.003 24.5373 24.1116 24.5315 24.3896C24.5216 24.8733 24.5289 25.357 24.5289 25.8401Z" fill="#FEFEFE"/>
<path fill-rule="evenodd" clip-rule="evenodd" d="M23.4674 20.9239C22.0762 20.9255 20.9017 19.742 20.909 18.3456C20.9158 16.9596 22.0762 15.795 23.4569 15.7871C24.8723 15.7788 26.0558 16.9575 26.0484 18.3676C26.0411 19.7693 24.877 20.9224 23.4674 20.9239ZM31.7617 30.6745C31.7575 30.4285 31.6967 30.1614 31.5855 29.9422C30.168 27.1482 28.739 24.3595 27.3059 21.5739C27.191 21.351 27.1836 21.1946 27.3368 20.9722C28.5465 19.218 28.3907 16.8773 26.9811 15.2783C26.3228 14.5313 25.4992 14.0586 24.5281 13.8063C24.5281 13.1999 24.5219 12.6097 24.5313 12.0195C24.536 11.7436 24.4222 11.6308 24.1468 11.6371C23.7386 11.6466 23.3295 11.635 22.9208 11.635C22.4702 11.6345 22.4413 11.6634 22.4408 12.1098C22.4403 12.6763 22.4408 13.2424 22.4408 13.8C22.36 13.8215 22.3186 13.832 22.2771 13.8441C19.0651 14.7506 17.8228 18.4626 19.6972 21.0745C19.821 21.2471 19.7622 21.3609 19.6872 21.5078C18.4539 23.9267 17.262 26.3671 15.9742 28.7566C15.4097 29.8047 15.1018 30.8471 15.2025 32.0332C15.2602 32.7167 15.2083 33.4087 15.2188 34.0964C15.2203 34.1845 15.3001 34.2716 15.3431 34.3592C15.4265 34.3078 15.5204 34.2674 15.5902 34.2018C15.6416 34.1531 15.661 34.0712 15.6951 34.0041C17.5642 30.3325 19.4333 26.6603 21.3035 22.9893C21.3691 22.8597 21.4436 22.7354 21.5165 22.6037C22.8411 23.155 24.1347 23.186 25.4603 22.6163C25.9482 23.5668 26.4203 24.4807 26.8872 25.3982C28.3619 28.2955 29.8328 31.1954 31.3137 34.0901C31.3725 34.205 31.5136 34.2779 31.6164 34.3697C31.6678 34.2454 31.7617 34.1211 31.7628 33.9957C31.7743 32.8888 31.7801 31.7819 31.7617 30.6745Z" fill="#FEFEFE"/>
</svg>
