<svg width="46" height="46" viewBox="0 0 46 46" fill="none" xmlns="http://www.w3.org/2000/svg">
<g clip-path="url(#clip0_410_36954)">
<path d="M40.7454 27.2749L34.4455 40.9997H19.3848L27.6253 23.2812H38.172C40.2251 23.2812 41.5891 25.4047 40.7454 27.2749Z" fill="#437DE6"/>
<path d="M20.8763 7.09578L5 40.9999H19.681L36.162 5.56299H23.281C22.2544 5.56299 21.3122 6.1536 20.8763 7.09578Z" fill="url(#paint0_linear_410_36954)"/>
<path d="M38.1735 23.5344C39.0595 23.5344 39.861 23.9703 40.3391 24.7156C40.8172 25.4609 40.8735 26.375 40.5079 27.1765L34.2923 40.7607H20.0754L28.0768 23.5344H38.1735ZM38.1735 23.2812H27.9221L19.6816 40.9997H34.447L40.7329 27.2749C41.5907 25.4047 40.2266 23.2812 38.1735 23.2812Z" fill="#196CEA"/>
<path d="M28.0762 23.5344C28.0762 23.5344 35.9792 32.1124 37.8354 32.9983L40.4088 27.3593C41.3088 25.5734 40.1557 23.4922 38.0041 23.5203L28.0762 23.5344Z" fill="url(#paint1_linear_410_36954)"/>
<path d="M35.7683 5.81611L19.5263 40.7609H5.39374L21.1013 7.19421C21.495 6.35048 22.3528 5.80205 23.281 5.80205H35.7683V5.81611ZM36.162 5.56299H23.281C22.2544 5.56299 21.3122 6.1536 20.8763 7.09578L5 40.9999H19.681L36.162 5.56299Z" fill="#F3AA00"/>
</g>
<defs>
<linearGradient id="paint0_linear_410_36954" x1="13.865" y1="34.4657" x2="22.2868" y2="20.5305" gradientUnits="userSpaceOnUse">
<stop stop-color="#F5B406"/>
<stop offset="1" stop-color="#F4B913"/>
</linearGradient>
<linearGradient id="paint1_linear_410_36954" x1="28.0814" y1="28.2677" x2="40.7267" y2="28.2677" gradientUnits="userSpaceOnUse">
<stop stop-color="#4284F0"/>
<stop offset="1" stop-color="#4487F4"/>
</linearGradient>
<clipPath id="clip0_410_36954">
<rect width="36" height="36" fill="white" transform="translate(5 5)"/>
</clipPath>
</defs>
</svg>
