<svg width="68" height="46" viewBox="0 0 68 46" fill="none" xmlns="http://www.w3.org/2000/svg">
<g clip-path="url(#clip0_410_73642)">
<path fill-rule="evenodd" clip-rule="evenodd" d="M61.516 24.2765C61.516 20.5774 59.7246 17.6577 56.2989 17.6577C52.8606 17.6577 50.7788 20.5768 50.7788 24.247C50.7788 28.5967 53.2352 30.7929 56.7609 30.7929C58.4807 30.7929 59.7812 30.4032 60.7636 29.8538V26.9637C59.7812 27.4552 58.6542 27.7582 57.2235 27.7582C55.8218 27.7582 54.5791 27.2666 54.4201 25.562H61.4852C61.4852 25.3734 61.5141 24.6229 61.5141 24.2759L61.516 24.2765ZM54.3836 22.9044C54.3836 21.2713 55.3806 20.5925 56.2914 20.5925C57.1726 20.5925 58.1123 21.2713 58.1123 22.9044H54.3836ZM45.2084 17.6589C43.7922 17.6589 42.8827 18.3233 42.376 18.786L42.1875 17.8902H39.0025V34.7391L42.6149 33.9735L42.6293 29.884C43.1498 30.2599 43.9154 30.7942 45.1876 30.7942C47.7742 30.7942 50.1295 28.7199 50.1295 24.1326C50.115 19.9419 47.7308 17.6583 45.2015 17.6583L45.2084 17.6589ZM44.341 27.6155C43.4886 27.6155 42.9832 27.3119 42.6356 26.9366L42.6212 21.5749C42.9971 21.1557 43.5169 20.8672 44.341 20.8672C45.6559 20.8672 46.5661 22.3412 46.5661 24.2338C46.5661 26.1698 45.6704 27.6155 44.341 27.6155ZM34.0324 16.8066L37.6592 16.0272V13.0942L34.0324 13.8598V16.8066ZM34.0324 17.9047H37.6592V30.5484H34.0324V17.9047ZM30.1447 18.9733L29.9134 17.9047H26.7919V30.5497H30.4043V21.9797C31.2566 20.8672 32.7017 21.0696 33.1499 21.2286V17.9053C32.6872 17.7318 30.9976 17.4132 30.1447 18.9733ZM22.9199 14.7618L19.3942 15.5142L19.3798 27.0888C19.3798 29.2272 20.9839 30.8024 23.1223 30.8024C24.3071 30.8024 25.1739 30.5855 25.651 30.3246V27.3911C25.1884 27.5797 22.9054 28.2434 22.9054 26.105V20.9828H25.651V17.9047H22.9042L22.9199 14.7618ZM13.1519 21.568C13.1519 21.0042 13.6145 20.7886 14.3801 20.7886C15.6298 20.8152 16.8563 21.1315 17.963 21.7126V18.324C16.7636 17.8462 15.5788 17.6596 14.3801 17.6596C11.4466 17.6596 9.49609 19.1914 9.49609 21.749C9.49609 25.7373 14.9873 25.1012 14.9873 26.8216C14.9873 27.486 14.409 27.7029 13.6 27.7029C12.4007 27.7029 10.8689 27.2113 9.65512 26.5463V29.9846C10.999 30.5629 12.358 30.8017 13.6 30.8017C16.6059 30.8017 18.6726 29.3133 18.6726 26.7267C18.6582 22.421 13.1519 23.1866 13.1519 21.568Z" fill="#6772E5"/>
</g>
<defs>
<clipPath id="clip0_410_73642">
<rect width="54" height="32" fill="white" transform="translate(9 6)"/>
</clipPath>
</defs>
</svg>
