<svg width="46" height="46" viewBox="0 0 46 46" fill="none" xmlns="http://www.w3.org/2000/svg">
<mask id="mask0_147_2686" style="mask-type:luminance" maskUnits="userSpaceOnUse" x="8" y="6" width="30" height="32">
<path d="M8 6.23535H37.5147V37.8088H8V6.23535Z" fill="white"/>
</mask>
<g mask="url(#mask0_147_2686)">
<path fill-rule="evenodd" clip-rule="evenodd" d="M22.5823 35.6987C25.2668 35.6999 27.5823 35.1022 29.6621 33.4293C34.0738 29.8806 35.8941 25.1664 35.3079 19.6071C34.9039 15.774 32.9237 12.842 29.4209 11.054C29.0498 10.8646 28.6792 10.5344 28.2293 10.7686C27.4531 11.1728 26.8053 10.8669 26.1569 10.4716C24.455 9.4342 22.6595 8.84244 20.6199 9.10197C16.3068 9.65114 12.7712 11.2375 11.2077 15.718C9.81688 19.7034 9.47217 23.7462 10.3098 27.8878C11.0221 31.4088 13.0988 33.6883 16.5049 34.8053C18.2943 35.3921 20.115 35.717 22.5823 35.6987ZM20.8418 37.7989C19.391 37.8575 17.9675 37.6528 16.5764 37.269C11.4562 35.8563 8.87429 32.2881 8.21382 27.193C7.63217 22.7067 8.24276 18.3596 9.97759 14.1704C11.5693 10.3262 14.1816 7.88597 18.5496 7.75491C19.4802 7.72691 20.4096 7.60856 21.3355 7.49938C22.0816 7.41138 22.9122 7.7342 23.4213 6.69961C23.6475 6.24009 24.5204 6.07303 25.1303 6.42244C27.1477 7.57773 29.3616 8.34314 31.2371 9.79632C36.3919 13.7897 38.3296 19.0121 37.2068 25.3403C36.0837 31.6704 31.8922 35.2163 26.0141 37.057C24.3392 37.5817 22.607 37.8424 20.8418 37.7989Z" fill="#080F20"/>
</g>
<path fill-rule="evenodd" clip-rule="evenodd" d="M30.2855 24.0403C30.1892 25.9163 29.3829 27.3034 27.9598 28.3295C24.6109 30.7445 18.4824 30.161 15.653 27.1761C14.7106 26.1822 14.1332 25.0224 14.137 23.6226C14.1375 23.4445 14.0963 23.2088 14.3483 23.1441C14.6205 23.0746 14.6283 23.3196 14.7175 23.4794C17.6784 28.785 25.5986 29.461 29.465 24.7471C29.6518 24.5194 29.7271 24.1737 30.2855 24.0403Z" fill="#080F20"/>
<path fill-rule="evenodd" clip-rule="evenodd" d="M28.6054 19.2995C28.4411 20.1437 28.0409 20.8068 27.1698 20.7437C26.2341 20.676 26.0668 19.8717 26.1044 19.096C26.1449 18.2684 26.7534 17.9491 27.468 17.999C28.2242 18.0517 28.6207 18.5583 28.6054 19.2995Z" fill="#080F20"/>
<path fill-rule="evenodd" clip-rule="evenodd" d="M18.6969 19.2693C18.6901 19.9724 18.4741 20.4983 17.6744 20.5392C16.8386 20.582 16.2475 19.9648 16.264 19.0799C16.2781 18.3136 16.6231 17.782 17.4245 17.803C18.3233 17.8265 18.6654 18.4467 18.6969 19.2693Z" fill="#080F20"/>
</svg>
