<svg width="46" height="46" viewBox="0 0 46 46" fill="none" xmlns="http://www.w3.org/2000/svg">
<path d="M23.207 22C23.207 19.0544 25.5948 16.6666 28.5404 16.6666C31.4859 16.6666 33.8737 19.0544 33.8737 22C33.8737 24.9455 31.4859 27.3333 28.5404 27.3333C25.5948 27.3333 23.207 24.9455 23.207 22Z" fill="#1ABCFE"/>
<path d="M12.541 32.6667C12.541 29.7212 14.9288 27.3334 17.8743 27.3334H23.2077V32.6667C23.2077 35.6122 20.8199 38 17.8743 38C14.9288 38 12.541 35.6122 12.541 32.6667Z" fill="#0ACF83"/>
<path d="M23.207 6V16.6667H28.5404C31.4859 16.6667 33.8737 14.2789 33.8737 11.3333C33.8737 8.38781 31.4859 6 28.5404 6H23.207Z" fill="#FF7262"/>
<path d="M12.541 11.3333C12.541 14.2789 14.9288 16.6667 17.8743 16.6667H23.2077V6H17.8743C14.9288 6 12.541 8.38781 12.541 11.3333Z" fill="#F24E1E"/>
<path d="M12.541 22C12.541 24.9455 14.9288 27.3333 17.8743 27.3333H23.2077V16.6666H17.8743C14.9288 16.6666 12.541 19.0544 12.541 22Z" fill="#A259FF"/>
</svg>
