<svg width="46" height="46" viewBox="0 0 46 46" fill="none" xmlns="http://www.w3.org/2000/svg">
<path d="M7.73242 8.36694H37.8124V37.6259H7.73242V8.36694Z" fill="#2E001E"/>
<path d="M6.36523 7V38.993H39.1792V7H6.36523ZM7.73223 8.367H37.8122V37.627H7.73223V8.367Z" fill="#FF2BC2"/>
<path d="M30.1969 20.44C29.9919 20.344 29.7319 20.303 29.4039 20.303C27.6809 20.303 26.5329 21.629 26.5329 23.831C26.5329 26.346 27.7089 27.358 29.2399 27.358C29.5679 27.358 29.9239 27.318 30.1829 27.208V20.44H30.1969ZM24.0719 23.94C24.0719 20.754 26.1219 18.266 29.4859 18.266C29.7729 18.266 29.9239 18.266 30.1969 18.293V14.74C30.1969 14.658 30.2649 14.603 30.3339 14.603H32.5349C32.6449 14.603 32.6719 14.643 32.6719 14.713V27.209C32.6719 27.578 32.6719 28.043 32.7399 28.549C32.7399 28.644 32.7399 28.659 32.6579 28.699C31.5099 29.246 30.3059 29.492 29.1579 29.492C26.1909 29.492 24.0719 27.66 24.0719 23.942V23.94ZM19.4089 21.725L23.2379 29.149C23.3059 29.259 23.2649 29.369 23.1559 29.369H20.7759C20.6259 29.369 20.5579 29.327 20.4899 29.19C19.6149 27.386 18.7259 25.512 17.8099 23.571H17.7819C16.9619 25.403 16.0599 27.399 15.1849 29.204C15.1159 29.314 15.0479 29.354 14.9389 29.354H12.6689C12.5319 29.354 12.5189 29.245 12.5869 29.163L16.3329 21.958L12.7099 14.793C12.6279 14.683 12.7099 14.588 12.8059 14.588H15.1559C15.2929 14.588 15.3609 14.616 15.4019 14.738C16.2639 16.557 17.1389 18.348 17.9589 20.18H17.9869C18.7799 18.375 19.6549 16.557 20.4889 14.766C20.5569 14.656 20.5979 14.588 20.7349 14.588H22.9359C23.0459 14.588 23.0859 14.67 23.0179 14.793L19.4079 21.725H19.4089Z" fill="#FF2BC2"/>
</svg>
