<svg width="46" height="54" viewBox="0 0 46 54" fill="none" xmlns="http://www.w3.org/2000/svg">
<path d="M2 2V52.625H44.537V2H2ZM43.4386 51.5266H2.99852V2.99852H43.4386V51.5266ZM26.8632 7.49186C26.8632 8.09097 27.2626 8.49038 27.9615 8.49038H28.2611V6.69305H27.9615C27.2626 6.69305 26.8632 7.09245 26.8632 7.49186ZM18.176 6.59319C17.0777 6.59319 16.3787 7.29216 16.3787 8.49038C16.3787 9.68861 17.0777 10.3876 18.176 10.3876C19.1746 10.3876 19.9734 9.68861 19.9734 8.49038C19.9734 7.29216 19.1746 6.59319 18.176 6.59319ZM37.747 44.7367C37.747 45.1361 38.1464 45.5355 38.6457 45.5355H39.145V44.0377H38.6457C38.1464 44.0377 37.747 44.3373 37.747 44.7367ZM42.4401 4.09689H4.09689V12.8839H42.4401V4.09689ZM9.4889 11.1864L7.39202 8.88979V11.1864H6.09394V5.69453H7.39202V7.99112L9.38905 5.69453H10.8868L8.49038 8.39053L10.9867 11.1864H9.4889ZM20.4726 10.4874C19.8735 10.9867 19.0747 11.2862 18.176 11.2862C17.2774 11.2862 16.5784 11.0865 15.9793 10.5873C15.3802 10.088 14.9808 9.38905 14.9808 8.49038C14.9808 7.69157 15.3802 6.9926 15.8794 6.49334C16.4786 5.99408 17.2774 5.59467 18.176 5.59467C19.1746 5.59467 19.9734 5.99408 20.5725 6.49334C21.0717 6.9926 21.2715 7.69157 21.2715 8.49038C21.2715 9.2892 20.9719 9.98816 20.4726 10.4874ZM29.7589 9.2892H29.5592V11.1864H28.2611V9.2892H28.0614C26.2641 9.2892 25.6649 8.19083 25.6649 7.49186C25.6649 6.29364 26.5636 5.69453 27.8617 5.69453H29.9586C31.2567 5.69453 32.1553 6.29364 32.1553 7.49186C32.1553 8.19083 31.5562 9.2892 29.7589 9.2892ZM39.9438 7.89127V8.88979H37.747V10.2877H40.2433V11.1864H36.5488V5.69453H40.2433L39.9438 6.69305H37.747V7.99112H39.9438V7.89127ZM16.2788 44.537L15.5799 46.1346H16.878C16.878 46.1346 16.2788 44.6368 16.2788 44.537ZM29.7589 6.69305H29.5592V8.49038H29.8587C30.5577 8.49038 30.8572 8.09097 30.8572 7.59171C30.8572 7.09245 30.5577 6.69305 29.7589 6.69305ZM42.4401 40.9423H27.9615V40.1435H42.4401V13.6827H4.09689V40.1435H22.4697L24.0673 40.9423H4.09689V50.4282H42.4401V40.9423ZM42.0407 39.8439H27.9615V39.7441C28.0614 39.6442 28.0614 39.6442 28.1612 39.5444H30.8572C30.8572 39.5444 30.9571 39.5444 30.9571 39.4445L30.8572 39.3447H28.2611L28.3609 39.2448H42.0407V39.8439ZM32.2552 31.3565C32.2552 31.5562 32.1553 31.6561 32.1553 31.7559H27.9615V31.3565H32.2552ZM27.9615 31.2567V30.9571H32.4549C32.355 31.0569 32.355 31.1568 32.2552 31.2567H27.9615ZM32.0555 31.8558C32.0555 31.9556 31.9556 32.0555 31.9556 32.2552H27.9615V31.8558H32.0555ZM31.8558 32.355C31.8558 32.4549 31.7559 32.5547 31.7559 32.6546H27.9615V32.355H31.8558ZM31.6561 32.7544C31.6561 32.8543 31.5562 33.054 31.5562 33.1538H27.9615V32.7544H31.6561ZM31.4564 33.2537C31.3565 33.3535 31.3565 33.4534 31.2567 33.5533H27.9615V33.2537H31.4564ZM31.2567 33.6531C31.1568 33.8528 31.1568 33.9527 31.0569 34.0525H27.9615V33.6531H31.2567ZM31.2567 34.9512V36.0496H31.0569V34.9512C31.1568 34.9512 31.1568 34.9512 31.2567 34.9512ZM31.0569 34.1524C30.9571 34.2522 30.9571 34.4519 30.8572 34.5518H27.9615V34.1524H31.0569ZM30.7574 34.6516C30.7574 34.7515 30.6575 34.8513 30.5577 34.9512H27.9615V34.6516H30.7574ZM30.5577 35.051C30.4578 35.1509 30.4578 35.3506 30.358 35.4504H27.9615V35.051H30.5577ZM30.2581 35.5503C30.2581 35.6501 30.1583 35.75 30.0584 35.8498H27.9615V35.5503H30.2581ZM30.0584 36.0496C29.9586 36.1494 29.8587 36.2493 29.8587 36.3491H27.9615V36.0496H30.0584ZM29.7589 36.449C29.659 36.5488 29.659 36.7485 29.5592 36.8484H27.9615V36.449H29.7589ZM29.4593 36.9482C29.3595 37.0481 29.3595 37.1479 29.2596 37.2478H27.9615V36.9482H29.4593ZM29.1598 37.3476C29.1598 37.4475 29.0599 37.6472 28.9601 37.747H27.9615V37.3476H29.1598ZM28.8602 37.8469C28.7604 37.9467 28.7604 38.0466 28.6605 38.2463H27.9615V37.8469H28.8602ZM28.5606 38.3461C28.4608 38.446 28.3609 38.5459 28.3609 38.6457H27.9615V38.3461H28.5606ZM42.0407 39.0451H28.5606C28.5606 38.9453 28.6605 38.9453 28.6605 38.8454H31.9556C32.0555 38.8454 32.0555 38.8454 32.0555 38.7456C32.0555 38.7456 32.0555 38.6457 31.9556 38.6457H28.7604C28.8602 38.6457 28.8602 38.5459 28.8602 38.446H42.0407V39.0451ZM42.0407 38.3461H29.0599C29.0599 38.2463 29.1598 38.2463 29.1598 38.1464H33.054C33.054 38.1464 33.1538 38.1464 33.1538 38.0466L33.054 37.9467H29.2596C29.3595 37.9467 29.3595 37.8469 29.3595 37.747H42.0407V38.3461ZM42.0407 37.6472H29.4593C29.5592 37.5473 29.5592 37.4475 29.659 37.4475H34.1524C34.2522 37.4475 34.2522 37.3476 34.2522 37.3476C34.2522 37.3476 34.2522 37.2478 34.1524 37.2478H29.7589C29.7589 37.2478 29.8587 37.1479 29.8587 37.0481H42.0407V37.6472ZM42.0407 36.9482H29.9586C29.9586 36.8484 30.0584 36.7485 30.0584 36.7485H35.1509L35.2507 36.6487C35.2507 36.5488 35.1509 36.5488 35.1509 36.5488H30.1583C30.1583 36.449 30.2581 36.449 30.2581 36.3491H42.0407V36.9482ZM31.8558 36.0496V34.7515C31.8558 34.7515 31.9556 34.7515 32.0555 34.7515V36.0496H31.8558ZM32.5547 36.0496V34.4519C32.6546 34.4519 32.6546 34.4519 32.7544 34.4519V36.0496H32.5547ZM33.3535 36.0496V34.1524C33.3535 34.1524 33.4534 34.0525 33.5532 34.0525V36.0496H33.3535ZM34.0525 36.0496V33.753C34.1524 33.753 34.2522 33.6531 34.2522 33.6531V36.0496H34.0525ZM34.8513 36.0496V33.2537C34.9512 33.2537 34.9512 33.2537 35.051 33.1538V36.0496H34.8513ZM35.6501 36.0496V32.7544L35.75 32.6546V36.0496H35.6501ZM36.3491 36.0496V32.1553C36.449 32.0555 36.449 32.0555 36.5488 31.9556V35.9497H36.3491V36.0496ZM37.1479 36.0496V31.4564C37.1479 31.3565 37.2478 31.2567 37.2478 31.2567V36.0496H37.1479ZM37.8469 36.0496V30.5577C37.9467 30.4578 37.9467 30.4578 38.0466 30.358V36.0496H37.8469ZM38.6457 36.0496V29.5592C38.6457 29.4593 38.7456 29.3595 38.7456 29.3595V36.0496H38.6457ZM39.3447 36.0496V28.3609C39.4445 28.2611 39.4445 28.1612 39.5444 28.0614V36.0496H39.3447ZM40.1435 36.0496V26.7633C40.1435 26.6635 40.2433 26.4638 40.2433 26.3639V36.0496H40.1435ZM41.6413 13.9822H41.841V36.0496H41.6413V13.9822ZM40.8425 13.9822H41.0422V21.1716H40.8425V13.9822ZM40.8425 24.3669C40.9423 24.0673 41.0422 23.7677 41.0422 23.4682V36.0496H40.8425V24.3669ZM40.8425 21.571C40.6427 27.5621 36.7485 32.7544 31.3565 34.2522C31.4564 34.1524 31.4564 33.9527 31.5562 33.8528C36.5488 32.1553 40.1435 27.2626 40.3432 21.571H40.8425ZM40.1435 13.9822H40.2433V21.1716H40.1435V13.9822ZM39.3447 13.9822H39.5444V21.1716H39.3447V13.9822ZM38.6457 13.9822H38.7456V21.1716H38.6457V13.9822ZM37.8469 13.9822H38.0466V21.1716H37.8469V13.9822ZM37.1479 13.9822H37.2478V21.0717H37.1479V13.9822ZM36.3491 13.9822H36.5488V21.0717H36.3491V13.9822ZM35.6501 13.9822H35.75V21.0717H35.6501V13.9822ZM40.2433 21.571C40.2433 21.7707 40.2433 21.9704 40.2433 22.0703H35.6501V22.27H40.2433C39.7441 27.4623 36.3491 31.9556 31.6561 33.6531C32.0555 32.9541 32.355 32.1553 32.6546 31.3565C35.5503 30.1583 37.4475 27.5621 38.1464 23.8676V23.6679C38.1464 23.6679 36.5488 23.6679 34.8513 23.6679C34.9512 22.9689 35.051 22.27 35.051 21.6709L40.2433 21.571ZM33.3535 30.6575V29.5592C33.3535 29.3595 33.4534 29.1598 33.5532 28.9601V30.5577C33.4534 30.5577 33.3535 30.5577 33.3535 30.6575ZM34.0525 30.1583V26.963C34.1524 26.7633 34.2522 26.4638 34.2522 26.264V29.9586C34.2522 30.0584 34.1524 30.0584 34.0525 30.1583ZM34.8513 29.4593V24.3669H35.051V29.3595C34.9512 29.3595 34.9512 29.4593 34.8513 29.4593ZM35.6501 28.6605V24.3669H35.75V28.4608C35.75 28.5606 35.6501 28.5606 35.6501 28.6605ZM36.3491 27.5621V24.3669H36.5488V27.2626C36.449 27.3624 36.449 27.4623 36.3491 27.5621ZM37.1479 25.9645V24.3669H37.2478V25.4652C37.2478 25.6649 37.1479 25.7648 37.1479 25.9645ZM34.8513 13.9822H35.051V17.5769H34.8513V13.9822ZM34.0525 13.9822H34.2522V17.5769H34.0525V13.9822ZM33.3535 13.9822H33.5532V17.5769H33.3535V13.9822ZM32.5547 13.9822H32.7544V17.5769H32.5547V13.9822ZM31.8558 13.9822H32.0555V17.5769H31.8558V13.9822ZM31.0569 13.9822H31.2567V17.5769H31.0569V13.9822ZM30.358 13.9822H30.4578V17.5769H30.358V13.9822ZM29.5592 13.9822H29.7589V17.5769H29.5592V13.9822ZM28.8602 13.9822H28.9601V17.5769H28.8602V13.9822ZM28.0614 13.9822H28.2611V17.5769H28.0614V13.9822ZM27.3624 13.9822H27.4623V17.5769H27.3624V13.9822ZM26.5636 13.9822H26.7633V17.5769H26.5636V13.9822ZM25.7648 13.9822H25.9645V17.5769H25.7648V13.9822ZM25.0658 13.9822H25.2655V17.5769H25.0658V13.9822ZM23.8676 14.8809C23.8676 14.3817 24.1672 13.9822 24.1672 13.9822H24.7663C24.7663 13.9822 24.3669 14.4815 24.3669 14.8809C24.3669 15.3802 24.6664 15.7796 24.6664 16.2788C24.6664 16.7781 24.3669 17.1775 24.0673 17.5769C24.0673 17.5769 23.6679 17.5769 23.4682 17.5769C23.8676 17.1775 24.1672 16.6783 24.1672 16.2788C24.1672 15.7796 23.8676 15.3802 23.8676 14.8809ZM22.6694 14.8809C22.6694 14.3817 22.9689 13.9822 22.9689 13.9822H23.568C23.568 13.9822 23.1686 14.4815 23.1686 14.8809C23.1686 15.3802 23.4682 15.7796 23.4682 16.2788C23.4682 16.7781 23.1686 17.1775 22.8691 17.5769C22.8691 17.5769 22.4697 17.5769 22.3698 17.5769C22.6694 17.1775 22.9689 16.6783 22.9689 16.2788C22.9689 15.7796 22.6694 15.3802 22.6694 14.8809ZM21.4711 14.8809C21.4711 14.3817 21.7707 13.9822 21.7707 13.9822H22.3698C22.3698 13.9822 21.9704 14.4815 21.9704 14.8809C21.9704 15.3802 22.27 15.7796 22.27 16.2788C22.27 16.7781 21.9704 17.1775 21.6709 17.5769C21.6709 17.5769 21.2714 17.5769 21.1716 17.5769C21.571 17.1775 21.7707 16.6783 21.7707 16.2788C21.7707 15.7796 21.4711 15.3802 21.4711 14.8809ZM20.2729 14.8809C20.2729 14.3817 20.5725 13.9822 20.5725 13.9822H21.1716C21.1716 13.9822 20.7722 14.4815 20.7722 14.8809C20.7722 15.3802 21.0717 15.7796 21.0717 16.2788C21.0717 16.7781 20.7722 17.1775 20.5725 17.5769C20.5725 17.5769 20.0732 17.5769 19.9734 17.5769C20.3728 17.1775 20.5725 16.6783 20.5725 16.2788C20.5725 15.7796 20.2729 15.3802 20.2729 14.8809ZM19.3743 16.2788C19.3743 15.7796 19.0747 15.3802 19.0747 14.8809C19.0747 14.3817 19.3743 13.9822 19.3743 13.9822H19.9734C19.9734 13.9822 19.574 14.3817 19.574 14.8809C19.574 15.2803 19.8735 15.7796 19.8735 16.2788C19.8735 16.7781 19.574 17.1775 19.3743 17.5769C19.3743 17.5769 18.875 17.5769 18.7751 17.5769C19.0747 17.1775 19.3743 16.6783 19.3743 16.2788ZM18.2759 13.9822H18.4756V17.5769H18.2759V13.9822ZM17.5769 13.9822H17.6768V17.5769H17.5769V13.9822ZM16.7781 13.9822H16.9778V17.5769H16.7781V13.9822ZM15.9793 13.9822H16.179V17.5769H15.9793V13.9822ZM15.2803 13.9822H15.48V17.5769H15.2803V13.9822ZM14.4815 13.9822H14.6812V17.5769H14.4815V13.9822ZM13.7825 13.9822H13.8824V17.5769H13.7825V13.9822ZM12.9837 13.9822H13.1834V17.5769H12.9837V13.9822ZM12.2848 13.9822H12.3846V17.5769H12.2848V13.9822ZM11.4859 13.9822H11.6857V17.5769H11.4859V13.9822ZM10.787 13.9822H10.8868V17.5769H10.787V13.9822ZM9.98817 13.9822H10.1879V17.5769H9.98817V13.9822ZM9.2892 13.9822H9.38905V17.5769H9.2892V13.9822ZM8.49038 13.9822H8.69009V17.5769H8.49038V13.9822ZM7.69157 13.9822H7.89127V17.5769H7.69157V13.9822ZM34.8513 18.0762C34.8513 18.176 34.8513 18.2759 34.8513 18.3757H30.9571C30.9571 18.3757 30.9571 18.3757 30.9571 18.4756H34.8513C34.8513 18.5754 34.8513 18.6753 34.8513 18.7751H7.59172C7.59172 18.5754 7.49187 18.2759 7.49187 18.0762C9.88831 18.0762 32.5547 18.0762 34.8513 18.0762ZM6.9926 13.9822H7.19231V35.9497H6.9926V13.9822ZM6.19379 13.9822H6.39349V35.9497H6.19379V13.9822ZM5.49483 13.9822H5.69453V35.9497H5.49483V13.9822ZM4.69601 13.9822H4.89571V35.9497H4.69601V13.9822ZM4.4963 36.3491H12.0851C12.1849 36.5488 12.3846 36.7485 12.4845 36.9482H4.4963V36.3491ZM7.69157 36.0496V24.3669C7.79142 24.5666 7.89127 24.8661 7.89127 25.1657V36.0496H7.69157ZM8.49038 36.0496V27.662C8.59024 27.8617 8.59024 28.0614 8.69009 28.1612V35.9497L8.49038 36.0496ZM9.2892 36.0496V30.0584C9.2892 30.1583 9.38905 30.358 9.38905 30.5577V36.0496H9.2892ZM9.98817 36.0496V32.0555C10.088 32.1553 10.088 32.2552 10.1879 32.4549V36.0496H9.98817ZM10.787 36.0496V33.753C10.787 33.8528 10.8868 33.9527 10.8868 34.0525V35.9497H10.787V36.0496ZM11.4859 36.0496V35.2507C11.5858 35.3506 11.5858 35.4504 11.6857 35.5503V36.0496H11.4859ZM4.4963 37.0481H12.5843C12.6842 37.2478 12.784 37.4475 12.8839 37.6472H4.4963V37.0481ZM4.4963 37.747H12.9837C13.1834 37.9467 13.2833 38.1464 13.3831 38.3461H4.4963V37.747ZM4.4963 38.446H13.483C13.6827 38.6457 13.7825 38.8454 13.8824 39.0451H4.4963V38.446ZM4.4963 39.8439V39.2448H13.9822C14.182 39.4445 14.2818 39.6442 14.4815 39.8439H4.4963ZM14.7811 39.6442C14.6812 39.5444 14.5814 39.3447 14.4815 39.2448H14.7811V39.6442ZM14.7811 39.145H14.3817C14.3817 39.0451 14.2818 38.9453 14.182 38.7456H14.7811V39.145ZM14.7811 38.6457H14.0821C13.9822 38.5459 13.8824 38.446 13.7825 38.3461H14.7811V38.6457ZM14.7811 38.2463H13.7825C13.6827 38.0466 13.5828 37.9467 13.483 37.8469H14.7811V38.2463ZM14.7811 37.747H13.483C13.3831 37.6472 13.2833 37.4475 13.1834 37.3476H14.7811V37.747ZM14.7811 37.2478H13.1834C13.0836 37.1479 12.9837 37.0481 12.8839 36.9482H14.7811V37.2478ZM14.7811 36.8484H12.8839C12.784 36.7485 12.6842 36.5488 12.6842 36.449H14.7811V36.8484ZM14.7811 36.3491H12.5843C12.4845 36.2493 12.4845 36.1494 12.3846 36.0496H14.7811V36.3491ZM22.3698 39.7441H15.0806V24.267H22.3698V24.3669C22.3698 24.4667 22.3698 24.4667 22.3698 24.4667C22.3698 24.4667 15.48 24.4667 15.2803 24.4667V39.6442C15.48 39.6442 22.3698 39.6442 22.3698 39.6442C22.3698 39.6442 22.4697 39.6442 22.4697 39.7441H22.3698ZM22.27 25.3654H15.5799C15.48 25.3654 15.48 25.2655 15.48 25.2655C15.48 25.2655 15.48 25.1657 15.5799 25.1657H22.27C22.3698 25.1657 22.3698 25.2655 22.3698 25.2655C22.3698 25.2655 22.3698 25.3654 22.27 25.3654ZM22.3698 26.0643C22.3698 26.0643 22.3698 26.1642 22.27 26.1642H15.8794L15.7796 26.0643C15.7796 25.9645 15.8794 25.9645 15.8794 25.9645H22.27C22.3698 25.9645 22.3698 25.9645 22.3698 26.0643ZM15.5799 38.7456H22.3698H22.4697C22.4697 38.8454 22.3698 38.8454 22.3698 38.8454H15.5799C15.48 38.8454 15.48 38.8454 15.48 38.7456C15.48 38.7456 15.48 38.7456 15.5799 38.7456ZM22.3698 38.0466H15.8794H15.7796C15.7796 37.9467 15.8794 37.9467 15.8794 37.9467H22.3698C22.3698 37.9467 22.4697 37.9467 22.4697 38.0466H22.3698ZM11.9852 48.3314H10.787V45.4356C10.787 45.2359 10.787 45.0362 10.787 44.8365C10.6871 45.0362 10.4874 45.2359 10.3876 45.4356L9.38905 46.9334H8.78994L7.59172 45.3358C7.49187 45.2359 7.39202 45.0362 7.19231 44.8365C7.19231 45.0362 7.19231 45.2359 7.19231 45.4356V48.3314H5.99408V43.0392H7.09246L8.69009 45.0362C8.78994 45.2359 8.98964 45.4356 9.0895 45.6353C9.18935 45.4356 9.2892 45.2359 9.4889 45.0362L10.8868 43.0392H11.9852V48.3314ZM17.7766 48.3314L17.1775 47.0333H15.2803L14.6812 48.3314H13.5828L15.7796 43.0392H16.6783L19.0747 48.3314H17.7766ZM25.8646 48.3314H24.6664V46.1346H21.9704V48.3314H20.7722V43.0392H21.9704V45.2359H24.6664V43.0392H25.8646V48.3314ZM27.0629 41.9408C26.7633 41.7411 22.7692 40.0436 22.5695 39.9438V23.8676C22.7692 23.8676 26.7633 21.9704 27.0629 21.8706V41.9408ZM22.4697 23.6679H14.7811V35.8498H12.2848C12.2848 35.75 12.1849 35.6501 12.0851 35.5503H13.7825C13.7825 35.5503 13.7825 35.5503 13.7825 35.4504H12.0851C11.9852 35.3506 11.8854 35.1509 11.8854 35.051H12.8839H12.9837C12.9837 34.9512 12.8839 34.9512 12.8839 34.9512H11.7855C11.7855 34.8513 11.6856 34.7515 11.5858 34.6516H12.1849V34.5518V34.4519H11.5858C9.38905 30.358 7.79142 24.966 7.59172 19.0747H8.19083C8.29068 21.571 8.59024 24.1672 9.2892 26.7633C9.4889 27.5621 9.68861 28.3609 9.98817 29.1598C10.4874 30.5577 10.9867 32.0555 11.6857 33.3535H11.7855C11.1864 31.9556 10.5873 30.5577 10.088 29.1598C9.78846 28.3609 9.58876 27.5621 9.38905 26.6635C8.78994 24.1672 8.39053 21.571 8.29068 19.0747H34.8513C34.8513 19.1746 34.8513 19.1746 34.8513 19.2744H30.9571C30.9571 19.2744 30.9571 19.2744 30.9571 19.3743H34.8513C34.8513 19.4741 34.7515 19.6738 34.7515 19.7737H31.0569C30.9571 19.7737 30.9571 19.7737 30.9571 19.7737C30.9571 19.8735 30.9571 19.8735 31.0569 19.8735H34.7515C34.7515 19.9734 34.7515 20.0732 34.7515 20.1731H31.0569C30.9571 20.1731 30.9571 20.2729 30.9571 20.2729C30.9571 20.2729 30.9571 20.3728 31.0569 20.3728H34.7515C34.7515 20.4726 34.7515 20.5725 34.7515 20.6723H31.0569C30.9571 20.6723 30.9571 20.6723 30.9571 20.7722C30.9571 20.7722 30.9571 20.7722 31.0569 20.7722H34.7515C34.7515 20.872 34.7515 21.0717 34.7515 21.1716H31.0569H30.9571C30.9571 21.2714 31.0569 21.2714 31.0569 21.2714H34.7515C34.6516 21.3713 34.6516 21.4712 34.6516 21.571H30.9571V21.6709V21.7707H34.6516C34.6516 21.8706 34.6516 21.9704 34.6516 22.0703H30.9571C30.9571 22.0703 30.9571 22.0703 30.9571 22.1701H34.6516C34.5518 22.27 34.5518 22.4697 34.5518 22.5695H30.8572C30.8572 22.6694 30.8572 22.6694 30.8572 22.6694H34.5518C34.5518 22.7692 34.5518 22.8691 34.5518 22.9689H30.8572V23.0688H34.4519C34.4519 23.2685 34.4519 23.3683 34.4519 23.4682H30.8572C30.8572 23.4682 30.8572 23.4682 30.8572 23.568H34.4519C34.4519 23.6679 34.3521 23.7677 34.3521 23.9675H30.7574V24.0673H34.3521C34.3521 24.1672 34.3521 24.267 34.2522 24.3669H30.6575C30.5577 24.3669 30.5577 24.4667 30.5577 24.4667C30.5577 24.4667 30.5577 24.4667 30.6575 24.4667H34.2522C34.2522 24.6664 34.2522 24.7663 34.2522 24.8661H30.5577C30.5577 24.966 30.5577 24.966 30.5577 24.966H34.1524C34.1524 25.0658 34.1524 25.1657 34.1524 25.3654H30.4578H30.358L30.4578 25.4652H34.0525C34.0525 25.5651 34.0525 25.6649 34.0525 25.7648H30.358C30.358 25.7648 30.2581 25.7648 30.2581 25.8646H30.358H33.9527C33.9527 25.9645 33.9527 26.1642 33.8528 26.264H30.2581C30.1583 26.264 30.1583 26.264 30.1583 26.264C30.1583 26.3639 30.1583 26.3639 30.2581 26.3639H33.8528C33.8528 26.4638 33.8528 26.5636 33.753 26.6635H30.0584C29.9586 26.6635 29.9586 26.7633 29.9586 26.7633C29.9586 26.7633 29.9586 26.8632 30.0584 26.8632H33.753C33.753 26.963 33.6531 27.0629 33.6531 27.1627H29.9586C29.8587 27.1627 29.8587 27.1627 29.8587 27.2626C29.8587 27.2626 29.8587 27.2626 29.9586 27.2626H33.6531C33.5533 27.3624 33.5532 27.5621 33.5532 27.662H29.659C29.659 27.7618 29.659 27.7618 29.659 27.7618H33.4534C33.4534 27.8617 33.4534 27.9615 33.3535 28.0614H29.4593L29.3595 28.1612L29.4593 28.2611H33.3535C33.3535 28.3609 33.2537 28.4608 33.2537 28.5606H29.3595C29.2596 28.5606 29.2596 28.5606 29.2596 28.6605C29.2596 28.6605 29.2596 28.6605 29.3595 28.6605H33.2537C33.1538 28.7603 33.1538 28.9601 33.1538 29.0599H29.0599C29.0599 29.1598 29.0599 29.1598 29.0599 29.1598H33.054C33.054 29.2596 33.054 29.3595 32.9541 29.4593H28.8602L28.7604 29.5592H28.8602H32.9541C32.8543 29.7589 32.8543 29.8587 32.7544 29.9586H28.5606C28.4608 29.9586 28.4608 29.9586 28.4608 30.0584C28.4608 30.0584 28.4608 30.0584 28.5606 30.0584H32.7544C32.7544 30.1583 32.6546 30.358 32.6546 30.4578H28.2611H28.1612C28.1612 30.5577 28.2611 30.5577 28.2611 30.5577H32.5547C32.5547 30.6575 32.4549 30.7574 32.4549 30.8572H27.9615V21.4712H27.3624L27.1627 21.571L22.4697 23.6679ZM27.7618 41.841H27.3624C27.2626 41.841 27.2626 41.841 27.2626 41.841C27.2626 41.841 27.2626 41.7411 27.3624 41.7411C27.3624 41.7411 27.5621 41.7411 27.662 41.7411C27.662 41.6413 27.662 21.6709 27.662 21.6709V21.571C27.7618 21.571 27.7618 21.6709 27.7618 21.6709V41.841ZM27.9615 38.7456H28.2611C28.1612 38.8454 28.0614 39.0451 27.9615 39.145V38.7456ZM33.6531 48.3314H32.4549V45.4356C32.4549 45.2359 32.4549 44.9364 32.5547 44.7367H32.4549C32.355 44.9364 32.1553 45.1361 31.9556 45.4356L29.4593 48.3314H28.3609V43.0392H29.5592V45.7352C29.5592 46.0348 29.5592 46.3343 29.5592 46.534C29.659 46.3343 29.8587 46.1346 30.0584 45.9349L32.4549 43.0392H33.753V48.3314H33.6531ZM40.3432 48.3314H39.145V46.3343H38.7456C38.5459 46.3343 38.1465 46.9334 37.2478 48.3314H35.9497C36.8484 47.0333 37.3476 46.1346 37.6472 45.9349C37.1479 45.7352 36.5488 45.2359 36.5488 44.6368C36.5488 43.7382 37.1479 43.139 38.6457 43.139H40.3432V48.3314Z" fill="white"/>
</svg>
