<svg width="117" height="54" viewBox="0 0 117 54" fill="none" xmlns="http://www.w3.org/2000/svg">
<path d="M17.6288 12.0067C19.6552 12.0067 20.3127 13.4762 20.8697 14.9457C21.071 15.5563 26.392 30.0497 26.5463 30.4993C26.6 30.6 26.5463 30.8013 26.345 30.9019C26.1437 30.9556 23.406 32.0694 23.2517 32.1164C23.0974 32.1701 22.9498 32.1164 22.8491 31.9151C22.7954 31.7608 21.6346 28.6205 21.534 28.2649C21.1783 28.2112 14.0859 28.2112 13.6766 28.2112C13.5223 28.5669 12.4084 31.7071 12.3615 31.8614C12.3078 32.0158 12.1602 32.1164 11.9589 32.0627C11.8045 32.0091 9.01991 30.9489 8.86558 30.8482C8.71125 30.7946 8.66428 30.5933 8.66428 30.4456C8.91926 29.9357 14.1396 15.6502 14.3879 14.939C14.9448 13.4695 15.6024 12 17.6288 12V12.0067ZM8.30195 37.9004C8.14762 37.9004 8 38.0547 8 38.2023V41.5976C8 41.7519 8.15433 41.8995 8.30195 41.8995H26.9489C27.1032 41.8995 27.2508 41.7452 27.2508 41.5976V38.2023C27.2508 38.048 27.0965 37.9004 26.9489 37.9004H8.30195ZM17.6288 16.7171L14.9448 24.6751H20.3195L17.6355 16.7171H17.6288ZM87.0498 28.4259C87.0498 29.3385 86.5399 29.8954 85.634 29.8954C85.2784 29.8954 84.9765 29.8954 84.5202 29.7411V27.0034C84.7215 26.9498 85.1308 26.9028 85.634 26.9028C86.5466 27.0034 87.0498 27.4597 87.0498 28.4259ZM88.9219 28.2716C88.9219 26.6008 87.9624 25.4333 85.8823 25.4333C85.3724 25.4333 85.0234 25.487 84.4665 25.6346V23.1989C84.8221 23.1452 85.3791 23.0982 86.0366 23.0982C86.6472 23.0982 87.4055 23.0982 88.1167 23.1989L88.1704 21.7831C87.4122 21.5818 86.2983 21.5281 85.4327 21.5281C84.5739 21.5281 83.252 21.7294 82.6481 21.9307V30.8013C83.6143 31.1569 84.5739 31.3112 85.5334 31.3112C87.7611 31.3649 88.9286 30.1974 88.9286 28.2716H88.9219ZM67.4837 27.8153C67.4837 29.0298 66.9737 29.8417 66.1685 29.8417C65.8129 29.8417 65.6585 29.8417 65.2559 29.6874V25.9902C65.6585 25.7889 65.9135 25.7889 66.2691 25.7889C67.0811 25.7889 67.4837 26.4465 67.4837 27.8153ZM61.2501 27.869C61.2501 26.5002 61.6527 25.7889 62.4646 25.7889C62.8202 25.7889 63.0215 25.7889 63.4778 25.9902V29.6874C63.0752 29.8417 62.9209 29.8417 62.5653 29.8417C61.6527 29.8417 61.2501 29.0835 61.2501 27.8623V27.869ZM65.2559 33.3913V30.9556C65.4572 31.1099 65.9135 31.3112 66.6717 31.3112C68.1949 31.3112 69.3088 30.0967 69.3088 27.8153C69.3088 25.3796 68.1949 24.3195 66.4235 24.3195C65.9672 24.3195 65.6653 24.3731 65.3096 24.5208V21.6355H63.5382V24.5208C63.1826 24.3195 62.8806 24.3195 62.4244 24.3195C60.5992 24.3195 59.5391 25.4333 59.5391 27.869C59.5391 30.1504 60.5523 31.3649 62.1761 31.3649C62.9343 31.3649 63.3906 31.1636 63.5919 31.0093V33.445L65.2627 33.3913H65.2559ZM51.8293 31.2106V24.7221C50.8698 24.4201 50.1049 24.3195 49.1454 24.3195C48.1791 24.3195 47.4209 24.4738 46.4614 24.7221V28.0636C46.4614 28.9762 46.4614 29.2311 46.3607 29.5331C46.2601 29.7881 46.1595 30.09 45.7501 30.345L46.2064 31.3582C47.6222 30.9556 48.1859 30.345 48.1859 28.3656V25.9366C48.6421 25.8829 48.7428 25.8359 49.1521 25.8359C49.5547 25.8359 49.6084 25.8359 50.0646 25.9366V31.2039H51.8361L51.8293 31.2106ZM73.7239 29.7948C73.3213 29.9491 73.0663 29.9491 72.7644 29.9491C72.1538 29.9491 71.7512 29.6941 71.7512 29.0365C71.7512 28.379 72.2075 28.124 73.0663 28.124C73.2676 28.124 73.4689 28.124 73.5763 28.1777V28.6876C73.63 29.2446 73.63 29.5465 73.7306 29.8015L73.7239 29.7948ZM75.9516 30.553C75.4953 29.8417 75.341 29.4391 75.341 28.5266V26.7015C75.341 25.6883 75.2403 25.3327 74.9384 25.0307C74.5828 24.5208 73.9789 24.3195 72.8583 24.3195C72.0464 24.3195 71.2882 24.4201 70.5769 24.5744L70.8319 25.8896C71.3419 25.8359 71.8451 25.7353 72.2477 25.7353C73.4152 25.7353 73.5629 25.9366 73.5629 26.8021V27.1578C73.3079 27.1041 73.0059 27.0571 72.6503 27.0571C70.8789 27.0571 69.9663 27.916 69.9663 29.3385C69.9663 30.6536 70.9795 31.4186 72.194 31.4186C72.6503 31.4186 73.1066 31.3179 73.5092 31.2173C73.7105 31.1166 73.8111 31.063 74.1198 30.8617C74.3211 31.1166 74.6297 31.3716 74.7774 31.4186L75.9449 30.5597L75.9516 30.553ZM93.3304 29.7948C92.9277 29.9491 92.6728 29.9491 92.3641 29.9491C91.7535 29.9491 91.3509 29.6941 91.3509 29.0365C91.3509 28.379 91.8072 28.124 92.6661 28.124C92.8674 28.124 93.0687 28.124 93.176 28.1777V28.6876C93.2297 29.2446 93.2297 29.5465 93.3304 29.8015V29.7948ZM95.5581 30.553C95.1018 29.8417 94.9474 29.4391 94.9474 28.5266V26.7015C94.9474 25.6883 94.8468 25.3327 94.5918 25.0307C94.2362 24.5208 93.6323 24.3195 92.5117 24.3195C91.6998 24.3195 90.9416 24.4201 90.2304 24.5744L90.4853 25.8896C90.9953 25.8359 91.4985 25.7353 91.9011 25.7353C93.0687 25.7353 93.2163 25.9366 93.2163 26.8021V27.1578C92.9613 27.1041 92.6594 27.0571 92.3037 27.0571C90.5323 27.0571 89.6198 27.916 89.6198 29.3385C89.6198 30.6536 90.633 31.4186 91.8475 31.4186C92.3037 31.4186 92.76 31.3179 93.1626 31.2173C93.3639 31.1166 93.4646 31.063 93.7732 30.8617C93.9745 31.1166 94.3301 31.3716 94.4308 31.4186L95.5446 30.5597L95.5581 30.553ZM56.8954 28.8822C56.8954 29.5398 56.6941 29.9961 55.8285 29.9961C55.5265 29.9961 55.4259 29.9961 55.0703 29.8954V27.916C55.5265 27.8153 55.5802 27.8153 55.8285 27.8153C56.5867 27.869 56.8954 28.2179 56.8954 28.8822ZM53.2451 24.4201V30.8549C54.0571 31.2106 55.0166 31.3649 55.8285 31.3649C57.7006 31.3649 58.7138 30.4054 58.7138 28.7816C58.7138 27.3658 57.8012 26.4532 56.1774 26.4532C55.7748 26.4532 55.5198 26.5069 55.0635 26.6075V24.3798L53.2384 24.4335L53.2451 24.4201ZM102.047 31.2106V24.4738H100.275V27.0101H98.2487V24.4738H96.4773V31.2106H98.2487V28.4729H100.275V31.2106H102.047ZM109.347 31.2106C109.347 31.2106 108.387 29.1305 108.132 28.6742C107.878 28.1643 107.623 27.7617 107.066 27.661C107.421 27.6073 107.723 27.3591 108.025 26.6948C108.327 26.0372 108.428 25.8829 108.582 25.7353C108.783 25.5809 108.985 25.6346 108.985 25.6346L109.085 24.4201C108.83 24.4201 108.528 24.3664 108.273 24.4201C107.817 24.4201 107.562 24.5744 107.314 24.8227C107.113 25.024 107.012 25.279 106.858 25.5809C106.703 25.9366 106.556 26.1915 106.401 26.5404C106.2 26.8961 106.146 27.0504 105.69 27.0504H105.388V24.514H103.617V31.2508H105.388V28.5132H105.643C106.153 28.5132 106.254 28.6675 106.502 29.1707C106.804 29.7814 107.415 31.2508 107.415 31.2508L109.34 31.1971L109.347 31.2106ZM43.1668 31.2106H45.2469L42.1536 21.7831C41.8517 21.6824 41.4424 21.5818 40.9861 21.5818C40.5298 21.5818 40.3755 21.6355 39.9729 21.7831L36.6783 31.2106H38.6577C38.6577 31.2106 38.9127 30.3987 39.2683 29.3855H42.6636C42.9185 30.3987 43.1735 31.2106 43.1735 31.2106H43.1668ZM39.7179 27.7617C39.7179 27.7617 40.2748 25.8896 40.3755 25.5809C40.5768 24.8227 40.9324 23.6015 40.9324 23.6015H40.9861C40.9861 23.6015 41.288 24.8697 41.496 25.5809C41.5967 25.8359 42.1066 27.7617 42.1066 27.7617H39.7246H39.7179ZM78.9912 26.6948C78.3806 26.6948 77.8773 27.2047 77.8773 27.8086C77.8773 28.4192 78.3873 28.9225 78.9912 28.9225C79.6018 28.9225 80.1051 28.4125 80.1051 27.8086C80.1051 27.198 79.5951 26.6948 78.9912 26.6948Z" fill="white"/>
</svg>
