<svg width="119" height="54" viewBox="0 0 119 54" fill="none" xmlns="http://www.w3.org/2000/svg">
<path d="M98.6726 26.5959L111.811 17.9557C112.294 17.6565 112.111 17 111.57 17H106.888C106.589 17 106.347 17.0579 106.164 17.2413L93.6237 25.6981V17.6565C93.6237 17.2993 93.3244 17 92.9672 17H89.9069C89.5498 17 89.2505 17.2993 89.2505 17.6565V36.7903C89.2505 37.1475 89.5498 37.4468 89.9069 37.4468H92.9672C93.3244 37.4468 93.6237 37.1475 93.6237 36.7903V27.9088L106.82 37.2054C107.004 37.3213 107.303 37.4468 107.544 37.4468H112.284C112.825 37.4468 113.009 36.7903 112.584 36.4235L98.663 26.5862L98.6726 26.5959Z" fill="white"/>
<path d="M58.0591 29.1735H53.4446V33.8556H39.1087V29.1735H34.4941V33.4887C34.4941 36.1918 35.8746 37.4468 38.9349 37.4468C39.1183 37.4468 53.5121 37.4468 53.6956 37.4468C56.7558 37.4468 58.1363 36.2497 58.1363 33.4887L58.0784 29.1735H58.0591Z" fill="white"/>
<path d="M53.6277 17C53.4443 17 39.0504 17 38.867 17C35.8068 17 34.4263 18.1971 34.4263 20.9581V23.5935V25.2154H39.0408V20.5333H53.3188V25.2154H57.9333V23.5935V20.9581C58.0491 18.255 56.6783 17 53.618 17H53.6277Z" fill="white"/>
<path d="M26.8096 27.1365C28.4894 26.8951 29.7444 25.5147 29.7444 23.8349V20.9581C29.7444 18.255 28.3639 17 25.3036 17H7.72404C7.36684 17 7 17.3572 7 17.724V36.6165C7 37.0992 7.35719 37.3985 7.72404 37.3985H24.6954C28.0549 37.3985 29.8506 36.018 29.8506 33.3825V30.3802C29.9085 28.7004 28.528 27.262 26.7903 27.1365H26.8096ZM11.3925 20.4754H23.5659C24.763 20.4754 25.3615 21.016 25.3615 22.2131V23.777C25.3615 24.9161 24.763 25.4567 23.5659 25.4567H11.3925V20.4754ZM25.4291 32.2337C25.4291 33.3728 24.8306 33.9135 23.6335 33.9135H11.3925V28.9321H23.6914C24.8885 28.9321 25.487 29.4727 25.487 30.6698V32.2337H25.4291Z" fill="white"/>
<path d="M85.2923 36.4331L77.3762 29.7141C77.3762 29.7141 80.0117 29.7141 80.0793 29.7141C83.1395 29.7141 84.52 28.517 84.52 25.756V20.9581C84.52 18.255 83.1395 17 80.0793 17H63.4651C63.0499 17 62.6831 17.3572 62.6831 17.782V36.7999C62.6831 37.1571 62.9824 37.4564 63.3396 37.4564H66.3998C66.757 37.4564 67.0563 37.1571 67.0563 36.7999V29.6658H71.3715L80.0696 37.0992C80.3109 37.2826 80.5523 37.3985 80.9674 37.3985H84.9834C85.524 37.3985 85.7653 36.7999 85.2827 36.4428L85.2923 36.4331ZM67.0563 20.4754H78.274C79.4711 20.4754 80.0696 21.016 80.0696 22.2131V24.6168C80.0696 25.756 79.4711 26.2966 78.274 26.2966H67.0563V20.4754Z" fill="white"/>
</svg>
