<svg width="130" height="54" viewBox="0 0 130 54" fill="none" xmlns="http://www.w3.org/2000/svg">
<path fill-rule="evenodd" clip-rule="evenodd" d="M120.905 32.4207C119.95 33.2823 118.919 34.1884 117.592 33.9053C117.247 33.8259 116.931 33.6487 116.679 33.3939C116.427 33.1391 116.249 32.8167 116.165 32.463C116.009 31.8292 116.048 31.2215 116.126 30.5669L121.514 30.5561L121.368 30.3607C118.649 26.9569 116.491 23.1146 115.048 19.0669C113.496 23.1661 111.319 27.2153 108.727 30.5776L114.007 30.5669C113.976 31.3161 114.141 32.2315 113.815 32.8746C113.486 33.5807 112.716 33.9307 112.003 33.9461C109.874 33.7353 108.457 31.7469 107.647 29.8661C106.704 27.5538 107.052 24.3807 108.533 22.4053C110.596 19.4976 114.237 18.3238 117.63 19.4376C119.699 20.1269 121.54 21.8369 122.448 24.013C123.524 26.7092 122.888 30.3146 120.905 32.4207ZM123.951 22.4469C123.158 20.9707 121.991 19.5807 120.674 18.6953C117.715 16.6138 113.322 16.4492 110.23 18.2015C107.061 19.9307 104.874 23.5469 105.103 27.4746C105.298 31.6846 108.188 35.3523 111.926 36.5015C115.894 37.8361 120.382 36.4138 122.948 33.163C125.161 30.2953 125.72 25.7823 123.951 22.4469Z" fill="white"/>
<path fill-rule="evenodd" clip-rule="evenodd" d="M98.4181 30.89C98.5709 31.1092 98.6201 31.5446 98.4778 31.9215C98.3458 32.2708 98.1699 32.4769 97.8278 32.6238C97.3612 32.8254 96.7456 32.6385 96.5473 32.3931C96.5473 32.3931 94.9478 30.4431 94.0639 29.3338C93.9073 29.17 93.8276 29.02 93.6629 28.8531L89.4003 28.8738C88.3426 28.8785 87.0949 27.6123 87.0949 26.6038V26.2146L95.0328 26.2046C95.3294 26.2046 95.6626 25.9262 95.8251 25.5623C95.9719 25.2346 95.9697 24.9692 95.8251 24.6392C95.6529 24.2469 95.2609 23.9662 94.953 23.9677L86.3198 23.9915L86.2944 24.0785V31.7862C86.2944 32.3 85.5871 32.96 84.8947 32.8946C84.2552 32.8331 83.7304 32.1815 83.7312 31.7262L83.7409 23.5569C83.7416 22.7062 83.9891 22.3746 84.5257 21.9062C85.0482 21.45 85.5208 21.3492 86.2139 21.35L95.5851 21.36C96.923 21.3615 98.1752 22.3769 98.6768 23.8408C99.2157 25.41 98.7185 26.7992 97.5073 27.93C97.2375 28.1815 96.7463 28.4915 96.7463 28.4915L98.4181 30.89ZM79.3262 32.5038C78.9237 32.8808 78.2626 32.9608 77.805 32.7446C77.082 32.0985 76.5826 31.2962 76.002 30.5777L66.2708 30.5569L65.1215 32.12C64.7578 32.6123 64.2971 32.9508 63.5876 32.8254C63.2194 32.7492 62.8691 32.4392 62.7468 32.1023C62.5583 31.6669 62.5784 31.2562 62.8266 30.8592L68.995 22.6738C69.5123 21.8992 70.0713 21.3446 71.0373 21.35C72.5555 21.37 72.6599 21.7531 73.7071 23.1015C75.1665 25.1346 78.1135 28.9492 79.6065 31.0992C79.795 31.5869 79.5744 32.1077 79.3262 32.5038ZM57.7009 28.8123H51.3737C50.448 28.6992 49.7376 28.0269 49.3717 27.2485C49.2465 26.9438 49.2398 26.5162 49.2047 26.1985L49.5319 26.2046H57.1799C57.5101 26.2046 57.8253 25.9023 57.9811 25.5223C58.1242 25.1746 58.1153 24.8931 57.9416 24.5608C57.7493 24.1908 57.402 23.9577 57.0606 23.9577H48.5302L48.4504 24.0385V31.6046C48.4504 32.3085 47.837 32.8277 47.1133 32.8138C46.479 32.8023 45.8872 32.2862 45.8872 31.6185V23.5154C45.8872 22.8462 46.1421 22.4515 46.6169 22C47.1148 21.5277 47.7699 21.3485 48.2499 21.3492L57.6614 21.3592C59.4748 21.3608 60.9453 23.2285 60.8962 25.1838C60.8485 27.07 59.2065 28.8115 57.7009 28.8115V28.8123ZM40.0407 31.6208C39.0696 32.8208 37.7406 32.8362 36.2768 32.8346L27.7463 32.8254C26.8214 32.8238 26.0417 31.9108 25.9106 30.9723L25.9046 30.4977L37.1652 30.5092C37.5424 30.5092 38.0253 29.9877 38.038 29.4546C38.0529 28.8785 37.6557 28.3315 37.0795 28.3315H28.968C27.5652 28.3315 26.1349 27.0115 25.9046 25.3623C25.7183 24.0285 26.1558 23.0185 27.1888 22.1569C27.9692 21.5069 28.5625 21.3208 29.6544 21.3192L37.157 21.31C38.316 21.2877 39.5779 21.4885 40.1212 22.5931C40.286 22.9308 40.3724 23.2977 40.3612 23.7469L29.7632 23.7508C29.4398 23.7508 28.9337 23.9354 28.7481 24.3585C28.5163 24.8862 28.7831 25.49 29.3078 25.7231C29.5173 25.8162 29.8884 25.8031 29.8884 25.8031H37.5983C38.9771 25.9008 40.207 26.7892 40.681 28.2508C41.0947 29.5231 40.883 30.5815 40.0407 31.6208ZM5 17V37H101.149L101.169 17H5Z" fill="white"/>
<path fill-rule="evenodd" clip-rule="evenodd" d="M71.5669 24.4261C71.4879 24.42 71.4052 24.5354 71.4052 24.5354L68.3418 27.9608H74.4998C73.6278 26.7808 72.6215 25.6854 71.7063 24.5492C71.7063 24.5492 71.6429 24.4323 71.5669 24.4261Z" fill="white"/>
</svg>
