<svg width="88" height="54" viewBox="0 0 88 54" fill="none" xmlns="http://www.w3.org/2000/svg">
<path d="M77.763 12.745V12.2093H78.1243C78.3934 12.2093 78.5318 12.3011 78.5318 12.4772C78.5318 12.6149 78.4395 12.745 78.1705 12.745H77.763ZM79.0699 13.8548L78.8392 13.4645C78.6394 13.1201 78.5856 13.0665 78.4164 13.0053V12.9976C78.747 12.9593 78.9469 12.745 78.9469 12.4542C78.9469 12.1404 78.747 11.9108 78.3319 11.9108H77.3556V13.8548H77.763V13.0588H77.8399C78.0167 13.0588 78.0782 13.0818 78.1628 13.1583C78.2396 13.2349 78.3626 13.4032 78.4318 13.541L78.5933 13.8625H79.0775L79.0699 13.8548ZM78.109 11.3674C78.9469 11.3674 79.631 12.0409 79.631 12.8751C79.631 13.7094 78.9469 14.3906 78.109 14.3906C77.2711 14.3906 76.5946 13.7094 76.5946 12.8751C76.5946 12.0409 77.2711 11.3674 78.109 11.3674ZM78.109 11C77.0635 11 76.2256 11.8419 76.2256 12.8828C76.2256 13.9237 77.0712 14.7579 78.109 14.7579C78.109 14.7579 78.109 14.7579 78.1166 14.7579C79.1544 14.7579 80 13.916 80 12.8828C80 12.8828 80 12.8828 80 12.8751C80 11.8419 79.1544 11 78.1166 11C78.1166 11 78.1167 11 78.109 11ZM67.8312 13.0129C63.757 13.0129 60.9435 14.6202 59.0448 16.8627C58.7219 16.1892 58.4759 15.8983 58.1377 15.508C56.5772 13.7553 54.0712 12.9364 50.7119 12.9364C47.4217 12.9364 44.6851 13.9543 42.7864 15.5692C41.7947 13.9696 39.4424 12.9134 36.6059 12.9134C32.893 12.9134 28.8572 13.4339 26.4511 17.2836C26.3973 15.8983 26.2666 15.1636 25.4825 14.3446C24.5293 13.342 22.9919 13.0818 21.4929 13.0818C18.7639 13.0818 16.7115 14.2681 15.2278 16.6866C13.0831 20.1002 7.88658 31.3204 8.00189 36.7545C8.07876 40.2675 10.4464 42.7932 14.682 42.8927C17.9875 42.9692 20.5858 42.0891 22.2385 40.4282C23.7222 42.0278 25.9822 42.9692 28.6881 42.9692C31.7015 42.9692 34.7302 42.0661 36.5213 40.0991C38.028 41.9436 40.4034 43.0151 43.4552 42.9998C47.4448 42.9769 50.9502 41.0941 53.2333 38.2087C54.4863 41.6145 57.6687 42.9616 61.151 42.9616C68.769 42.9616 72.1206 37.7418 74.9111 29.4912C75.5414 27.6313 76.3793 24.5316 76.5177 21.9217C76.7483 17.5821 74.9034 12.9976 67.8543 12.9976L67.8312 13.0129ZM17.1266 33.7543C21.0701 33.0731 22.0617 34.489 21.9387 35.8054C21.5698 39.7394 17.9414 40.6196 14.7897 40.543C12.5066 40.4894 10.4541 39.4486 10.3926 36.8081C10.2927 32.1929 15.0203 21.5084 17.2496 17.9725C18.2796 16.2887 19.5327 15.4621 21.5313 15.4621C23.4224 15.4621 23.8913 16.4264 23.8682 17.5898C23.7914 20.6818 18.7716 30.0805 17.1266 33.7543ZM29.9642 30.1264C29.7028 30.8306 29.2108 32.3001 28.8111 33.8614C30.1025 33.5399 31.0788 33.318 32.7392 33.3563C34.6303 33.4022 35.8449 34.1829 35.8449 35.7442C35.8449 39.5251 31.6476 40.6349 28.7342 40.6349C25.5363 40.6349 22.7305 38.821 22.7305 35.3386C22.7305 31.2592 24.9521 25.0674 27.0353 20.9497C29.5952 15.8907 32.2088 15.2172 36.7212 15.2172C38.7045 15.2172 40.9799 16.0591 40.9799 17.9189C40.9799 20.4982 38.7814 21.4855 36.6059 21.6079C35.6757 21.6615 34.2459 21.7151 33.3926 21.6539C33.3926 21.6539 32.67 22.756 31.9013 24.7077C35.9294 24.1413 37.6437 25.0521 36.9595 27.3788C36.037 30.5168 33.3081 30.7234 29.9642 30.1264ZM49.7894 20.368C48.6978 20.368 47.9829 21.0569 47.4525 21.7993C46.284 23.4295 43.755 29.981 43.3552 32.6674C43.0862 34.512 43.8856 34.887 44.7543 34.887C46.1534 34.887 47.7292 33.4098 48.2596 30.976C48.2596 30.976 45.5922 30.9148 46.3302 28.5574C47.0451 26.2767 48.398 25.7792 50.6427 25.6873C55.0705 25.5036 54.6323 28.7641 54.2787 30.4938C53.1256 36.1269 49.0975 40.6502 43.4013 40.6502C39.5039 40.6502 37.0825 38.4995 37.0825 34.5426C37.0825 31.7184 38.4892 27.2946 39.6039 24.7C41.9792 19.1817 44.4622 15.3243 50.8041 15.3243C54.6093 15.3243 57.6073 16.6866 57.1691 20.2303C56.8462 22.8325 55.5394 24.3632 53.1641 24.5469C52.503 24.6005 49.7817 24.5316 50.6811 21.9677C50.9963 21.0722 51.127 20.368 49.7894 20.368ZM73.7273 25.0215C73.0585 28.3431 71.5518 32.2694 69.9144 35.2008C67.247 39.9767 64.003 40.6502 61.1741 40.6119C58.3452 40.5813 55.155 39.5404 55.132 35.1931C55.1166 32.0704 56.4696 27.6696 57.6149 24.7765C59.6136 19.5415 61.6584 15.2707 68.1233 15.3473C75.6644 15.4391 74.3192 22.1131 73.7273 25.0138V25.0215ZM67.3315 20.4752C66.6858 20.4675 66.117 20.59 65.6096 21.3707C64.4719 22.8402 61.1357 31.9097 61.1972 33.716C61.2202 34.3665 61.5815 34.9329 62.381 34.9329C63.3035 34.9329 63.8185 34.2977 64.272 33.5323C65.3175 31.7643 68.2694 23.751 68.3539 21.7457C68.377 21.164 68.2771 20.4829 67.3315 20.4675V20.4752Z" fill="white"/>
</svg>
