<svg width="180" height="54" viewBox="0 0 180 54" fill="none" xmlns="http://www.w3.org/2000/svg">
<path fill-rule="evenodd" clip-rule="evenodd" d="M113.866 28.6027C115.56 28.518 117.794 28.7721 116.111 30.6674L113.834 30.7204L113.866 28.6027ZM113.834 22.7685C115.221 22.705 116.216 22.705 115.74 24.1874C115.041 24.7062 114.914 24.6003 113.876 24.558L113.834 22.7685ZM120.335 26.125C120.971 25.5533 121.436 25.3733 121.86 24.4838C122.231 23.7003 122.347 22.7579 122.188 21.8262C121.924 20.2909 120.716 18.8297 119.393 18.3532C117.985 17.8449 109.376 18.0038 107.301 18.1097L107.333 35.4957C110.435 35.6545 118.408 35.9934 120.547 34.8075C123.956 32.9227 124.179 27.4062 120.335 26.125Z" fill="white"/>
<path fill-rule="evenodd" clip-rule="evenodd" d="M48.3767 23.2874L50.3355 23.5839C50.7803 24.0922 50.7908 23.9969 50.7908 24.918C50.4626 25.3204 50.5685 25.2039 50.1873 25.6063L48.3661 25.7016L48.3767 23.2874ZM54.9626 29.4499C58.2344 27.7875 58.0544 21.4662 54.9097 19.4756C51.8179 17.5168 45.9943 18.1203 41.9072 18.1203V35.5699L48.4402 35.5064V30.9428C49.3191 31.2393 49.1391 31.3452 49.9226 33.1769C50.2614 33.9605 50.632 34.6699 50.9814 35.5699L57.5991 35.4852C57.398 33.844 55.4074 31.451 54.9732 29.471L54.9626 29.4499Z" fill="white"/>
<path fill-rule="evenodd" clip-rule="evenodd" d="M147.865 25.1191L148.691 29.0898L146.838 29.0792L147.865 25.1191ZM145.25 33.5263L150.332 33.5474L151.02 35.5275H157.341C157.341 33.9604 155.023 28.4756 154.387 26.6438C153.54 24.1768 151.867 20.4497 151.348 18.0779H144.275C143.354 21.3285 138.261 33.7169 138.229 35.5169L144.593 35.5275L145.239 33.5263H145.25Z" fill="white"/>
<path fill-rule="evenodd" clip-rule="evenodd" d="M64.8841 28.5392C65.7417 28.0627 70.6547 28.2957 71.6606 28.2957V25.3309C70.5594 25.3309 65.8053 25.6062 64.9158 25.0874L64.9582 23.5627H71.8089V18.0885H58.3511L58.3828 35.5275H71.8089V30.0851H65.0323L64.8841 28.5074V28.5392Z" fill="white"/>
<path fill-rule="evenodd" clip-rule="evenodd" d="M130.447 28.4863C131.283 27.9251 136.239 28.211 137.255 28.211V25.3098C135.709 25.3098 131.559 25.7122 130.521 25.098L130.574 23.5416H137.404V18.0674L123.978 18.0992L124.009 35.517L137.404 35.4534L137.34 30.0852L130.479 30.0746L130.436 28.4757L130.447 28.4863Z" fill="white"/>
<path fill-rule="evenodd" clip-rule="evenodd" d="M85.9973 30.2333L79.0937 30.2121L79.009 28.4227L86.0291 28.3062L86.0185 25.405L78.9349 25.3203L79.0408 23.5414C80.502 23.1497 84.2714 23.3826 85.9867 23.3826L86.0079 18.1096H72.5713L72.5819 35.5486H85.9126L85.9867 30.2333H85.9973Z" fill="white"/>
<path fill-rule="evenodd" clip-rule="evenodd" d="M17.766 23.4039C18.1471 23.0015 18.9836 22.991 19.7671 23.0121C20.286 23.5627 20.0319 23.4568 20.6777 23.7427L26.6602 23.6474C26.1307 20.4815 24.7013 19.0839 21.6095 18.4062C12.8847 16.4685 8.54351 23.3404 12.5247 27.0251C14.5683 28.9204 19.3013 28.2851 20.2648 29.524C19.7142 31.9275 17.4907 29.6722 17.0459 29.4922H11C11.9 37.8464 22.8166 35.8876 25.0507 33.9075C27.8566 31.4087 27.126 27.7134 25.4213 26.4745C21.6307 23.711 17.8083 26.1886 17.766 23.4145V23.4039Z" fill="white"/>
<path fill-rule="evenodd" clip-rule="evenodd" d="M154.567 23.5521H158.114L158.157 35.5169L164.647 35.5275L164.743 23.5732L168.226 23.5521L168.237 18.0779H154.557L154.567 23.5521Z" fill="white"/>
<path fill-rule="evenodd" clip-rule="evenodd" d="M86.8234 23.5203L90.3705 23.5838V35.5275L96.8718 35.5592L96.9671 23.5732L100.472 23.5626L100.461 18.1414L86.8022 18.1202L86.8234 23.5203Z" fill="white"/>
<path fill-rule="evenodd" clip-rule="evenodd" d="M37.545 35.4957C37.545 33.2721 37.2697 25.1297 37.7144 23.5838H41.1132V18.1096H27.4331L27.5708 23.5732L31.012 23.6791V35.5698L37.545 35.5063V35.4957Z" fill="white"/>
</svg>
