<?xml version="1.0" encoding="utf-8"?><svg width="33" height="32" fill="none" xmlns="http://www.w3.org/2000/svg" viewBox="0 0 33 32"><path fill="#1F5DEF" d="M2 5.619h3.952v3.952H2zM17.81 21.428h3.952v3.952H17.81zM20.944 2.006l2.794 2.795-2.794 2.794-2.795-2.794zM4.794 17.476L7.59 20.27l-2.795 2.795L2 20.27zM5.952 1.667h3.952v3.952H5.952zM21.762 17.476h3.952v3.952h-3.952z"/><path fill="#1F5DEF" d="M26.532 2.006L29.326 4.8l-2.794 2.795L23.737 4.8zM10.383 17.476l2.795 2.794-2.795 2.795L7.59 20.27zM9.905 5.619h3.952v3.952H9.905zM25.714 21.428h3.952v3.952h-3.952zM26.532 7.595l2.795 2.794-2.795 2.795-2.794-2.795zM10.383 23.066l2.794 2.794-2.794 2.795-2.795-2.795zM5.952 9.572h3.952v3.952H5.952zM21.762 25.381h3.952v3.952h-3.952z"/><path fill="#1F5DEF" d="M20.944 7.595l2.795 2.795-2.795 2.794-2.794-2.794zM4.794 23.066l2.794 2.794-2.794 2.795-2.795-2.795z"/></svg>