<?xml version="1.0" encoding="utf-8"?><svg width="40" height="41" fill="none" xmlns="http://www.w3.org/2000/svg" viewBox="0 0 40 41"><path d="M23.333 3.833h-6.667v3.334h-3.333V10.5H10v3.333H6.666v3.334H3.333v20h33.333v-20h-3.333v-3.334H30V10.5h-3.334V7.167h-3.333V3.833zm0 3.334V10.5h3.333v3.333H30V20.5h-3.334v3.333h-3.333v3.334h-6.667v-3.334h-3.333V20.5H10v-6.667h3.333V10.5h3.333V7.167h6.667zM10 20.5v3.333h3.333v3.334h3.333V30.5h6.667v-3.333h3.333v-3.334H30V20.5h3.333v13.333H6.666V20.5H10z" fill="#0BF"/></svg>