<?xml version="1.0" encoding="utf-8"?><svg width="100" height="39" fill="none" xmlns="http://www.w3.org/2000/svg" viewBox="0 0 100 39"><path d="M46.782 13.155c2.074 0 3.874.381 5.4 1.144 1.55.74 2.73 1.8 3.54 3.183.834 1.383 1.252 3.004 1.252 4.863v.358c0 1.86-.418 3.492-1.252 4.9-.834 1.382-2.014 2.455-3.54 3.217-1.526.74-3.326 1.11-5.4 1.11-2.527 0-4.613-.657-6.258-1.968L40.38 31.5h-4.828V6.61h5.185v8.369c1.67-1.216 3.684-1.824 6.044-1.824zm4.828 9.19c0-1.406-.49-2.503-1.467-3.29-.977-.786-2.348-1.18-4.112-1.18-1.12 0-2.158.179-3.111.537-.93.357-1.657.846-2.182 1.466v5.292c.549.62 1.288 1.12 2.218 1.502.93.358 1.954.537 3.075.537 1.764 0 3.135-.394 4.112-1.18.978-.787 1.467-1.896 1.467-3.326v-.358zM32.454 13.584v4.577H28.45c-2.241 0-3.815.56-4.72 1.681V31.5h-5.15V13.584h4.828l.143 1.645c1.502-1.097 3.361-1.645 5.578-1.645h3.326zM13.4 8.041V31.5H8V8.041h5.4zM80.834 31.93c-3.361 0-5.984-.525-7.867-1.574-1.86-1.073-2.79-2.587-2.79-4.542v-.179h4.971v.18c0 .667.453 1.155 1.36 1.465.905.286 2.371.43 4.398.43 3.337 0 5.006-.477 5.006-1.431V26.1c0-.358-.214-.632-.644-.822-.429-.191-1.203-.334-2.324-.43l-4.613-.464c-2.646-.263-4.577-.81-5.793-1.645-1.216-.835-1.824-2.015-1.824-3.54v-.358c0-1.788.882-3.183 2.646-4.184 1.788-1.002 4.268-1.502 7.438-1.502 3.29 0 5.817.524 7.582 1.573 1.764 1.05 2.646 2.563 2.646 4.542v.214h-4.97v-.214c0-.668-.43-1.145-1.288-1.43-.835-.31-2.205-.465-4.113-.465-1.55 0-2.741.107-3.576.321-.834.215-1.251.525-1.251.93v.215c0 .357.19.631.572.822.405.19 1.06.334 1.967.43l4.684.464c2.814.286 4.852.847 6.115 1.681 1.288.834 1.931 2.038 1.931 3.612v.357c0 1.812-.905 3.219-2.717 4.22-1.812 1.002-4.327 1.502-7.546 1.502z" fill="#fff"/><path d="M60.354 6.5h5v5h-5v-5z" fill="#0BF"/><path d="M65.354 13.5v18h-5v-18h5z" fill="#fff"/></svg>