<?xml version="1.0" encoding="utf-8"?><svg width="318" height="200" fill="none" xmlns="http://www.w3.org/2000/svg" viewBox="0 0 318 200"><path d="M127.5 62.51v74.979h63V62.51h-63zm61.373 73.353h-59.894V63.989h59.894v71.874zm-24.549-65.219c0 .887.592 1.479 1.627 1.479h.443V69.46h-.443c-1.035 0-1.627.591-1.627 1.183zm-12.866-1.33c-1.627 0-2.662 1.034-2.662 2.809 0 1.775 1.035 2.81 2.662 2.81 1.479 0 2.662-1.035 2.662-2.81 0-1.775-1.183-2.81-2.662-2.81zm28.986 56.492c0 .592.591 1.183 1.331 1.183h.739v-2.218h-.739c-.74 0-1.331.444-1.331 1.035zm6.95-60.19h-56.788V78.63h56.788V65.616zm-48.802 10.5l-3.106-3.401v3.4h-1.923v-8.133h1.923v3.401l2.958-3.4h2.218l-3.549 3.992 3.697 4.14h-2.218zm16.267-1.035c-.887.74-2.07 1.183-3.401 1.183s-2.366-.296-3.254-1.035c-.887-.74-1.479-1.775-1.479-3.106 0-1.183.592-2.218 1.331-2.958.888-.74 2.071-1.33 3.402-1.33 1.479 0 2.662.59 3.549 1.33.74.74 1.035 1.775 1.035 2.958 0 1.183-.443 2.218-1.183 2.958zm13.754-1.775h-.296v2.81h-1.923v-2.81h-.295c-2.662 0-3.55-1.627-3.55-2.662 0-1.775 1.331-2.662 3.254-2.662h3.106c1.922 0 3.253.887 3.253 2.662 0 1.035-.887 2.662-3.549 2.662zm15.084-2.07v1.478h-3.253v2.07h3.697v1.332h-5.472v-8.134h5.472l-.444 1.479h-3.253v1.922h3.253v-.147zm-35.049 54.274l-1.035 2.367h1.922s-.887-2.219-.887-2.367zm19.965-56.049h-.296v2.662h.444c1.035 0 1.479-.592 1.479-1.331 0-.74-.444-1.331-1.627-1.331zm18.781 50.725h-21.443v-1.183h21.443v-39.19h-56.788v39.19h27.211l2.366 1.183h-29.577v14.05h56.788v-14.05zm-.591-1.626h-20.852v-.148l.296-.296h3.993s.147 0 .147-.148l-.147-.148h-3.846l.148-.148h20.261v.888zm-14.493-12.571c0 .296-.148.444-.148.592h-6.211v-.592h6.359zm-6.359-.148v-.443h6.655c-.148.148-.148.295-.296.443h-6.359zm6.063.888c0 .148-.148.295-.148.591h-5.915v-.591h6.063zm-.296.739c0 .148-.147.296-.147.444h-5.62v-.444h5.767zm-.295.592c0 .148-.148.443-.148.591h-5.324v-.591h5.472zm-.296.739c-.148.148-.148.296-.296.444h-4.88v-.444h5.176zm-.296.592c-.148.295-.148.443-.296.591h-4.584v-.591h4.88zm0 1.922v1.627h-.296v-1.627h.296zm-.296-1.183c-.148.148-.148.444-.295.592h-4.289v-.592h4.584zm-.443.74c0 .147-.148.295-.296.443h-3.845v-.443h4.141zm-.296.591c-.148.148-.148.444-.296.592h-3.549v-.592h3.845zm-.444.739c0 .148-.148.296-.296.444h-3.105v-.444h3.401zm-.296.74c-.147.148-.295.296-.295.444h-2.81v-.444h3.105zm-.443.591c-.148.148-.148.444-.296.592h-2.366v-.592h2.662zm-.444.74c-.148.148-.148.296-.296.444h-1.922v-.444h2.218zm-.444.591c0 .148-.147.444-.295.592h-1.479v-.592h1.774zm-.443.74c-.148.148-.148.296-.296.591h-1.035v-.591h1.331zm-.444.739c-.148.148-.296.296-.296.444h-.591v-.444h.887zm19.965 1.036h-19.965c0-.148.148-.148.148-.296h4.88c.148 0 .148 0 .148-.148 0 0 0-.148-.148-.148h-4.732c.148 0 .148-.148.148-.296h19.521v.888zm0-1.036h-19.225c0-.148.147-.148.147-.295h5.768s.148 0 .148-.148l-.148-.148h-5.62c.148 0 .148-.148.148-.296h18.782v.887zm0-1.035h-18.634c.148-.148.148-.296.296-.296h6.655c.148 0 .148-.148.148-.148s0-.147-.148-.147h-6.507s.148-.148.148-.296h18.042v.887zm0-1.035h-17.894c0-.148.147-.296.147-.296h7.543l.148-.148c0-.148-.148-.148-.148-.148h-7.395c0-.148.148-.148.148-.295h17.451v.887zm-15.085-1.331v-1.923h.296v1.923h-.296zm1.036 0v-2.366h.295v2.366h-.295zm1.183 0v-2.81s.148-.148.295-.148v2.958h-.295zm1.035 0v-3.401c.148 0 .296-.148.296-.148v3.549h-.296zm1.183 0v-4.141c.148 0 .148 0 .296-.148v4.289h-.296zm1.183 0v-4.88l.148-.148v5.028h-.148zm1.035 0v-5.768l.296-.295v5.915h-.296v.148zm1.183 0v-6.803c0-.148.148-.296.148-.296v7.099h-.148zm1.036 0v-8.134l.295-.296v8.43h-.295zm1.183 0v-9.613c0-.148.148-.296.148-.296v9.909h-.148zm1.035 0v-11.387c.148-.148.148-.296.296-.444v11.831h-.296zm1.183 0V99.186c0-.148.148-.443.148-.591v14.345h-.148zm2.218-32.683h.296v32.683h-.296V80.257zm-1.183 0h.296v10.648h-.296V80.257zm0 15.38c.148-.444.296-.887.296-1.33v18.633h-.296V95.637zm0-4.14c-.295 8.872-6.063 16.563-14.049 18.781.148-.148.148-.444.296-.592 7.394-2.514 12.718-9.76 13.014-18.19h.739zm-1.035-11.24h.148v10.648h-.148V80.257zm-1.183 0h.296v10.648h-.296V80.257zm-1.035 0h.148v10.648h-.148V80.257zm-1.183 0h.295v10.648h-.295V80.257zm-1.036 0h.148v10.5h-.148v-10.5zm-1.183 0h.296v10.5h-.296v-10.5zm-1.035 0h.148v10.5h-.148v-10.5zm6.803 11.24v.739h-6.803v.295h6.803c-.739 7.691-5.768 14.346-12.718 16.86.591-1.036 1.035-2.219 1.479-3.402 4.288-1.774 7.098-5.62 8.133-11.091v-.296h-4.88c.148-1.035.296-2.07.296-2.958l7.69-.148zm-10.204 13.457v-1.627c0-.296.148-.591.295-.887v2.366c-.147 0-.295 0-.295.148zm1.035-.739v-4.733c.148-.296.296-.74.296-1.035v5.472c0 .148-.148.148-.296.296zm1.183-1.036v-7.542h.296v7.394c-.148 0-.148.148-.296.148zm1.183-1.183v-6.359h.148v6.063c0 .148-.148.148-.148.296zm1.035-1.627v-4.732h.296v4.289c-.148.148-.148.296-.296.443zm1.183-2.366v-2.366h.148v1.627c0 .296-.148.444-.148.74zm-3.401-17.746h.296v5.324h-.296v-5.324zm-1.183 0h.296v5.324h-.296v-5.324zm-1.035 0h.295v5.324h-.295v-5.324zm-1.183 0h.295v5.324h-.295v-5.324zm-1.036 0h.296v5.324h-.296v-5.324zm-1.183 0h.296v5.324h-.296v-5.324zm-1.035 0h.148v5.324h-.148v-5.324zm-1.183 0h.296v5.324h-.296v-5.324zm-1.035 0h.148v5.324h-.148v-5.324zm-1.183 0h.295v5.324h-.295v-5.324zm-1.036 0h.148v5.324h-.148v-5.324zm-1.183 0h.296v5.324h-.296v-5.324zm-1.183 0h.296v5.324h-.296v-5.324zm-1.035 0h.296v5.324h-.296v-5.324zm-1.775 1.33c0-.739.444-1.33.444-1.33h.887s-.591.74-.591 1.33c0 .74.443 1.332.443 2.071 0 .74-.443 1.331-.887 1.923h-.887c.591-.592 1.035-1.331 1.035-1.923 0-.74-.444-1.33-.444-2.07zm-1.774 0c0-.739.443-1.33.443-1.33h.888s-.592.74-.592 1.33c0 .74.444 1.332.444 2.071 0 .74-.444 1.331-.887 1.923h-.74c.444-.592.887-1.331.887-1.923 0-.74-.443-1.33-.443-2.07zm-1.775 0c0-.739.444-1.33.444-1.33h.887s-.591.74-.591 1.33c0 .74.443 1.332.443 2.071 0 .74-.443 1.331-.887 1.923h-.74c.592-.592.888-1.331.888-1.923 0-.74-.444-1.33-.444-2.07zm-1.775 0c0-.739.444-1.33.444-1.33h.887s-.591.74-.591 1.33c0 .74.444 1.332.444 2.071 0 .74-.444 1.331-.74 1.923h-.887c.591-.592.887-1.331.887-1.923 0-.74-.444-1.33-.444-2.07zm-1.331 2.071c0-.74-.443-1.33-.443-2.07 0-.74.443-1.331.443-1.331h.888s-.592.591-.592 1.33c0 .592.444 1.332.444 2.071 0 .74-.444 1.331-.74 1.923h-.887c.444-.592.887-1.331.887-1.923zm-1.626-3.401h.295v5.324h-.295v-5.324zm-1.036 0h.148v5.324h-.148v-5.324zm-1.183 0h.296v5.324h-.296v-5.324zm-1.183 0h.296v5.324h-.296v-5.324zm-1.035 0h.296v5.324h-.296v-5.324zm-1.183 0h.296v5.324h-.296v-5.324zm-1.035 0h.148v5.324h-.148v-5.324zm-1.183 0h.295v5.324h-.295v-5.324zm-1.036 0h.148v5.324h-.148v-5.324zm-1.183 0h.296v5.324h-.296v-5.324zm-1.035 0h.148v5.324h-.148v-5.324zm-1.183 0h.296v5.324h-.296v-5.324zm-1.035 0h.148v5.324h-.148v-5.324zm-1.183 0h.295v5.324h-.295v-5.324zm-1.183 0h.295v5.324h-.295v-5.324zm40.225 6.063v.444h-5.768v.148h5.768v.443h-40.373c0-.295-.148-.74-.148-1.035h40.521zm-41.261-6.063h.296v32.535h-.296V80.257zm-1.183 0h.296v32.535h-.296V80.257zm-1.035 0h.296v32.535h-.296V80.257zm-1.183 0h.296v32.535h-.296V80.257zm-.296 33.127h11.24c.148.295.443.591.591.887h-11.831v-.887zm4.733-.444V95.637a2.8 2.8 0 01.295 1.183v16.12h-.295zm1.183 0v-12.423c.148.296.148.592.295.74v11.535l-.295.148zm1.183 0v-8.873c0 .148.148.443.148.739v8.134h-.148zm1.035 0v-5.916c.148.148.148.296.296.592v5.324h-.296zm1.183 0v-3.401c0 .147.148.295.148.443v2.81h-.148v.148zm1.035 0v-1.183c.148.148.148.296.296.443v.74h-.296zm-10.352 1.479h11.979l.444.887h-12.423v-.887zm0 1.035h12.571c.295.296.443.592.591.887h-13.162v-.887zm0 1.035h13.31c.296.296.444.592.592.888h-13.902v-.888zm0 2.071v-.888h14.05c.295.296.443.592.739.888h-14.789zm15.233-.296c-.148-.148-.296-.444-.444-.592h.444v.592zm0-.74h-.592c0-.147-.148-.295-.296-.591h.888v.591zm0-.739h-1.036l-.443-.444h1.479v.444zm0-.592h-1.479c-.148-.295-.296-.443-.444-.591h1.923v.591zm0-.739h-1.923c-.148-.148-.296-.444-.444-.592h2.367v.592zm0-.739h-2.367l-.443-.444h2.81v.444zm0-.592h-2.81c-.148-.148-.296-.444-.296-.592h3.106v.592zm0-.739h-3.254c-.148-.148-.148-.296-.296-.444h3.55v.444zm11.239 5.028h-10.796V95.489h10.796v.296h-10.5v22.479h10.5s.148 0 .148.148h-.148zm-.148-21.296h-9.908c-.148 0-.148-.148-.148-.148s0-.148.148-.148h9.908c.148 0 .148.148.148.148s0 .148-.148.148zm.148 1.035s0 .148-.148.148h-9.465l-.148-.148c0-.148.148-.148.148-.148h9.465c.148 0 .148 0 .148.148zm-10.056 18.782H157.817c0 .148-.148.148-.148.148h-10.056c-.148 0-.148 0-.148-.148h.148zm10.056-1.035h-9.761c0-.148.148-.148.148-.148h9.613s.148 0 .148.148h-.148zm-15.38 15.232h-1.775v-4.289-.887c-.148.296-.444.592-.591.887l-1.479 2.219h-.888l-1.774-2.367c-.148-.147-.296-.443-.592-.739v5.176h-1.774v-7.838h1.626l2.366 2.958c.148.296.444.591.592.887.148-.296.296-.591.592-.887l2.07-2.958h1.627v7.838zm8.577 0l-.887-1.922h-2.81l-.887 1.922h-1.627l3.253-7.838h1.331l3.55 7.838h-1.923zm11.979 0h-1.775v-3.253h-3.992v3.253h-1.775v-7.838h1.775v3.254h3.992v-3.254h1.775v7.838zm1.775-9.465c-.444-.295-6.359-2.81-6.655-2.957v-23.81c.296 0 6.211-2.81 6.655-2.958v29.725zm-6.803-27.063H146.43v18.042h-3.698c0-.148-.147-.296-.295-.444h2.514v-.147h-2.514c-.148-.148-.296-.444-.296-.592h1.627c0-.148-.148-.148-.148-.148h-1.627c0-.148-.148-.296-.296-.443h.888v-.296h-.888c-3.253-6.064-5.62-14.05-5.915-22.775h.887c.148 3.697.592 7.542 1.627 11.387.296 1.183.591 2.367 1.035 3.55.739 2.07 1.479 4.288 2.514 6.211h.148c-.887-2.07-1.775-4.141-2.514-6.211-.444-1.183-.74-2.367-1.035-3.698-.888-3.697-1.479-7.542-1.627-11.239h39.338v.296h-5.768v.148h5.768c0 .148-.148.443-.148.591h-5.62c0 .148 0 .148.148.148h5.472v.444h-5.472c-.148 0-.148.148-.148.148s0 .148.148.148h5.472v.443h-5.472c-.148 0-.148 0-.148.148h5.62v.592h-5.62c0 .148.148.148.148.148h5.472c-.148.147-.148.295-.148.443h-5.472v.296h5.472v.444h-5.472v.148h5.472c-.148.147-.148.443-.148.591h-5.471v.148h5.471v.444h-5.471v.148h5.323v.591h-5.323v.148h5.323c0 .148-.147.296-.147.592h-5.324v.147h5.324c0 .148 0 .296-.148.444h-5.324c-.148 0-.148.148-.148.148H175.268v.591h-5.472v.148h5.324v.592h-5.62l.148.148h5.324v.444H169.5s-.148 0-.148.147H174.824c0 .148 0 .444-.148.592H169.204c0 .148 0 .148.148.148h5.324c0 .148 0 .296-.148.444h-5.472c-.147 0-.147.147-.147.147s0 .148.147.148h5.472c0 .148-.148.296-.148.444h-5.471c-.148 0-.148 0-.148.148h5.619c-.148.148-.148.443-.148.591h-5.767v.148h5.62c0 .148 0 .296-.148.444h-5.768l-.148.148.148.148h5.768c0 .148-.148.295-.148.443h-5.768c-.148 0-.148 0-.148.148H173.789c-.148.148-.148.444-.148.592h-6.063v.148h5.915c0 .148 0 .295-.148.443h-6.063l-.148.148H173.345c-.148.296-.148.444-.296.592h-6.211c-.148 0-.148 0-.148.148h6.359c0 .148-.147.443-.147.591h-6.655c0 .148.147.148.147.148h6.36c0 .148-.148.296-.148.444h-6.655V91.348h-.888l-.295.148-6.951 3.106zm7.838 26.915h-.739s0-.147.147-.147h.444V91.496c.148 0 .148.148.148.148v29.873zm.296-4.584h.443c-.147.148-.295.444-.443.591v-.591zm8.429 14.197h-1.774v-4.289c0-.295 0-.739.148-1.035h-.148c-.148.296-.444.592-.74 1.035l-3.697 4.289h-1.627v-7.838h1.775v5.176c.148-.296.444-.591.739-.887l3.55-4.289h1.922v7.838h-.148zm9.909 0h-1.775v-2.958h-.591c-.296 0-.888.888-2.219 2.958h-1.922c1.331-1.922 2.07-3.253 2.514-3.549-.74-.296-1.627-1.035-1.627-1.923 0-1.331.887-2.218 3.106-2.218h2.514v7.69z" fill="#fff"/></svg>