<?xml version="1.0" encoding="utf-8"?><svg width="318" height="200" fill="none" xmlns="http://www.w3.org/2000/svg" viewBox="0 0 318 200"><path d="M197.763 99.368l13.139-8.64c.483-.3.3-.956-.241-.956h-4.682c-.299 0-.541.058-.724.241l-12.541 8.457v-8.042a.663.663 0 00-.656-.656h-3.06c-.357 0-.657.3-.657.656v19.134c0 .357.3.657.657.657h3.06c.357 0 .656-.3.656-.657v-8.881l13.197 9.296c.184.116.483.242.724.242h4.74c.541 0 .724-.657.3-1.024l-13.921-9.837.009.01zM157.15 101.945h-4.615v4.682h-14.336v-4.682h-4.614v4.316c0 2.703 1.38 3.958 4.44 3.958h14.761c3.06 0 4.441-1.197 4.441-3.958l-.058-4.316h-.019zM152.719 89.772h-14.761c-3.06 0-4.441 1.197-4.441 3.958v4.257h4.615v-4.682h14.278v4.682h4.614V93.73c.116-2.703-1.255-3.958-4.315-3.958h.01zM125.9 99.909c1.68-.242 2.935-1.622 2.935-3.302V93.73c0-2.703-1.38-3.958-4.441-3.958h-17.579c-.357 0-.724.357-.724.724v18.893c0 .482.357.781.724.781h16.971c3.36 0 5.155-1.38 5.155-4.016v-3.002c.058-1.68-1.322-3.118-3.06-3.243h.019zm-15.417-6.662h12.174c1.197 0 1.795.541 1.795 1.738v1.564c0 1.14-.598 1.68-1.795 1.68h-12.174v-4.982zm14.037 11.759c0 1.139-.599 1.679-1.796 1.679h-12.241v-4.981h12.299c1.197 0 1.796.541 1.796 1.738v1.564h-.058zM184.383 109.205l-7.916-6.719h2.703c3.06 0 4.441-1.197 4.441-3.958V93.73c0-2.703-1.381-3.958-4.441-3.958h-16.614a.798.798 0 00-.782.782v19.018c0 .357.299.656.656.656h3.061a.663.663 0 00.656-.656v-7.134h4.315l8.698 7.433c.242.184.483.299.898.299h4.016c.541 0 .782-.598.299-.955l.01-.01zm-18.236-15.958h11.218c1.197 0 1.795.541 1.795 1.738v2.404c0 1.139-.598 1.68-1.795 1.68h-11.218v-5.822z" fill="#fff"/></svg>