<?xml version="1.0" encoding="utf-8"?><svg width="318" height="200" fill="none" xmlns="http://www.w3.org/2000/svg" viewBox="0 0 318 200"><path d="M104.09 80.009c2.711 0 3.59 1.966 4.335 3.932.27.817 7.388 20.206 7.595 20.808.071.134 0 .404-.27.538-.269.072-3.932 1.562-4.138 1.625-.206.072-.404 0-.539-.269-.071-.207-1.624-4.408-1.759-4.884-.476-.071-9.964-.071-10.512-.071-.206.475-1.696 4.677-1.76 4.883-.071.206-.268.341-.538.269-.206-.072-3.931-1.49-4.138-1.625-.207-.071-.27-.341-.27-.538.342-.682 7.326-19.794 7.658-20.745.745-1.966 1.625-3.932 4.336-3.932v.009zM91.612 114.65c-.206 0-.404.206-.404.404v4.542c0 .207.207.404.404.404h24.946c.207 0 .404-.206.404-.404v-4.542c0-.207-.206-.404-.404-.404H91.612zm12.478-28.34l-3.591 10.647h7.19l-3.59-10.646h-.009zm92.872 15.665c0 1.221-.682 1.966-1.894 1.966-.476 0-.88 0-1.49-.207v-3.662c.269-.072.817-.135 1.49-.135 1.221.135 1.894.745 1.894 2.038zm2.505-.207c0-2.235-1.284-3.797-4.067-3.797-.682 0-1.149.072-1.894.27v-3.259a14.867 14.867 0 012.101-.135c.817 0 1.831 0 2.783.135l.071-1.894c-1.014-.27-2.504-.341-3.662-.341-1.149 0-2.918.27-3.725.538v11.868c1.292.475 2.576.682 3.86.682 2.98.072 4.542-1.49 4.542-4.067h-.009zm-28.681-.61c0 1.625-.682 2.711-1.759 2.711-.476 0-.682 0-1.221-.206v-4.947c.539-.269.88-.269 1.356-.269 1.086 0 1.624.88 1.624 2.711zm-8.339.072c0-1.831.539-2.783 1.625-2.783.475 0 .745 0 1.355.27v4.946c-.538.206-.745.206-1.221.206-1.22 0-1.759-1.014-1.759-2.648v.009zm5.359 7.388v-3.259c.269.207.88.476 1.894.476 2.038 0 3.528-1.625 3.528-4.677 0-3.258-1.49-4.677-3.86-4.677-.61 0-1.014.072-1.49.27v-3.86h-2.37v3.86c-.476-.27-.88-.27-1.49-.27-2.442 0-3.86 1.49-3.86 4.749 0 3.052 1.355 4.677 3.528 4.677 1.014 0 1.625-.27 1.894-.476v3.258l2.235-.071h-.009zm-17.962-2.918v-8.68c-1.284-.404-2.307-.539-3.591-.539-1.293 0-2.307.207-3.591.539v4.47c0 1.221 0 1.562-.134 1.966-.135.341-.27.745-.817 1.086l.61 1.356c1.894-.539 2.648-1.356 2.648-4.004v-3.25c.611-.071.745-.134 1.293-.134.539 0 .61 0 1.221.135v7.046h2.37l-.009.009zm29.291-1.894c-.539.207-.88.207-1.284.207-.817 0-1.356-.341-1.356-1.221 0-.88.611-1.221 1.76-1.221.269 0 .538 0 .682.072v.682c.072.745.072 1.149.207 1.49l-.009-.009zm2.98 1.015c-.611-.952-.817-1.491-.817-2.711v-2.442c0-1.356-.135-1.831-.539-2.235-.475-.683-1.283-.952-2.782-.952-1.087 0-2.101.135-3.052.341l.341 1.76c.682-.072 1.355-.207 1.894-.207 1.562 0 1.759.27 1.759 1.428v.475a5.877 5.877 0 00-1.221-.134c-2.37 0-3.59 1.149-3.59 3.052 0 1.759 1.355 2.783 2.98 2.783.61 0 1.221-.135 1.759-.27.27-.134.404-.206.817-.476.27.342.682.683.88.746l1.562-1.149.009-.009zm23.249-1.015c-.538.207-.879.207-1.292.207-.817 0-1.356-.341-1.356-1.221 0-.88.611-1.221 1.76-1.221.269 0 .538 0 .682.072v.682c.072.745.072 1.149.206 1.49v-.009zm2.981 1.015c-.611-.952-.817-1.491-.817-2.711v-2.442c0-1.356-.135-1.831-.476-2.235-.476-.683-1.284-.952-2.783-.952-1.086 0-2.1.135-3.052.341l.341 1.76c.683-.072 1.356-.207 1.894-.207 1.562 0 1.76.27 1.76 1.428v.475a5.877 5.877 0 00-1.221-.134c-2.37 0-3.591 1.149-3.591 3.052 0 1.759 1.356 2.783 2.981 2.783.61 0 1.22-.135 1.759-.27.269-.134.404-.206.817-.476.269.342.745.683.88.746l1.49-1.149.018-.009zm-51.724-2.236c0 .88-.269 1.49-1.427 1.49-.404 0-.539 0-1.015-.134v-2.648c.611-.135.683-.135 1.015-.135 1.014.072 1.427.539 1.427 1.427zm-4.883-5.97v8.609c1.086.476 2.37.683 3.456.683 2.504 0 3.86-1.284 3.86-3.456 0-1.894-1.221-3.115-3.393-3.115-.539 0-.88.072-1.491.206v-2.98l-2.441.072.009-.018zm65.287 9.085v-9.012h-2.37v3.393h-2.711v-3.393h-2.369v9.012h2.369v-3.662h2.711v3.662h2.37zm9.767 0s-1.284-2.783-1.625-3.393c-.341-.682-.682-1.221-1.427-1.355.475-.072.879-.404 1.283-1.293.404-.88.539-1.086.745-1.284.27-.206.539-.134.539-.134l.135-1.625c-.341 0-.745-.072-1.086 0-.611 0-.952.206-1.284.538-.269.27-.404.61-.611 1.015-.206.476-.404.817-.61 1.284-.269.475-.341.682-.951.682h-.404v-3.394h-2.37v9.013h2.37v-3.662h.341c.682 0 .817.206 1.149.879.404.817 1.221 2.783 1.221 2.783l2.576-.072.009.018zm-88.537 0h2.783l-4.139-12.612a4.986 4.986 0 00-1.562-.27c-.61 0-.817.073-1.355.27l-4.408 12.612h2.648s.342-1.086.817-2.441h4.543c.341 1.355.682 2.441.682 2.441h-.009zm-4.614-4.614s.745-2.504.879-2.917c.27-1.015.746-2.648.746-2.648h.071s.404 1.696.683 2.648c.134.34.816 2.917.816 2.917h-3.195zm52.54-1.427c-.817 0-1.49.682-1.49 1.49 0 .817.682 1.49 1.49 1.49.817 0 1.49-.682 1.49-1.49 0-.817-.682-1.49-1.49-1.49z" fill="#fff"/></svg>