<?xml version="1.0" encoding="utf-8"?><svg width="318" height="200" fill="none" xmlns="http://www.w3.org/2000/svg" viewBox="0 0 318 200"><path fill-rule="evenodd" clip-rule="evenodd" d="M186.452 102.004c1.918-.096 4.447.192 2.541 2.338l-2.577.06.036-2.398zm-.036-6.605c1.57-.072 2.697-.072 2.157 1.606-.791.588-.935.468-2.109.42l-.048-2.026zm7.36 3.8c.719-.647 1.247-.851 1.726-1.858.42-.887.552-1.954.372-3.01-.3-1.737-1.666-3.392-3.165-3.931-1.594-.576-11.34-.396-13.69-.276l.036 19.684c3.512.18 12.539.564 14.961-.779 3.86-2.134 4.112-8.379-.24-9.83zM112.307 95.987l2.217.335c.504.576.516.468.516 1.51-.372.456-.252.324-.684.78l-2.061.108.012-2.733zm7.456 6.977c3.704-1.883 3.501-9.04-.06-11.293-3.5-2.218-10.094-1.535-14.721-1.535v19.757l7.396-.072v-5.167c.995.335.792.455 1.679 2.529.383.887.803 1.691 1.199 2.71l7.492-.096c-.228-1.859-2.481-4.568-2.973-6.81l-.012-.023zM224.946 98.06l.935 4.496-2.098-.012 1.163-4.484zm-2.961 9.519l5.754.024.78 2.241h7.156c0-1.774-2.625-7.983-3.344-10.057-.959-2.794-2.853-7.013-3.441-9.699h-8.008c-1.043 3.68-6.809 17.707-6.845 19.744l7.205.012.731-2.265h.012zM130.996 101.932c.971-.539 6.533-.276 7.672-.276V98.3c-1.247 0-6.629.312-7.636-.276l.048-1.726h7.756V90.1h-15.237l.036 19.744h15.201v-6.162h-7.673l-.167-1.786v.036z" fill="#fff"/><path fill-rule="evenodd" clip-rule="evenodd" d="M205.225 101.872c.947-.635 6.557-.311 7.708-.311v-3.285c-1.75 0-6.449.456-7.624-.24l.06-1.762h7.732v-6.198l-15.201.036.036 19.72 15.165-.072-.072-6.078-7.768-.012-.048-1.81.012.012zM154.9 103.851l-7.816-.024-.096-2.026 7.948-.132-.012-3.285-8.02-.096.12-2.014c1.654-.443 5.922-.18 7.864-.18l.024-5.97h-15.213l.012 19.745h15.093l.084-6.018h.012zM77.65 96.118c.431-.455 1.378-.467 2.265-.443.588.623.3.503 1.031.827l6.773-.108c-.599-3.584-2.217-5.167-5.718-5.934-9.878-2.194-14.793 5.586-10.285 9.758 2.313 2.146 7.672 1.427 8.763 2.829-.624 2.722-3.141.168-3.645-.036H69.99c1.02 9.459 13.379 7.241 15.908 4.999 3.177-2.829 2.35-7.013.42-8.415-4.292-3.13-8.62-.324-8.667-3.465v-.012zM232.534 96.286h4.016l.048 13.546 7.349.012.108-13.534 3.944-.024.012-6.198h-15.489l.012 6.198zM155.835 96.25l4.016.072v13.522l7.361.036.107-13.57 3.968-.012-.012-6.138-15.464-.024.024 6.114zM100.043 109.809c0-2.518-.312-11.736.192-13.487h3.848v-6.198H88.594l.156 6.186 3.896.12v13.463l7.397-.072v-.012z" fill="#fff"/></svg>