<?xml version="1.0" encoding="utf-8"?><svg width="318" height="200" fill="none" xmlns="http://www.w3.org/2000/svg" viewBox="0 0 318 200"><g clip-path="url(#nclip0_269_29133)" fill-rule="evenodd" clip-rule="evenodd" fill="#fff"><path d="M237.268 107.589c-1.338 1.206-2.781 2.475-4.639 2.078a2.628 2.628 0 01-1.278-.716 2.758 2.758 0 01-.72-1.303c-.218-.887-.163-1.738-.054-2.655l7.543-.015-.204-.273c-3.807-4.766-6.829-10.145-8.849-15.811-2.172 5.738-5.22 11.407-8.849 16.115l7.393-.016c-.044 1.049.186 2.331-.27 3.231-.46.989-1.539 1.479-2.536 1.5-2.982-.295-4.964-3.079-6.098-5.712-1.32-3.237-.834-7.68 1.24-10.445 2.888-4.07 7.985-5.714 12.736-4.154 2.896.965 5.473 3.359 6.744 6.405 1.507 3.775.617 8.822-2.159 11.771zm4.264-13.963c-1.111-2.067-2.744-4.013-4.588-5.253-4.142-2.914-10.292-3.144-14.622-.691-4.437 2.42-7.498 7.483-7.177 12.982.273 5.894 4.318 11.029 9.551 12.638 5.556 1.868 11.839-.123 15.432-4.674 3.097-4.015 3.881-10.333 1.404-15.002zM205.785 105.446c.214.307.283.916.084 1.444-.185.489-.431.778-.91.983-.653.283-1.515.021-1.793-.323 0 0-2.239-2.73-3.477-4.283-.219-.229-.33-.439-.561-.673l-5.968.029c-1.48.007-3.227-1.766-3.227-3.178v-.544l11.113-.014c.415 0 .882-.39 1.109-.9.206-.459.203-.83 0-1.292-.241-.55-.79-.942-1.221-.94l-12.086.033-.036.122V106.7c0 .719-.99 1.643-1.959 1.551-.896-.086-1.63-.998-1.629-1.635l.013-11.437c.001-1.191.348-1.656 1.099-2.311.731-.639 1.393-.78 2.363-.779l13.12.014c1.873.002 3.626 1.424 4.328 3.473.755 2.197.059 4.142-1.637 5.725-.377.352-1.065.786-1.065.786l2.34 3.358zm-26.728 2.259c-.564.528-1.489.64-2.13.337-1.012-.904-1.711-2.027-2.524-3.033l-13.624-.029-1.609 2.188c-.509.689-1.154 1.163-2.147.988-.516-.107-1.006-.541-1.177-1.013-.264-.609-.236-1.184.111-1.74l8.636-11.46c.724-1.084 1.507-1.86 2.859-1.853 2.126.028 2.272.564 3.738 2.452 2.043 2.846 6.169 8.187 8.259 11.197.264.683-.045 1.412-.392 1.966zm-30.276-5.168h-8.858c-1.296-.158-2.29-1.099-2.803-2.189-.175-.427-.184-1.025-.233-1.47l.458.008h10.707c.462 0 .903-.423 1.122-.955.2-.486.187-.88-.056-1.346-.269-.518-.755-.844-1.233-.844h-11.943l-.111.113v10.592c0 .986-.859 1.713-1.872 1.693-.888-.016-1.717-.738-1.717-1.673V95.122c0-.937.357-1.49 1.022-2.122a3.424 3.424 0 012.286-.911l13.176.014c2.539.002 4.597 2.617 4.529 5.354-.067 2.641-2.366 5.079-4.474 5.079v.001zm-24.724 3.932c-1.36 1.68-3.22 1.702-5.27 1.699l-11.942-.012c-1.295-.003-2.387-1.281-2.57-2.595l-.009-.664 15.765.016c.528 0 1.204-.73 1.222-1.477.021-.806-.535-1.572-1.342-1.572h-11.356c-1.964 0-3.966-1.848-4.289-4.157-.26-1.867.352-3.281 1.798-4.487 1.093-.91 1.923-1.17 3.452-1.173l10.504-.013c1.622-.031 3.389.25 4.15 1.796.23.473.351.987.336 1.616l-14.837.005c-.453 0-1.162.259-1.422.85-.324.74.049 1.585.784 1.911.293.13.813.112.813.112h10.794c1.93.137 3.652 1.38 4.315 3.427.58 1.781.283 3.263-.896 4.718zM75 86v28h134.609l.028-28H75z"/><path d="M168.193 96.396c-.111-.008-.227.153-.227.153l-4.288 4.796h8.621c-1.221-1.652-2.63-3.186-3.911-4.776 0 0-.089-.164-.195-.173z"/></g><defs><clipPath id="nclip0_269_29133"><path fill="#fff" transform="translate(75 86)" d="M0 0h168v28H0z"/></clipPath></defs></svg>