<?xml version="1.0" encoding="utf-8"?><svg width="318" height="200" fill="none" xmlns="http://www.w3.org/2000/svg" viewBox="0 0 318 200"><path d="M205.424 80.4v-.737h.497c.37 0 .56.126.56.368 0 .19-.127.368-.497.368h-.56zm1.797 1.525l-.317-.536c-.275-.474-.349-.548-.581-.632v-.01c.454-.053.729-.348.729-.748 0-.431-.275-.747-.846-.747h-1.342v2.673h.56v-1.094h.106c.243 0 .328.031.444.137a2.4 2.4 0 01.37.526l.222.442h.666l-.011-.01zm-1.321-3.42c1.152 0 2.093.926 2.093 2.073a2.093 2.093 0 01-2.093 2.084 2.084 2.084 0 01-2.082-2.084c0-1.147.93-2.073 2.082-2.073zm0-.505a2.584 2.584 0 100 5.167h.01a2.589 2.589 0 002.59-2.578v-.01A2.588 2.588 0 00205.91 78h-.01zm-14.132 2.768c-5.602 0-9.471 2.21-12.081 5.293-.444-.926-.783-1.326-1.248-1.863-2.145-2.41-5.591-3.535-10.21-3.535-4.524 0-8.287 1.4-10.898 3.62-1.363-2.2-4.598-3.652-8.498-3.652-5.105 0-10.654.716-13.963 6.009-.074-1.905-.253-2.915-1.332-4.041-1.31-1.379-3.424-1.737-5.485-1.737-3.753 0-6.575 1.632-8.615 4.957-2.949 4.694-10.094 20.122-9.935 27.593.105 4.831 3.361 8.304 9.185 8.44 4.545.106 8.117-1.105 10.39-3.388 2.04 2.199 5.148 3.494 8.868 3.494 4.144 0 8.308-1.242 10.771-3.947 2.072 2.536 5.338 4.01 9.534 3.989 5.486-.032 10.305-2.621 13.445-6.588 1.723 4.683 6.099 6.535 10.887 6.535 10.474 0 15.083-7.177 18.92-18.522.866-2.557 2.019-6.819 2.209-10.408.317-5.967-2.22-12.27-11.912-12.27l-.032.02zm-69.719 28.519c5.422-.937 6.786 1.01 6.617 2.82-.508 5.41-5.497 6.62-9.83 6.515-3.139-.074-5.962-1.505-6.046-5.136-.138-6.346 6.363-21.037 9.428-25.899 1.417-2.315 3.139-3.452 5.888-3.452 2.6 0 3.245 1.326 3.213 2.926-.106 4.251-7.008 17.175-9.27 22.226zm17.652-4.988a56.422 56.422 0 00-1.586 5.135c1.776-.442 3.118-.747 5.401-.694 2.601.063 4.271 1.136 4.271 3.283 0 5.199-5.771 6.725-9.777 6.725-4.398 0-8.256-2.494-8.256-7.282 0-5.61 3.055-14.123 5.92-19.785 3.519-6.956 7.113-7.882 13.318-7.882 2.727 0 5.855 1.157 5.855 3.714 0 3.547-3.023 4.904-6.014 5.073-1.279.074-3.245.147-4.418.063 0 0-.994 1.516-2.051 4.199 5.539-.779 7.896.474 6.955 3.673-1.268 4.315-5.02 4.599-9.618 3.778zm27.259-13.418c-1.501 0-2.484.947-3.213 1.968-1.606 2.242-5.084 11.25-5.634 14.944-.37 2.536.73 3.052 1.924 3.052 1.924 0 4.091-2.031 4.82-5.378 0 0-3.668-.084-2.653-3.326.983-3.136 2.843-3.82 5.93-3.946 6.088-.252 5.485 4.231 4.999 6.609-1.585 7.745-7.124 13.965-14.956 13.965-5.359 0-8.689-2.957-8.689-8.398 0-3.883 1.935-9.966 3.467-13.533 3.266-7.588 6.68-12.892 15.401-12.892 5.232 0 9.354 1.873 8.751 6.746-.443 3.578-2.24 5.683-5.506 5.935-.909.074-4.651-.021-3.414-3.546.433-1.232.613-2.2-1.227-2.2zm32.915 6.398c-.92 4.568-2.991 9.966-5.243 13.997-3.667 6.567-8.128 7.493-12.018 7.44-3.889-.042-8.276-1.473-8.308-7.45-.021-4.294 1.84-10.345 3.415-14.323 2.748-7.198 5.559-13.07 14.449-12.965 10.369.126 8.519 9.303 7.705 13.291v.01zm-8.794-6.25c-.888-.011-1.67.157-2.368 1.23-1.564 2.021-6.151 14.492-6.067 16.975.032.895.529 1.674 1.628 1.674 1.268 0 1.976-.874 2.6-1.926 1.438-2.431 5.496-13.45 5.613-16.207.031-.8-.106-1.736-1.406-1.757v.01z" fill="#fff"/></svg>