<?xml version="1.0" encoding="utf-8"?><svg width="431" height="16" fill="none" xmlns="http://www.w3.org/2000/svg" viewBox="0 0 431 16"><path d="M1 7a1 1 0 000 2V7zm429.707 1.707a1 1 0 000-1.414L424.343.929a1 1 0 10-1.414 1.414L428.586 8l-5.657 5.657a1 1 0 101.414 1.414l6.364-6.364zM2.987 9a1 1 0 100-2v2zm3.971-2a1 1 0 100 2V7zm3.973 2a1 1 0 000-2v2zm3.972-2a1 1 0 100 2V7zm3.972 2a1 1 0 100-2v2zm3.972-2a1 1 0 100 2V7zm3.972 2a1 1 0 100-2v2zm3.973-2a1 1 0 100 2V7zm3.972 2a1 1 0 100-2v2zm3.972-2a1 1 0 100 2V7zm3.972 2a1 1 0 100-2v2zm3.973-2a1 1 0 100 2V7zm3.972 2a1 1 0 100-2v2zm3.972-2a1 1 0 100 2V7zm3.972 2a1 1 0 100-2v2zm3.972-2a1 1 0 000 2V7zm3.973 2a1 1 0 000-2v2zm3.972-2a1 1 0 100 2V7zm3.972 2a1 1 0 100-2v2zm3.972-2a1 1 0 100 2V7zm3.972 2a1 1 0 100-2v2zm3.973-2a1 1 0 100 2V7zm3.972 2a1 1 0 100-2v2zm3.972-2a1 1 0 100 2V7zm3.972 2a1 1 0 100-2v2zm3.973-2a1 1 0 100 2V7zm3.972 2a1 1 0 000-2v2zm3.972-2a1 1 0 000 2V7zm3.972 2a1 1 0 100-2v2zm3.973-2a1 1 0 100 2V7zm3.972 2a1 1 0 000-2v2zm3.972-2a1 1 0 000 2V7zm3.972 2a1 1 0 000-2v2zm3.972-2a1 1 0 000 2V7zm3.973 2a1 1 0 000-2v2zm3.972-2a1 1 0 000 2V7zm3.972 2a1 1 0 000-2v2zm3.972-2a1 1 0 000 2V7zm3.973 2a1 1 0 000-2v2zm3.972-2a1 1 0 000 2V7zm3.972 2a1 1 0 000-2v2zm3.972-2a1 1 0 000 2V7zm3.973 2a1 1 0 000-2v2zm3.972-2a1 1 0 100 2V7zm3.972 2a1 1 0 000-2v2zm3.972-2a1 1 0 000 2V7zm3.972 2a1 1 0 100-2v2zm3.973-2a1 1 0 100 2V7zm3.972 2a1 1 0 000-2v2zm3.972-2a1 1 0 000 2V7zm3.972 2a1 1 0 100-2v2zm3.973-2a1 1 0 100 2V7zm3.972 2a1 1 0 000-2v2zm3.972-2a1 1 0 000 2V7zm3.972 2a1 1 0 100-2v2zm3.972-2a1 1 0 000 2V7zm3.973 2a1 1 0 000-2v2zm3.972-2a1 1 0 000 2V7zm3.972 2a1 1 0 000-2v2zm3.972-2a1 1 0 000 2V7zm3.973 2a1 1 0 000-2v2zm3.972-2a1 1 0 000 2V7zm3.972 2a1 1 0 000-2v2zm3.972-2a1 1 0 000 2V7zm3.973 2a1 1 0 000-2v2zm3.972-2a1 1 0 100 2V7zm3.972 2a1 1 0 000-2v2zm3.972-2a1 1 0 000 2V7zm3.972 2a1 1 0 100-2v2zm3.973-2a1 1 0 100 2V7zm3.972 2a1 1 0 000-2v2zm3.972-2a1 1 0 000 2V7zm3.972 2a1 1 0 100-2v2zm3.973-2a1 1 0 100 2V7zm3.972 2a1 1 0 000-2v2zm3.972-2a1 1 0 000 2V7zm3.972 2a1 1 0 100-2v2zm3.973-2a1 1 0 100 2V7zm3.972 2a1 1 0 000-2v2zm3.972-2a1 1 0 000 2V7zm3.972 2a1 1 0 000-2v2zm3.972-2a1 1 0 000 2V7zm3.973 2a1 1 0 000-2v2zm3.972-2a1 1 0 000 2V7zm3.972 2a1 1 0 000-2v2zm3.972-2a1 1 0 000 2V7zm3.973 2a1 1 0 000-2v2zm3.972-2a1 1 0 000 2V7zm3.972 2a1 1 0 000-2v2zm3.972-2a1 1 0 000 2V7zm3.972 2a1 1 0 100-2v2zm3.973-2a1 1 0 100 2V7zm3.972 2a1 1 0 000-2v2zm3.972-2a1 1 0 000 2V7zm3.972 2a1 1 0 100-2v2zm3.973-2a1 1 0 100 2V7zm3.972 2a1 1 0 000-2v2zm3.972-2a1 1 0 000 2V7zm3.972 2a1 1 0 100-2v2zm3.973-2a1 1 0 100 2V7zm3.972 2a1 1 0 000-2v2zm3.972-2a1 1 0 000 2V7zm3.972 2a1 1 0 100-2v2zm3.972-2a1 1 0 000 2V7zm3.973 2a1 1 0 000-2v2zm3.972-2a1 1 0 000 2V7zm3.972 2a1 1 0 000-2v2zm3.972-2a1 1 0 000 2V7zM1 8v1h1.986V7H1v1zm5.958 0v1h3.973V7H6.958v1zm7.945 0v1h3.972V7h-3.972v1zm7.944 0v1h3.972V7h-3.972v1zm7.945 0v1h3.972V7h-3.972v1zm7.944 0v1h3.972V7h-3.972v1zm7.945 0v1h3.972V7H46.68v1zm7.944 0v1h3.972V7h-3.972v1zm7.944 0v1h3.973V7h-3.973v1zm7.945 0v1h3.972V7h-3.972v1zm7.944 0v1h3.972V7h-3.972v1zm7.945 0v1h3.972V7h-3.972v1zm7.944 0v1h3.972V7h-3.972v1zm7.945 0v1h3.972V7h-3.972v1zm7.944 0v1h3.972V7h-3.972v1zm7.945 0v1h3.972V7h-3.972v1zm7.944 0v1h3.972V7h-3.972v1zm7.944 0v1h3.973V7h-3.973v1zm7.945 0v1h3.972V7h-3.972v1zm7.944 0v1h3.973V7h-3.973v1zm7.945 0v1h3.972V7h-3.972v1zm7.944 0v1h3.973V7h-3.973v1zm7.945 0v1h3.972V7h-3.972v1zm7.944 0v1h3.972V7h-3.972v1zm7.945 0v1h3.972V7h-3.972v1zm7.944 0v1h3.972V7h-3.972v1zm7.945 0v1h3.972V7h-3.972v1zm7.944 0v1h3.972V7h-3.972v1zm7.944 0v1h3.973V7h-3.973v1zm7.945 0v1h3.972V7h-3.972v1zm7.944 0v1h3.973V7h-3.973v1zm7.945 0v1h3.972V7h-3.972v1zm7.944 0v1h3.973V7h-3.973v1zm7.945 0v1h3.972V7h-3.972v1zm7.944 0v1h3.972V7h-3.972v1zm7.945 0v1h3.972V7h-3.972v1zm7.944 0v1h3.972V7h-3.972v1zm7.945 0v1h3.972V7h-3.972v1zm7.944 0v1h3.972V7h-3.972v1zm7.945 0v1h3.972V7h-3.972v1zm7.944 0v1h3.972V7h-3.972v1zm7.944 0v1h3.973V7h-3.973v1zm7.945 0v1h3.972V7h-3.972v1zm7.944 0v1h3.973V7h-3.973v1zm7.945 0v1h3.972V7h-3.972v1zm7.944 0v1h3.972V7h-3.972v1zm7.945 0v1h3.972V7h-3.972v1zm7.944 0v1h3.972V7h-3.972v1zm7.945 0v1h3.972V7h-3.972v1zm7.944 0v1h3.972V7h-3.972v1zm7.945 0v1h3.972V7h-3.972v1zm7.944 0v1h3.972V7h-3.972v1zm7.944 0v1h3.973V7h-3.973v1zm7.945 0v1h3.972V7h-3.972v1zm7.944 0v1H430V7h-1.986v1z" fill="#ACF"/></svg>