<?xml version="1.0" encoding="utf-8"?><svg width="32" height="32" fill="none" xmlns="http://www.w3.org/2000/svg" viewBox="0 0 32 32"><path d="M16 32c8.837 0 16-7.163 16-16S24.837 0 16 0 0 7.163 0 16s7.163 16 16 16z" fill="#29A9EB"/><path d="M13.067 23.334c-.518 0-.43-.196-.61-.69l-1.523-5.016 11.733-6.961" fill="#C8DAEA"/><path d="M13.066 23.333c.4 0 .577-.183.8-.4L16 20.859l-2.661-1.605" fill="#A9C9DD"/><path d="M13.34 19.255l6.448 4.764c.735.405 1.267.195 1.45-.684l2.624-12.368c.27-1.077-.41-1.566-1.114-1.246L7.336 15.663c-1.052.422-1.046 1.01-.192 1.27l3.955 1.235 9.157-5.776c.432-.263.828-.122.503.167" fill="#fff"/></svg>