<svg width="33" height="32" viewBox="0 0 33 32" fill="none" xmlns="http://www.w3.org/2000/svg">
<rect x="2.00024" y="5.61914" width="3.95235" height="3.95235" fill="#1F5DEF"/>
<rect x="17.8096" y="21.4285" width="3.95235" height="3.95235" fill="#1F5DEF"/>
<rect x="20.9436" y="2.00562" width="3.95235" height="3.95235" transform="rotate(45 20.9436 2.00562)" fill="#1F5DEF"/>
<rect x="4.79419" y="17.4761" width="3.95235" height="3.95235" transform="rotate(45 4.79419 17.4761)" fill="#1F5DEF"/>
<rect x="5.95239" y="1.66675" width="3.95235" height="3.95235" fill="#1F5DEF"/>
<rect x="21.7617" y="17.4761" width="3.95235" height="3.95235" fill="#1F5DEF"/>
<rect x="26.5322" y="2.00574" width="3.95235" height="3.95235" transform="rotate(45 26.5322 2.00574)" fill="#1F5DEF"/>
<rect x="10.3833" y="17.4761" width="3.95235" height="3.95235" transform="rotate(45 10.3833 17.4761)" fill="#1F5DEF"/>
<rect x="9.90454" y="5.61914" width="3.95235" height="3.95235" fill="#1F5DEF"/>
<rect x="25.7141" y="21.4285" width="3.95235" height="3.95235" fill="#1F5DEF"/>
<rect x="26.5322" y="7.59521" width="3.95235" height="3.95235" transform="rotate(45 26.5322 7.59521)" fill="#1F5DEF"/>
<rect x="10.3833" y="23.0657" width="3.95235" height="3.95235" transform="rotate(45 10.3833 23.0657)" fill="#1F5DEF"/>
<rect x="5.95239" y="9.57153" width="3.95235" height="3.95235" fill="#1F5DEF"/>
<rect x="21.7617" y="25.3809" width="3.95235" height="3.95235" fill="#1F5DEF"/>
<rect x="20.9436" y="7.59521" width="3.95235" height="3.95235" transform="rotate(45 20.9436 7.59521)" fill="#1F5DEF"/>
<rect x="4.79419" y="23.0657" width="3.95235" height="3.95235" transform="rotate(45 4.79419 23.0657)" fill="#1F5DEF"/>
</svg>
