<svg width="33" height="32" viewBox="0 0 33 32" fill="none" xmlns="http://www.w3.org/2000/svg">
<path d="M12.6662 2.66675H7.33285V5.33341H4.66618V8.00008H1.99951V16.0001H4.66618V18.6667H7.33285V21.3334H9.99951V24.0001H12.6662V26.6667H15.3328V29.3334H17.9995V26.6667H20.6662V24.0001H23.3328V21.3334H25.9995V18.6667H28.6662V16.0001H31.3328V8.00008H28.6662V5.33341H25.9995V2.66675H20.6662V5.33341H17.9995V8.00008H15.3328V5.33341H12.6662V2.66675ZM12.6662 5.33341V8.00008H15.3328V10.6667H17.9995V8.00008H20.6662V5.33341H25.9995V8.00008H28.6662V16.0001H25.9995V18.6667H23.3328V21.3334H20.6662V24.0001H17.9995V26.6667H15.3328V24.0001H12.6662V21.3334H9.99951V18.6667H7.33285V16.0001H4.66618V8.00008H7.33285V5.33341H12.6662Z" fill="#1F5DEF"/>
</svg>
