<svg width="24" height="24" viewBox="0 0 24 24" xmlns="http://www.w3.org/2000/svg">
<path d="M20.0002 12.9995L20.0002 10.9995L8.00024 10.9995L8.00024 8.99951L6.00024 8.99951L6.00024 10.9995L4.00024 10.9995L4.00024 12.9995L6.00024 12.9995L6.00024 14.9995L8.00024 14.9995L8.00024 12.9995L20.0002 12.9995ZM10.0002 16.9995L8.00024 16.9995L8.00024 14.9995L10.0002 14.9995L10.0002 16.9995ZM10.0002 16.9995L12.0002 16.9995L12.0002 18.9995L10.0002 18.9995L10.0002 16.9995ZM10.0002 6.99951L8.00024 6.99951L8.00024 8.99951L10.0002 8.99951L10.0002 6.99951ZM10.0002 6.99951L12.0002 6.99951L12.0002 4.99951L10.0002 4.99951L10.0002 6.99951Z"/>
</svg>
