<svg width="40" height="41" viewBox="0 0 40 41" fill="none" xmlns="http://www.w3.org/2000/svg">
<path d="M23.333 3.83337H16.6663V7.16671H13.333V10.5H9.99967V13.8334H6.66634V17.1667H3.33301V37.1667H36.6663V17.1667H33.333V13.8334H29.9997V10.5H26.6663V7.16671H23.333V3.83337ZM23.333 7.16671V10.5H26.6663V13.8334H29.9997V20.5H26.6663V23.8334H23.333V27.1667H16.6663V23.8334H13.333V20.5H9.99967V13.8334H13.333V10.5H16.6663V7.16671H23.333ZM9.99967 20.5V23.8334H13.333V27.1667H16.6663V30.5H23.333V27.1667H26.6663V23.8334H29.9997V20.5H33.333V33.8334H6.66634V20.5H9.99967Z" fill="#00BBFF"/>
</svg>
