<svg width="100" height="39" viewBox="0 0 100 39" fill="none" xmlns="http://www.w3.org/2000/svg">
<path d="M46.7819 13.1548C48.856 13.1548 50.6559 13.5362 52.1817 14.2991C53.7314 15.0382 54.9115 16.0991 55.722 17.4818C56.5564 18.8646 56.9737 20.4857 56.9737 22.3453V22.7029C56.9737 24.5624 56.5564 26.1955 55.722 27.6021C54.8876 28.9848 53.7075 30.0577 52.1817 30.8205C50.6559 31.5596 48.856 31.9291 46.7819 31.9291C44.2548 31.9291 42.1687 31.2735 40.5238 29.9623L40.3807 31.5H35.553V6.61059H40.7383V14.9786C42.4072 13.7627 44.4217 13.1548 46.7819 13.1548ZM51.6096 22.3453C51.6096 20.9387 51.1208 19.842 50.1434 19.0553C49.1659 18.2686 47.7951 17.8752 46.0309 17.8752C44.9104 17.8752 43.8733 18.054 42.9197 18.4116C41.9899 18.7692 41.2628 19.2579 40.7383 19.8778V25.1704C41.2866 25.7902 42.0257 26.2909 42.9555 26.6723C43.8853 27.0299 44.9104 27.2087 46.0309 27.2087C47.7951 27.2087 49.1659 26.8154 50.1434 26.0286C51.1208 25.2419 51.6096 24.1333 51.6096 22.7029V22.3453Z" fill="white"/>
<path d="M32.4541 13.5839V18.1613H28.4489C26.2079 18.1613 24.6345 18.7215 23.7285 19.842V31.5H18.579V13.5839H23.4067L23.5497 15.2289C25.0517 14.1322 26.9112 13.5839 29.1284 13.5839H32.4541Z" fill="white"/>
<path d="M13.3999 8.04101V31.5H8V8.04101H13.3999Z" fill="white"/>
<path d="M80.8342 31.9291C77.4727 31.9291 74.8502 31.4046 72.9668 30.3557C71.1073 29.2828 70.1775 27.769 70.1775 25.8141V25.6353H75.1482V25.8141C75.1482 26.4816 75.6012 26.9703 76.5071 27.2802C77.4131 27.5663 78.8793 27.7094 80.9057 27.7094C84.2434 27.7094 85.9122 27.2326 85.9122 26.2789V26.1001C85.9122 25.7425 85.6976 25.4684 85.2685 25.2776C84.8394 25.0869 84.0646 24.9439 82.9441 24.8485L78.3309 24.3836C75.6846 24.1214 73.7536 23.5731 72.5377 22.7386C71.3218 21.9042 70.7139 20.7241 70.7139 19.1983V18.8407C70.7139 17.0527 71.596 15.658 73.3602 14.6567C75.1482 13.6554 77.6276 13.1548 80.7984 13.1548C84.0884 13.1548 86.6155 13.6793 88.3797 14.7283C90.1439 15.7772 91.026 17.2911 91.026 19.2699V19.4844H86.0552V19.2699C86.0552 18.6023 85.6261 18.1255 84.7678 17.8394C83.9334 17.5295 82.5626 17.3745 80.6554 17.3745C79.1057 17.3745 77.9137 17.4818 77.0793 17.6964C76.2449 17.911 75.8277 18.2209 75.8277 18.6262V18.8407C75.8277 19.1983 76.0184 19.4725 76.3999 19.6632C76.8051 19.8539 77.4608 19.997 78.3667 20.0924L83.0513 20.5572C85.8645 20.8433 87.9029 21.4036 89.1664 22.238C90.4538 23.0724 91.0975 24.2763 91.0975 25.8498V26.2074C91.0975 28.0193 90.1916 29.4259 88.3797 30.4272C86.5678 31.4285 84.0526 31.9291 80.8342 31.9291Z" fill="white"/>
<path d="M60.3537 6.5H65.3537V11.5H60.3537V6.5Z" fill="#00BBFF"/>
<path d="M65.3537 13.5V31.5H60.3537V13.5H65.3537Z" fill="white"/>
</svg>
