<svg width="318" height="200" viewBox="0 0 318 200" fill="none" xmlns="http://www.w3.org/2000/svg">
<path d="M197.763 99.3679L210.902 90.7277C211.385 90.4284 211.202 89.772 210.661 89.772H205.979C205.68 89.772 205.438 89.8299 205.255 90.0133L192.714 98.47V90.4284C192.714 90.0712 192.415 89.772 192.058 89.772H188.998C188.641 89.772 188.341 90.0712 188.341 90.4284V109.562C188.341 109.919 188.641 110.219 188.998 110.219H192.058C192.415 110.219 192.714 109.919 192.714 109.562V100.681L205.911 109.977C206.095 110.093 206.394 110.219 206.635 110.219H211.375C211.916 110.219 212.099 109.562 211.675 109.195L197.754 99.3582L197.763 99.3679Z" fill="white"/>
<path d="M157.15 101.945H152.535V106.627H138.199V101.945H133.585V106.261C133.585 108.964 134.965 110.219 138.025 110.219C138.209 110.219 152.603 110.219 152.786 110.219C155.846 110.219 157.227 109.022 157.227 106.261L157.169 101.945H157.15Z" fill="white"/>
<path d="M152.719 89.772C152.535 89.772 138.141 89.772 137.958 89.772C134.898 89.772 133.517 90.969 133.517 93.73V96.3655V97.9874H138.132V93.3053H152.41V97.9874H157.024V96.3655V93.73C157.14 91.027 155.769 89.772 152.709 89.772H152.719Z" fill="white"/>
<path d="M125.9 99.9085C127.58 99.6671 128.835 98.2866 128.835 96.6069V93.73C128.835 91.027 127.455 89.772 124.394 89.772H106.815C106.458 89.772 106.091 90.1292 106.091 90.496V109.389C106.091 109.871 106.448 110.17 106.815 110.17H123.786C127.146 110.17 128.941 108.79 128.941 106.154V103.152C128.999 101.472 127.619 100.034 125.881 99.9085H125.9ZM110.483 93.2473H122.657C123.854 93.2473 124.452 93.788 124.452 94.985V96.5489C124.452 97.6881 123.854 98.2287 122.657 98.2287H110.483V93.2473ZM124.52 105.006C124.52 106.145 123.921 106.685 122.724 106.685H110.483V101.704H122.782C123.979 101.704 124.578 102.245 124.578 103.442V105.006H124.52Z" fill="white"/>
<path d="M184.383 109.205L176.467 102.486C176.467 102.486 179.102 102.486 179.17 102.486C182.23 102.486 183.611 101.289 183.611 98.528V93.73C183.611 91.027 182.23 89.772 179.17 89.772H162.556C162.141 89.772 161.774 90.1292 161.774 90.5539V109.572C161.774 109.929 162.073 110.228 162.43 110.228H165.491C165.848 110.228 166.147 109.929 166.147 109.572V102.438H170.462L179.16 109.871C179.402 110.055 179.643 110.17 180.058 110.17H184.074C184.615 110.17 184.856 109.572 184.373 109.215L184.383 109.205ZM166.147 93.2473H177.365C178.562 93.2473 179.16 93.788 179.16 94.985V97.3888C179.16 98.528 178.562 99.0686 177.365 99.0686H166.147V93.2473Z" fill="white"/>
</svg>
