<svg width="318" height="200" viewBox="0 0 318 200" fill="none" xmlns="http://www.w3.org/2000/svg">
<g clip-path="url(#clip0_269_29133)">
<path fill-rule="evenodd" clip-rule="evenodd" d="M237.268 107.589C235.93 108.795 234.487 110.064 232.629 109.667C232.147 109.556 231.704 109.308 231.351 108.951C230.998 108.595 230.749 108.143 230.631 107.648C230.413 106.761 230.468 105.91 230.577 104.993L238.12 104.978L237.916 104.705C234.109 99.9395 231.087 94.5602 229.067 88.8935C226.895 94.6324 223.847 100.301 220.218 105.009L227.611 104.993C227.567 106.042 227.797 107.324 227.341 108.224C226.881 109.213 225.802 109.703 224.805 109.724C221.823 109.429 219.841 106.645 218.707 104.012C217.387 100.775 217.873 96.3328 219.947 93.5673C222.835 89.4965 227.932 87.8532 232.683 89.4125C235.579 90.3775 238.156 92.7715 239.427 95.8181C240.934 99.5927 240.044 104.64 237.268 107.589ZM241.532 93.6255C240.421 91.5588 238.788 89.6128 236.944 88.3733C232.802 85.4592 226.652 85.2287 222.322 87.6819C217.885 90.1028 214.824 95.1655 215.145 100.664C215.418 106.558 219.463 111.693 224.696 113.302C230.252 115.17 236.535 113.179 240.128 108.628C243.225 104.613 244.009 98.295 241.532 93.6255Z" fill="white"/>
<path fill-rule="evenodd" clip-rule="evenodd" d="M205.785 105.446C205.999 105.753 206.068 106.362 205.869 106.89C205.684 107.379 205.438 107.668 204.959 107.873C204.306 108.156 203.444 107.894 203.166 107.55C203.166 107.55 200.927 104.82 199.689 103.267C199.47 103.038 199.359 102.828 199.128 102.594L193.16 102.623C191.68 102.63 189.933 100.857 189.933 99.4454V98.9005L201.046 98.8865C201.461 98.8865 201.928 98.4966 202.155 97.9872C202.361 97.5285 202.358 97.1569 202.155 96.6949C201.914 96.1457 201.365 95.7526 200.934 95.7548L188.848 95.7882L188.812 95.9098V106.701C188.812 107.42 187.822 108.344 186.853 108.252C185.957 108.166 185.223 107.254 185.224 106.617L185.237 95.1797C185.238 93.9886 185.585 93.5245 186.336 92.8686C187.067 92.23 187.729 92.0889 188.699 92.09L201.819 92.104C203.692 92.1062 205.445 93.5277 206.147 95.5771C206.902 97.774 206.206 99.7189 204.51 101.302C204.133 101.654 203.445 102.088 203.445 102.088L205.785 105.446ZM179.057 107.705C178.493 108.233 177.568 108.345 176.927 108.042C175.915 107.138 175.216 106.015 174.403 105.009L160.779 104.98L159.17 107.168C158.661 107.857 158.016 108.331 157.023 108.156C156.507 108.049 156.017 107.615 155.846 107.143C155.582 106.534 155.61 105.959 155.957 105.403L164.593 93.9434C165.317 92.8589 166.1 92.0825 167.452 92.09C169.578 92.118 169.724 92.6543 171.19 94.5422C173.233 97.3885 177.359 102.729 179.449 105.739C179.713 106.422 179.404 107.151 179.057 107.705ZM148.781 102.537H139.923C138.627 102.379 137.633 101.438 137.12 100.348C136.945 99.9214 136.936 99.3226 136.887 98.8778L137.345 98.8865H148.052C148.514 98.8865 148.955 98.4632 149.174 97.9312C149.374 97.4445 149.361 97.0503 149.118 96.5851C148.849 96.0671 148.363 95.7408 147.885 95.7408H135.942L135.831 95.8538V106.446C135.831 107.432 134.972 108.159 133.959 108.139C133.071 108.123 132.242 107.401 132.242 106.466V95.1215C132.242 94.1846 132.599 93.6322 133.264 93C133.961 92.3388 134.878 92.0878 135.55 92.0889L148.726 92.1029C151.265 92.1051 153.323 94.7198 153.255 97.4574C153.188 100.098 150.889 102.536 148.781 102.536V102.537ZM124.057 106.469C122.697 108.149 120.837 108.171 118.787 108.168L106.845 108.156C105.55 108.153 104.458 106.875 104.275 105.561L104.266 104.897L120.031 104.913C120.559 104.913 121.235 104.183 121.253 103.436C121.274 102.63 120.718 101.864 119.911 101.864H108.555C106.591 101.864 104.589 100.016 104.266 97.7072C104.006 95.8398 104.618 94.4258 106.064 93.2197C107.157 92.3097 107.987 92.0491 109.516 92.0469L120.02 92.034C121.642 92.0028 123.409 92.2838 124.17 93.8303C124.4 94.3031 124.521 94.8168 124.506 95.4457L109.669 95.4511C109.216 95.4511 108.507 95.7095 108.247 96.3018C107.923 97.0406 108.296 97.886 109.031 98.2123C109.324 98.3426 109.844 98.3243 109.844 98.3243H120.638C122.568 98.4611 124.29 99.7049 124.953 101.751C125.533 103.532 125.236 105.014 124.057 106.469ZM75 86V114H209.609L209.637 86H75Z" fill="white"/>
<path fill-rule="evenodd" clip-rule="evenodd" d="M168.193 96.3963C168.082 96.3877 167.966 96.5493 167.966 96.5493L163.678 101.345H172.299C171.078 99.6928 169.669 98.1593 168.388 96.5686C168.388 96.5686 168.299 96.4049 168.193 96.3963Z" fill="white"/>
</g>
<defs>
<clipPath id="clip0_269_29133">
<rect width="168" height="28" fill="white" transform="translate(75 86)"/>
</clipPath>
</defs>
</svg>
