<svg width="318" height="200" viewBox="0 0 318 200" fill="none" xmlns="http://www.w3.org/2000/svg">
<path d="M127.5 62.5103V137.489H190.5V62.5103H127.5ZM188.873 135.863H128.979V63.9891H188.873V135.863ZM164.324 70.6441C164.324 71.5314 164.916 72.1229 165.951 72.1229H166.394V69.461H165.951C164.916 69.461 164.324 70.0525 164.324 70.6441ZM151.458 69.3131C149.831 69.3131 148.796 70.3483 148.796 72.1229C148.796 73.8976 149.831 74.9328 151.458 74.9328C152.937 74.9328 154.12 73.8976 154.12 72.1229C154.12 70.3483 152.937 69.3131 151.458 69.3131ZM180.444 125.806C180.444 126.398 181.035 126.989 181.775 126.989H182.514V124.771H181.775C181.035 124.771 180.444 125.215 180.444 125.806ZM187.394 65.6159H130.606V78.63H187.394V65.6159ZM138.592 76.1159L135.486 72.7145V76.1159H133.563V67.9821H135.486V71.3835L138.444 67.9821H140.662L137.113 71.9751L140.81 76.1159H138.592ZM154.859 75.0807C153.972 75.8201 152.789 76.2638 151.458 76.2638C150.127 76.2638 149.092 75.968 148.204 75.2286C147.317 74.4891 146.725 73.4539 146.725 72.1229C146.725 70.9398 147.317 69.9046 148.056 69.1652C148.944 68.4258 150.127 67.8342 151.458 67.8342C152.937 67.8342 154.12 68.4258 155.007 69.1652C155.747 69.9046 156.042 70.9398 156.042 72.1229C156.042 73.3061 155.599 74.3413 154.859 75.0807ZM168.613 73.306H168.317V76.1159H166.394V73.306H166.099C163.437 73.306 162.549 71.6793 162.549 70.6441C162.549 68.8694 163.88 67.9821 165.803 67.9821H168.909C170.831 67.9821 172.162 68.8694 172.162 70.6441C172.162 71.6793 171.275 73.306 168.613 73.306ZM183.697 71.2356V72.7145H180.444V74.7849H184.141V76.1159H178.669V67.9821H184.141L183.697 69.461H180.444V71.3835H183.697V71.2356ZM148.648 125.51L147.613 127.877H149.535C149.535 127.877 148.648 125.658 148.648 125.51ZM168.613 69.461H168.317V72.1229H168.761C169.796 72.1229 170.24 71.5314 170.24 70.792C170.24 70.0525 169.796 69.461 168.613 69.461ZM187.394 120.186H165.951V119.003H187.394V79.8131H130.606V119.003H157.817L160.183 120.186H130.606V134.236H187.394V120.186ZM186.803 118.56H165.951V118.412C166.099 118.264 166.099 118.264 166.247 118.116H170.24C170.24 118.116 170.387 118.116 170.387 117.968L170.24 117.82H166.394L166.542 117.672H186.803V118.56ZM172.31 105.989C172.31 106.285 172.162 106.433 172.162 106.581H165.951V105.989H172.31ZM165.951 105.841V105.398H172.606C172.458 105.546 172.458 105.693 172.31 105.841H165.951ZM172.014 106.729C172.014 106.877 171.866 107.024 171.866 107.32H165.951V106.729H172.014ZM171.718 107.468C171.718 107.616 171.571 107.764 171.571 107.912H165.951V107.468H171.718ZM171.423 108.06C171.423 108.208 171.275 108.503 171.275 108.651H165.951V108.06H171.423ZM171.127 108.799C170.979 108.947 170.979 109.095 170.831 109.243H165.951V108.799H171.127ZM170.831 109.391C170.683 109.686 170.683 109.834 170.535 109.982H165.951V109.391H170.831ZM170.831 111.313V112.94H170.535V111.313C170.683 111.313 170.683 111.313 170.831 111.313ZM170.535 110.13C170.387 110.278 170.387 110.574 170.24 110.722H165.951V110.13H170.535ZM170.092 110.87C170.092 111.017 169.944 111.165 169.796 111.313H165.951V110.87H170.092ZM169.796 111.461C169.648 111.609 169.648 111.905 169.5 112.053H165.951V111.461H169.796ZM169.352 112.2C169.352 112.348 169.204 112.496 169.056 112.644H165.951V112.2H169.352ZM169.056 112.94C168.909 113.088 168.761 113.236 168.761 113.384H165.951V112.94H169.056ZM168.613 113.531C168.465 113.679 168.465 113.975 168.317 114.123H165.951V113.531H168.613ZM168.169 114.271C168.021 114.419 168.021 114.567 167.873 114.715H165.951V114.271H168.169ZM167.725 114.862C167.725 115.01 167.578 115.306 167.43 115.454H165.951V114.862H167.725ZM167.282 115.602C167.134 115.75 167.134 115.898 166.986 116.193H165.951V115.602H167.282ZM166.838 116.341C166.69 116.489 166.542 116.637 166.542 116.785H165.951V116.341H166.838ZM186.803 117.377H166.838C166.838 117.229 166.986 117.229 166.986 117.081H171.866C172.014 117.081 172.014 117.081 172.014 116.933C172.014 116.933 172.014 116.785 171.866 116.785H167.134C167.282 116.785 167.282 116.637 167.282 116.489H186.803V117.377ZM186.803 116.341H167.578C167.578 116.193 167.725 116.193 167.725 116.046H173.493C173.493 116.046 173.641 116.046 173.641 115.898L173.493 115.75H167.873C168.021 115.75 168.021 115.602 168.021 115.454H186.803V116.341ZM186.803 115.306H168.169C168.317 115.158 168.317 115.01 168.465 115.01H175.12C175.268 115.01 175.268 114.862 175.268 114.862C175.268 114.862 175.268 114.715 175.12 114.715H168.613C168.613 114.715 168.761 114.567 168.761 114.419H186.803V115.306ZM186.803 114.271H168.909C168.909 114.123 169.056 113.975 169.056 113.975H176.599L176.747 113.827C176.747 113.679 176.599 113.679 176.599 113.679H169.204C169.204 113.531 169.352 113.531 169.352 113.384H186.803V114.271ZM171.718 112.94V111.017C171.718 111.017 171.866 111.017 172.014 111.017V112.94H171.718ZM172.754 112.94V110.574C172.902 110.574 172.901 110.574 173.049 110.574V112.94H172.754ZM173.937 112.94V110.13C173.937 110.13 174.085 109.982 174.232 109.982V112.94H173.937ZM174.972 112.94V109.539C175.12 109.539 175.268 109.391 175.268 109.391V112.94H174.972ZM176.155 112.94V108.799C176.303 108.799 176.303 108.799 176.451 108.651V112.94H176.155ZM177.338 112.94V108.06L177.486 107.912V112.94H177.338ZM178.373 112.94V107.172C178.521 107.024 178.521 107.024 178.669 106.877V112.792H178.373V112.94ZM179.556 112.94V106.137C179.556 105.989 179.704 105.841 179.704 105.841V112.94H179.556ZM180.592 112.94V104.806C180.74 104.658 180.74 104.658 180.887 104.51V112.94H180.592ZM181.775 112.94V103.327C181.775 103.179 181.923 103.031 181.923 103.031V112.94H181.775ZM182.81 112.94V101.553C182.958 101.405 182.958 101.257 183.106 101.109V112.94H182.81ZM183.993 112.94V99.1864C183.993 99.0385 184.141 98.7427 184.141 98.5948V112.94H183.993ZM186.211 80.2568H186.507V112.94H186.211V80.2568ZM185.028 80.2568H185.324V90.9047H185.028V80.2568ZM185.028 95.6371C185.176 95.1934 185.324 94.7497 185.324 94.3061V112.94H185.028V95.6371ZM185.028 91.4962C184.733 100.369 178.965 108.06 170.979 110.278C171.127 110.13 171.127 109.834 171.275 109.686C178.669 107.172 183.993 99.9258 184.289 91.4962H185.028ZM183.993 80.2568H184.141V90.9047H183.993V80.2568ZM182.81 80.2568H183.106V90.9047H182.81V80.2568ZM181.775 80.2568H181.923V90.9047H181.775V80.2568ZM180.592 80.2568H180.887V90.9047H180.592V80.2568ZM179.556 80.2568H179.704V90.7568H179.556V80.2568ZM178.373 80.2568H178.669V90.7568H178.373V80.2568ZM177.338 80.2568H177.486V90.7568H177.338V80.2568ZM184.141 91.4962C184.141 91.792 184.141 92.0878 184.141 92.2357H177.338V92.5314H184.141C183.402 100.222 178.373 106.877 171.423 109.391C172.014 108.355 172.458 107.172 172.902 105.989C177.19 104.215 180 100.369 181.035 94.8976V94.6019C181.035 94.6019 178.669 94.6019 176.155 94.6019C176.303 93.5666 176.451 92.5314 176.451 91.6441L184.141 91.4962ZM173.937 104.954V103.327C173.937 103.031 174.085 102.736 174.232 102.44V104.806C174.085 104.806 173.937 104.806 173.937 104.954ZM174.972 104.215V99.4822C175.12 99.1864 175.268 98.7427 175.268 98.4469V103.919C175.268 104.067 175.12 104.067 174.972 104.215ZM176.155 103.179V95.6371H176.451V103.031C176.303 103.031 176.303 103.179 176.155 103.179ZM177.338 101.996V95.6371H177.486V101.7C177.486 101.848 177.338 101.848 177.338 101.996ZM178.373 100.369V95.6371H178.669V99.9258C178.521 100.074 178.521 100.222 178.373 100.369ZM179.556 98.0033V95.6371H179.704V97.2638C179.704 97.5596 179.556 97.7075 179.556 98.0033ZM176.155 80.2568H176.451V85.5807H176.155V80.2568ZM174.972 80.2568H175.268V85.5807H174.972V80.2568ZM173.937 80.2568H174.232V85.5807H173.937V80.2568ZM172.754 80.2568H173.049V85.5807H172.754V80.2568ZM171.718 80.2568H172.014V85.5807H171.718V80.2568ZM170.535 80.2568H170.831V85.5807H170.535V80.2568ZM169.5 80.2568H169.648V85.5807H169.5V80.2568ZM168.317 80.2568H168.613V85.5807H168.317V80.2568ZM167.282 80.2568H167.43V85.5807H167.282V80.2568ZM166.099 80.2568H166.394V85.5807H166.099V80.2568ZM165.063 80.2568H165.211V85.5807H165.063V80.2568ZM163.88 80.2568H164.176V85.5807H163.88V80.2568ZM162.697 80.2568H162.993V85.5807H162.697V80.2568ZM161.662 80.2568H161.958V85.5807H161.662V80.2568ZM159.887 81.5878C159.887 80.8483 160.331 80.2568 160.331 80.2568H161.218C161.218 80.2568 160.627 80.9962 160.627 81.5878C160.627 82.3272 161.07 82.9187 161.07 83.6582C161.07 84.3976 160.627 84.9892 160.183 85.5807C160.183 85.5807 159.592 85.5807 159.296 85.5807C159.887 84.9892 160.331 84.2497 160.331 83.6582C160.331 82.9187 159.887 82.3272 159.887 81.5878ZM158.113 81.5878C158.113 80.8483 158.556 80.2568 158.556 80.2568H159.444C159.444 80.2568 158.852 80.9962 158.852 81.5878C158.852 82.3272 159.296 82.9187 159.296 83.6582C159.296 84.3976 158.852 84.9892 158.409 85.5807C158.409 85.5807 157.817 85.5807 157.669 85.5807C158.113 84.9892 158.556 84.2497 158.556 83.6582C158.556 82.9187 158.113 82.3272 158.113 81.5878ZM156.338 81.5878C156.338 80.8483 156.782 80.2568 156.782 80.2568H157.669C157.669 80.2568 157.078 80.9962 157.078 81.5878C157.078 82.3272 157.521 82.9187 157.521 83.6582C157.521 84.3976 157.078 84.9892 156.634 85.5807C156.634 85.5807 156.042 85.5807 155.894 85.5807C156.486 84.9892 156.782 84.2497 156.782 83.6582C156.782 82.9187 156.338 82.3272 156.338 81.5878ZM154.563 81.5878C154.563 80.8483 155.007 80.2568 155.007 80.2568H155.894C155.894 80.2568 155.303 80.9962 155.303 81.5878C155.303 82.3272 155.747 82.9187 155.747 83.6582C155.747 84.3976 155.303 84.9892 155.007 85.5807C155.007 85.5807 154.268 85.5807 154.12 85.5807C154.711 84.9892 155.007 84.2497 155.007 83.6582C155.007 82.9187 154.563 82.3272 154.563 81.5878ZM153.232 83.6582C153.232 82.9187 152.789 82.3272 152.789 81.5878C152.789 80.8483 153.232 80.2568 153.232 80.2568H154.12C154.12 80.2568 153.528 80.8483 153.528 81.5878C153.528 82.1793 153.972 82.9187 153.972 83.6582C153.972 84.3976 153.528 84.9892 153.232 85.5807C153.232 85.5807 152.493 85.5807 152.345 85.5807C152.789 84.9892 153.232 84.2497 153.232 83.6582ZM151.606 80.2568H151.901V85.5807H151.606V80.2568ZM150.57 80.2568H150.718V85.5807H150.57V80.2568ZM149.387 80.2568H149.683V85.5807H149.387V80.2568ZM148.204 80.2568H148.5V85.5807H148.204V80.2568ZM147.169 80.2568H147.465V85.5807H147.169V80.2568ZM145.986 80.2568H146.282V85.5807H145.986V80.2568ZM144.951 80.2568H145.099V85.5807H144.951V80.2568ZM143.768 80.2568H144.063V85.5807H143.768V80.2568ZM142.732 80.2568H142.88V85.5807H142.732V80.2568ZM141.549 80.2568H141.845V85.5807H141.549V80.2568ZM140.514 80.2568H140.662V85.5807H140.514V80.2568ZM139.331 80.2568H139.627V85.5807H139.331V80.2568ZM138.296 80.2568H138.444V85.5807H138.296V80.2568ZM137.113 80.2568H137.408V85.5807H137.113V80.2568ZM135.93 80.2568H136.225V85.5807H135.93V80.2568ZM176.155 86.3202C176.155 86.468 176.155 86.6159 176.155 86.7638H170.387C170.387 86.7638 170.387 86.7638 170.387 86.9117H176.155C176.155 87.0596 176.155 87.2075 176.155 87.3554H135.782C135.782 87.0596 135.634 86.6159 135.634 86.3202C139.183 86.3202 172.754 86.3202 176.155 86.3202ZM134.894 80.2568H135.19V112.792H134.894V80.2568ZM133.711 80.2568H134.007V112.792H133.711V80.2568ZM132.676 80.2568H132.972V112.792H132.676V80.2568ZM131.493 80.2568H131.789V112.792H131.493V80.2568ZM131.197 113.384H142.437C142.585 113.679 142.88 113.975 143.028 114.271H131.197V113.384ZM135.93 112.94V95.6371C136.077 95.9329 136.225 96.3765 136.225 96.8202V112.94H135.93ZM137.113 112.94V100.517C137.261 100.813 137.261 101.109 137.408 101.257V112.792L137.113 112.94ZM138.296 112.94V104.067C138.296 104.215 138.444 104.51 138.444 104.806V112.94H138.296ZM139.331 112.94V107.024C139.479 107.172 139.479 107.32 139.627 107.616V112.94H139.331ZM140.514 112.94V109.539C140.514 109.686 140.662 109.834 140.662 109.982V112.792H140.514V112.94ZM141.549 112.94V111.757C141.697 111.905 141.697 112.053 141.845 112.2V112.94H141.549ZM131.197 114.419H143.176C143.324 114.715 143.472 115.01 143.62 115.306H131.197V114.419ZM131.197 115.454H143.768C144.063 115.75 144.211 116.046 144.359 116.341H131.197V115.454ZM131.197 116.489H144.507C144.803 116.785 144.951 117.081 145.099 117.377H131.197V116.489ZM131.197 118.56V117.672H145.247C145.542 117.968 145.69 118.264 145.986 118.56H131.197ZM146.43 118.264C146.282 118.116 146.134 117.82 145.986 117.672H146.43V118.264ZM146.43 117.524H145.838C145.838 117.377 145.69 117.229 145.542 116.933H146.43V117.524ZM146.43 116.785H145.394C145.247 116.637 145.099 116.489 144.951 116.341H146.43V116.785ZM146.43 116.193H144.951C144.803 115.898 144.655 115.75 144.507 115.602H146.43V116.193ZM146.43 115.454H144.507C144.359 115.306 144.211 115.01 144.063 114.862H146.43V115.454ZM146.43 114.715H144.063C143.916 114.567 143.768 114.419 143.62 114.271H146.43V114.715ZM146.43 114.123H143.62C143.472 113.975 143.324 113.679 143.324 113.531H146.43V114.123ZM146.43 113.384H143.176C143.028 113.236 143.028 113.088 142.88 112.94H146.43V113.384ZM157.669 118.412H146.873V95.4892H157.669V95.6371C157.669 95.785 157.669 95.785 157.669 95.785C157.669 95.785 147.465 95.785 147.169 95.785V118.264C147.465 118.264 157.669 118.264 157.669 118.264C157.669 118.264 157.817 118.264 157.817 118.412H157.669ZM157.521 97.116H147.613C147.465 97.116 147.465 96.9681 147.465 96.9681C147.465 96.9681 147.465 96.8202 147.613 96.8202H157.521C157.669 96.8202 157.669 96.9681 157.669 96.9681C157.669 96.9681 157.669 97.116 157.521 97.116ZM157.669 98.1512C157.669 98.1512 157.669 98.299 157.521 98.299H148.056L147.908 98.1512C147.908 98.0033 148.056 98.0033 148.056 98.0033H157.521C157.669 98.0033 157.669 98.0033 157.669 98.1512ZM147.613 116.933H157.669H157.817C157.817 117.081 157.669 117.081 157.669 117.081H147.613C147.465 117.081 147.465 117.081 147.465 116.933C147.465 116.933 147.465 116.933 147.613 116.933ZM157.669 115.898H148.056H147.908C147.908 115.75 148.056 115.75 148.056 115.75H157.669C157.669 115.75 157.817 115.75 157.817 115.898H157.669ZM142.289 131.13H140.514V126.841C140.514 126.546 140.514 126.25 140.514 125.954C140.366 126.25 140.07 126.546 139.923 126.841L138.444 129.06H137.556L135.782 126.693C135.634 126.546 135.486 126.25 135.19 125.954C135.19 126.25 135.19 126.546 135.19 126.841V131.13H133.416V123.292H135.042L137.408 126.25C137.556 126.546 137.852 126.841 138 127.137C138.148 126.841 138.296 126.546 138.592 126.25L140.662 123.292H142.289V131.13ZM150.866 131.13L149.979 129.208H147.169L146.282 131.13H144.655L147.908 123.292H149.239L152.789 131.13H150.866ZM162.845 131.13H161.07V127.877H157.078V131.13H155.303V123.292H157.078V126.546H161.07V123.292H162.845V131.13ZM164.62 121.665C164.176 121.37 158.261 118.855 157.965 118.708V94.8976C158.261 94.8976 164.176 92.0878 164.62 91.9399V121.665ZM157.817 94.6019H146.43V112.644H142.732C142.732 112.496 142.585 112.348 142.437 112.2H144.951C144.951 112.2 144.951 112.2 144.951 112.053H142.437C142.289 111.905 142.141 111.609 142.141 111.461H143.62H143.768C143.768 111.313 143.62 111.313 143.62 111.313H141.993C141.993 111.165 141.845 111.017 141.697 110.87H142.585V110.722V110.574H141.697C138.444 104.51 136.077 96.5244 135.782 87.799H136.669C136.817 91.4962 137.261 95.3413 138.296 99.1864C138.592 100.369 138.887 101.553 139.331 102.736C140.07 104.806 140.81 107.024 141.845 108.947H141.993C141.106 106.877 140.218 104.806 139.479 102.736C139.035 101.553 138.739 100.369 138.444 99.0385C137.556 95.3413 136.965 91.4962 136.817 87.799H176.155C176.155 87.9469 176.155 87.9469 176.155 88.0948H170.387C170.387 88.0948 170.387 88.0948 170.387 88.2427H176.155C176.155 88.3906 176.007 88.6864 176.007 88.8342H170.535C170.387 88.8342 170.387 88.8342 170.387 88.8342C170.387 88.9821 170.387 88.9821 170.535 88.9821H176.007C176.007 89.13 176.007 89.2779 176.007 89.4258H170.535C170.387 89.4258 170.387 89.5737 170.387 89.5737C170.387 89.5737 170.387 89.7216 170.535 89.7216H176.007C176.007 89.8695 176.007 90.0173 176.007 90.1652H170.535C170.387 90.1652 170.387 90.1652 170.387 90.3131C170.387 90.3131 170.387 90.3131 170.535 90.3131H176.007C176.007 90.461 176.007 90.7568 176.007 90.9047H170.535H170.387C170.387 91.0526 170.535 91.0526 170.535 91.0526H176.007C175.859 91.2004 175.859 91.3483 175.859 91.4962H170.387V91.6441V91.792H175.859C175.859 91.9399 175.859 92.0878 175.859 92.2357H170.387C170.387 92.2357 170.387 92.2357 170.387 92.3836H175.859C175.711 92.5314 175.711 92.8272 175.711 92.9751H170.24C170.24 93.123 170.24 93.123 170.24 93.123H175.711C175.711 93.2709 175.711 93.4188 175.711 93.5667H170.24V93.7145H175.563C175.563 94.0103 175.563 94.1582 175.563 94.3061H170.24C170.24 94.3061 170.24 94.3061 170.24 94.454H175.563C175.563 94.6019 175.416 94.7498 175.416 95.0455H170.092V95.1934H175.416C175.416 95.3413 175.416 95.4892 175.268 95.6371H169.944C169.796 95.6371 169.796 95.785 169.796 95.785C169.796 95.785 169.796 95.785 169.944 95.785H175.268C175.268 96.0807 175.268 96.2286 175.268 96.3765H169.796C169.796 96.5244 169.796 96.5244 169.796 96.5244H175.12C175.12 96.6723 175.12 96.8202 175.12 97.116H169.648H169.5L169.648 97.2638H174.972C174.972 97.4117 174.972 97.5596 174.972 97.7075H169.5C169.5 97.7075 169.352 97.7075 169.352 97.8554H169.5H174.824C174.824 98.0033 174.824 98.2991 174.676 98.4469H169.352C169.204 98.4469 169.204 98.4469 169.204 98.4469C169.204 98.5948 169.204 98.5948 169.352 98.5948H174.676C174.676 98.7427 174.676 98.8906 174.528 99.0385H169.056C168.909 99.0385 168.909 99.1864 168.909 99.1864C168.909 99.1864 168.909 99.3343 169.056 99.3343H174.528C174.528 99.4822 174.38 99.63 174.38 99.7779H168.909C168.761 99.7779 168.761 99.7779 168.761 99.9258C168.761 99.9258 168.761 99.9258 168.909 99.9258H174.38C174.232 100.074 174.232 100.369 174.232 100.517H168.465C168.465 100.665 168.465 100.665 168.465 100.665H174.085C174.085 100.813 174.085 100.961 173.937 101.109H168.169L168.021 101.257L168.169 101.405H173.937C173.937 101.553 173.789 101.7 173.789 101.848H168.021C167.873 101.848 167.873 101.848 167.873 101.996C167.873 101.996 167.873 101.996 168.021 101.996H173.789C173.641 102.144 173.641 102.44 173.641 102.588H167.578C167.578 102.736 167.578 102.736 167.578 102.736H173.493C173.493 102.884 173.493 103.031 173.345 103.179H167.282L167.134 103.327H167.282H173.345C173.197 103.623 173.197 103.771 173.049 103.919H166.838C166.69 103.919 166.69 103.919 166.69 104.067C166.69 104.067 166.69 104.067 166.838 104.067H173.049C173.049 104.215 172.902 104.51 172.902 104.658H166.394H166.247C166.247 104.806 166.394 104.806 166.394 104.806H172.754C172.754 104.954 172.606 105.102 172.606 105.25H165.951V91.3483H165.063L164.768 91.4962L157.817 94.6019ZM165.655 121.517H165.063C164.916 121.517 164.916 121.517 164.916 121.517C164.916 121.517 164.916 121.37 165.063 121.37C165.063 121.37 165.359 121.37 165.507 121.37C165.507 121.222 165.507 91.6441 165.507 91.6441V91.4962C165.655 91.4962 165.655 91.6441 165.655 91.6441V121.517ZM165.951 116.933H166.394C166.247 117.081 166.099 117.377 165.951 117.524V116.933ZM174.38 131.13H172.606V126.841C172.606 126.546 172.606 126.102 172.754 125.806H172.606C172.458 126.102 172.162 126.398 171.866 126.841L168.169 131.13H166.542V123.292H168.317V127.285C168.317 127.729 168.317 128.172 168.317 128.468C168.465 128.172 168.761 127.877 169.056 127.581L172.606 123.292H174.528V131.13H174.38ZM184.289 131.13H182.514V128.172H181.923C181.627 128.172 181.035 129.06 179.704 131.13H177.782C179.113 129.208 179.852 127.877 180.296 127.581C179.556 127.285 178.669 126.546 178.669 125.658C178.669 124.327 179.556 123.44 181.775 123.44H184.289V131.13Z" fill="white"/>
</svg>
