<svg width="318" height="200" viewBox="0 0 318 200" fill="none" xmlns="http://www.w3.org/2000/svg">
<path d="M205.424 80.3994V79.6628H205.921C206.291 79.6628 206.481 79.789 206.481 80.0311C206.481 80.2205 206.354 80.3994 205.984 80.3994H205.424ZM207.221 81.9254L206.904 81.3886C206.629 80.9151 206.555 80.8414 206.323 80.7572V80.7467C206.777 80.6941 207.052 80.3994 207.052 79.9995C207.052 79.568 206.777 79.2523 206.206 79.2523H204.864V81.9254H205.424V80.8309H205.53C205.773 80.8309 205.858 80.8625 205.974 80.9677C206.08 81.0729 206.249 81.3045 206.344 81.4939L206.566 81.9359H207.232L207.221 81.9254ZM205.9 78.5051C207.052 78.5051 207.993 79.4312 207.993 80.5783C207.993 81.7254 207.052 82.662 205.9 82.662C204.748 82.662 203.818 81.7254 203.818 80.5783C203.818 79.4312 204.748 78.5051 205.9 78.5051ZM205.9 78C204.462 78 203.31 79.1576 203.31 80.5888C203.31 82.0201 204.473 83.1672 205.9 83.1672C205.9 83.1672 205.9 83.1672 205.91 83.1672C207.337 83.1672 208.5 82.0095 208.5 80.5888C208.5 80.5888 208.5 80.5888 208.5 80.5783C208.5 79.1576 207.337 78 205.91 78C205.91 78 205.91 78 205.9 78ZM191.768 80.7677C186.166 80.7677 182.297 82.9777 179.687 86.0612C179.243 85.1351 178.904 84.7352 178.439 84.1985C176.294 81.7885 172.848 80.6625 168.229 80.6625C163.705 80.6625 159.942 82.0622 157.331 84.2827C155.968 82.0832 152.733 80.6309 148.833 80.6309C143.728 80.6309 138.179 81.3466 134.87 86.64C134.796 84.7352 134.617 83.7249 133.538 82.5989C132.228 81.2203 130.114 80.8625 128.053 80.8625C124.3 80.8625 121.478 82.4936 119.438 85.8191C116.489 90.5127 109.344 105.941 109.503 113.412C109.608 118.243 112.864 121.716 118.688 121.852C123.233 121.958 126.805 120.747 129.078 118.464C131.118 120.663 134.226 121.958 137.946 121.958C142.09 121.958 146.254 120.716 148.717 118.011C150.789 120.547 154.055 122.021 158.251 122C163.737 121.968 168.556 119.379 171.696 115.412C173.419 120.095 177.795 121.947 182.583 121.947C193.057 121.947 197.666 114.77 201.503 103.425C202.369 100.868 203.522 96.606 203.712 93.0174C204.029 87.0504 201.492 80.7467 191.8 80.7467L191.768 80.7677ZM122.049 109.287C127.471 108.35 128.835 110.297 128.666 112.107C128.158 117.517 123.169 118.727 118.836 118.622C115.697 118.548 112.874 117.117 112.79 113.486C112.652 107.14 119.153 92.4491 122.218 87.5871C123.635 85.2719 125.357 84.1353 128.106 84.1353C130.706 84.1353 131.351 85.4613 131.319 87.0609C131.213 91.3125 124.311 104.236 122.049 109.287ZM139.701 104.299C139.341 105.267 138.665 107.288 138.115 109.434C139.891 108.992 141.233 108.687 143.516 108.74C146.117 108.803 147.787 109.876 147.787 112.023C147.787 117.222 142.016 118.748 138.01 118.748C133.612 118.748 129.754 116.254 129.754 111.466C129.754 105.856 132.809 97.3426 135.674 91.6809C139.193 84.7247 142.787 83.7986 148.992 83.7986C151.719 83.7986 154.847 84.9562 154.847 87.5135C154.847 91.06 151.824 92.4175 148.833 92.5859C147.554 92.6596 145.588 92.7332 144.415 92.6491C144.415 92.6491 143.421 94.1645 142.364 96.848C147.903 96.0693 150.26 97.3216 149.319 100.521C148.051 104.836 144.299 105.12 139.701 104.299ZM166.96 90.8811C165.459 90.8811 164.476 91.8282 163.747 92.849C162.141 95.0906 158.663 104.099 158.113 107.793C157.743 110.329 158.843 110.845 160.037 110.845C161.961 110.845 164.128 108.814 164.857 105.467C164.857 105.467 161.189 105.383 162.204 102.141C163.187 99.0054 165.047 98.3214 168.134 98.1951C174.222 97.9425 173.619 102.426 173.133 104.804C171.548 112.549 166.009 118.769 158.177 118.769C152.818 118.769 149.488 115.812 149.488 110.371C149.488 106.488 151.423 100.405 152.955 96.8375C156.221 89.2499 159.635 83.9459 168.356 83.9459C173.588 83.9459 177.71 85.8191 177.107 90.6916C176.664 94.2697 174.867 96.3745 171.601 96.627C170.692 96.7007 166.95 96.606 168.187 93.0805C168.62 91.8492 168.8 90.8811 166.96 90.8811ZM199.875 97.2795C198.955 101.847 196.884 107.245 194.632 111.276C190.965 117.843 186.504 118.769 182.614 118.716C178.725 118.674 174.338 117.243 174.306 111.266C174.285 106.972 176.146 100.921 177.721 96.9427C180.469 89.7445 183.28 83.8723 192.17 83.9775C202.539 84.1038 200.689 93.2805 199.875 97.269V97.2795ZM191.081 91.0284C190.193 91.0179 189.411 91.1863 188.713 92.2597C187.149 94.2802 182.562 106.751 182.646 109.234C182.678 110.129 183.175 110.908 184.274 110.908C185.542 110.908 186.25 110.034 186.874 108.982C188.312 106.551 192.37 95.5326 192.487 92.7753C192.518 91.9755 192.381 91.0389 191.081 91.0179V91.0284Z" fill="white"/>
</svg>
