<svg width="318" height="200" viewBox="0 0 318 200" fill="none" xmlns="http://www.w3.org/2000/svg">
<path fill-rule="evenodd" clip-rule="evenodd" d="M186.452 102.004C188.37 101.908 190.899 102.196 188.993 104.342L186.416 104.402L186.452 102.004ZM186.416 95.3988C187.986 95.3269 189.113 95.3269 188.573 97.0052C187.782 97.5926 187.638 97.4727 186.464 97.4248L186.416 95.3988ZM193.776 99.199C194.495 98.5517 195.023 98.3479 195.502 97.3409C195.922 96.4538 196.054 95.3868 195.874 94.3319C195.574 92.5937 194.208 90.9393 192.709 90.3999C191.115 89.8245 181.369 90.0043 179.019 90.1242L179.055 109.808C182.567 109.988 191.594 110.372 194.016 109.029C197.876 106.895 198.128 100.65 193.776 99.199Z" fill="white"/>
<path fill-rule="evenodd" clip-rule="evenodd" d="M112.307 95.9865L114.524 96.3222C115.028 96.8976 115.04 96.7897 115.04 97.8327C114.668 98.2882 114.788 98.1564 114.356 98.6119L112.295 98.7198L112.307 95.9865ZM119.763 102.964C123.467 101.081 123.264 93.9246 119.703 91.6709C116.203 89.4531 109.609 90.1364 104.982 90.1364V109.893L112.378 109.821V104.654C113.373 104.989 113.17 105.109 114.057 107.183C114.44 108.07 114.86 108.874 115.256 109.893L122.748 109.797C122.52 107.938 120.267 105.229 119.775 102.987L119.763 102.964Z" fill="white"/>
<path fill-rule="evenodd" clip-rule="evenodd" d="M224.946 98.0603L225.881 102.556L223.783 102.544L224.946 98.0603ZM221.985 107.579L227.739 107.603L228.519 109.844H235.675C235.675 108.07 233.05 101.861 232.331 99.7866C231.372 96.9934 229.478 92.7737 228.89 90.0884H220.882C219.839 93.7687 214.073 107.795 214.037 109.832L221.242 109.844L221.973 107.579H221.985Z" fill="white"/>
<path fill-rule="evenodd" clip-rule="evenodd" d="M130.996 101.932C131.967 101.393 137.529 101.656 138.668 101.656V98.2998C137.421 98.2998 132.039 98.6115 131.032 98.0241L131.08 96.2979H138.836V90.1001H123.599L123.635 109.844H138.836V103.682H131.163L130.996 101.896V101.932Z" fill="white"/>
<path fill-rule="evenodd" clip-rule="evenodd" d="M205.225 101.872C206.172 101.237 211.782 101.561 212.933 101.561V98.2759C211.183 98.2759 206.484 98.7315 205.309 98.0362L205.369 96.2739H213.101V90.0762L197.9 90.1121L197.936 109.832L213.101 109.76L213.029 103.682L205.261 103.67L205.213 101.86L205.225 101.872Z" fill="white"/>
<path fill-rule="evenodd" clip-rule="evenodd" d="M154.9 103.851L147.084 103.827L146.988 101.801L154.936 101.669L154.924 98.3842L146.904 98.2883L147.024 96.2743C148.678 95.8308 152.946 96.0945 154.888 96.0945L154.912 90.1245H139.699L139.711 109.869H154.804L154.888 103.851H154.9Z" fill="white"/>
<path fill-rule="evenodd" clip-rule="evenodd" d="M77.6495 96.1183C78.0811 95.6628 79.0281 95.6508 79.9153 95.6747C80.5027 96.2981 80.215 96.1782 80.9462 96.5019L87.7194 96.394C87.12 92.8096 85.5016 91.2272 82.0012 90.46C72.1231 88.2662 67.2081 96.0464 71.7155 100.218C74.0292 102.364 79.3878 101.645 80.4787 103.047C79.8553 105.769 77.3379 103.215 76.8344 103.011H69.9893C71.0082 112.47 83.3678 110.252 85.8972 108.01C89.074 105.181 88.2469 100.997 86.3168 99.5948C82.0251 96.4659 77.6975 99.2711 77.6495 96.1303V96.1183Z" fill="white"/>
<path fill-rule="evenodd" clip-rule="evenodd" d="M232.534 96.2861H236.55L236.598 109.832L243.947 109.844L244.055 96.3101L247.999 96.2861L248.011 90.0884H232.522L232.534 96.2861Z" fill="white"/>
<path fill-rule="evenodd" clip-rule="evenodd" d="M155.835 96.2501L159.851 96.322V109.844L167.212 109.88L167.319 96.31L171.287 96.298L171.275 90.1602L155.811 90.1362L155.835 96.2501Z" fill="white"/>
<path fill-rule="evenodd" clip-rule="evenodd" d="M100.043 109.809C100.043 107.291 99.7313 98.0725 100.235 96.3223H104.083V90.1245H88.5945L88.7503 96.3103L92.6464 96.4302V109.893L100.043 109.821V109.809Z" fill="white"/>
</svg>
