<svg width="318" height="200" viewBox="0 0 318 200" fill="none" xmlns="http://www.w3.org/2000/svg">
<path d="M104.09 80.009C106.801 80.009 107.68 81.9749 108.425 83.9408C108.695 84.7576 115.813 104.147 116.02 104.749C116.091 104.883 116.02 105.153 115.75 105.287C115.481 105.359 111.818 106.849 111.612 106.912C111.406 106.984 111.208 106.912 111.073 106.643C111.002 106.436 109.449 102.235 109.314 101.759C108.838 101.688 99.3499 101.688 98.8023 101.688C98.5958 102.163 97.1057 106.365 97.0428 106.571C96.971 106.777 96.7736 106.912 96.5042 106.84C96.2978 106.768 92.5725 105.35 92.366 105.215C92.1595 105.144 92.0967 104.874 92.0967 104.677C92.4378 103.995 99.4217 84.8833 99.7538 83.9318C100.499 81.9659 101.379 80 104.09 80V80.009ZM91.612 114.65C91.4055 114.65 91.208 114.856 91.208 115.054V119.596C91.208 119.803 91.4145 120 91.612 120H116.558C116.765 120 116.962 119.794 116.962 119.596V115.054C116.962 114.847 116.756 114.65 116.558 114.65H91.612ZM104.09 86.3106L100.499 96.957H107.689L104.099 86.3106H104.09ZM196.962 101.975C196.962 103.196 196.28 103.941 195.068 103.941C194.592 103.941 194.188 103.941 193.578 103.734V100.072C193.847 100 194.395 99.9372 195.068 99.9372C196.289 100.072 196.962 100.682 196.962 101.975ZM199.467 101.768C199.467 99.5333 198.183 97.9713 195.4 97.9713C194.718 97.9713 194.251 98.0431 193.506 98.2406V94.9821C193.982 94.9103 194.727 94.8474 195.607 94.8474C196.424 94.8474 197.438 94.8474 198.39 94.9821L198.461 93.088C197.447 92.8187 195.957 92.7469 194.799 92.7469C193.65 92.7469 191.881 93.0162 191.074 93.2855V105.153C192.366 105.628 193.65 105.835 194.934 105.835C197.914 105.907 199.476 104.345 199.476 101.768H199.467ZM170.786 101.158C170.786 102.783 170.104 103.869 169.027 103.869C168.551 103.869 168.345 103.869 167.806 103.663V98.7164C168.345 98.4471 168.686 98.4471 169.162 98.4471C170.248 98.4471 170.786 99.3268 170.786 101.158ZM162.447 101.23C162.447 99.3986 162.986 98.4471 164.072 98.4471C164.547 98.4471 164.817 98.4471 165.427 98.7164V103.663C164.889 103.869 164.682 103.869 164.206 103.869C162.986 103.869 162.447 102.855 162.447 101.221V101.23ZM167.806 108.618V105.359C168.075 105.566 168.686 105.835 169.7 105.835C171.738 105.835 173.228 104.21 173.228 101.158C173.228 97.8995 171.738 96.4812 169.368 96.4812C168.758 96.4812 168.354 96.553 167.878 96.7505V92.8905H165.508V96.7505C165.032 96.4812 164.628 96.4812 164.018 96.4812C161.576 96.4812 160.158 97.9713 160.158 101.23C160.158 104.282 161.513 105.907 163.686 105.907C164.7 105.907 165.311 105.637 165.58 105.431V108.689L167.815 108.618H167.806ZM149.844 105.7V97.0198C148.56 96.6158 147.537 96.4812 146.253 96.4812C144.96 96.4812 143.946 96.6877 142.662 97.0198V101.49C142.662 102.711 142.662 103.052 142.528 103.456C142.393 103.797 142.258 104.201 141.711 104.542L142.321 105.898C144.215 105.359 144.969 104.542 144.969 101.894V98.6446C145.58 98.5728 145.714 98.5099 146.262 98.5099C146.801 98.5099 146.872 98.5099 147.483 98.6446V105.691H149.853L149.844 105.7ZM179.135 103.806C178.596 104.013 178.255 104.013 177.851 104.013C177.034 104.013 176.495 103.672 176.495 102.792C176.495 101.912 177.106 101.571 178.255 101.571C178.524 101.571 178.793 101.571 178.937 101.643V102.325C179.009 103.07 179.009 103.474 179.144 103.815L179.135 103.806ZM182.115 104.821C181.504 103.869 181.298 103.33 181.298 102.11V99.6679C181.298 98.3124 181.163 97.8367 180.759 97.4327C180.284 96.7505 179.476 96.4812 177.977 96.4812C176.89 96.4812 175.876 96.6158 174.925 96.8223L175.266 98.5817C175.948 98.5099 176.621 98.3753 177.16 98.3753C178.722 98.3753 178.919 98.6446 178.919 99.8026V100.278C178.578 100.207 178.174 100.144 177.698 100.144C175.328 100.144 174.108 101.293 174.108 103.196C174.108 104.955 175.463 105.979 177.088 105.979C177.698 105.979 178.309 105.844 178.847 105.709C179.117 105.575 179.251 105.503 179.664 105.233C179.934 105.575 180.346 105.916 180.544 105.979L182.106 104.83L182.115 104.821ZM205.364 103.806C204.826 104.013 204.485 104.013 204.072 104.013C203.255 104.013 202.716 103.672 202.716 102.792C202.716 101.912 203.327 101.571 204.476 101.571C204.745 101.571 205.014 101.571 205.158 101.643V102.325C205.23 103.07 205.23 103.474 205.364 103.815V103.806ZM208.345 104.821C207.734 103.869 207.528 103.33 207.528 102.11V99.6679C207.528 98.3124 207.393 97.8367 207.052 97.4327C206.576 96.7505 205.768 96.4812 204.269 96.4812C203.183 96.4812 202.169 96.6158 201.217 96.8223L201.558 98.5817C202.241 98.5099 202.914 98.3753 203.452 98.3753C205.014 98.3753 205.212 98.6446 205.212 99.8026V100.278C204.871 100.207 204.467 100.144 203.991 100.144C201.621 100.144 200.4 101.293 200.4 103.196C200.4 104.955 201.756 105.979 203.381 105.979C203.991 105.979 204.601 105.844 205.14 105.709C205.409 105.575 205.544 105.503 205.957 105.233C206.226 105.575 206.702 105.916 206.837 105.979L208.327 104.83L208.345 104.821ZM156.621 102.585C156.621 103.465 156.352 104.075 155.194 104.075C154.79 104.075 154.655 104.075 154.179 103.941V101.293C154.79 101.158 154.862 101.158 155.194 101.158C156.208 101.23 156.621 101.697 156.621 102.585ZM151.738 96.6158V105.224C152.824 105.7 154.108 105.907 155.194 105.907C157.698 105.907 159.054 104.623 159.054 102.451C159.054 100.557 157.833 99.3358 155.661 99.3358C155.122 99.3358 154.781 99.4076 154.17 99.5422V96.562L151.729 96.6338L151.738 96.6158ZM217.025 105.7V96.6877H214.655V100.081H211.944V96.6877H209.575V105.7H211.944V102.038H214.655V105.7H217.025ZM226.792 105.7C226.792 105.7 225.508 102.917 225.167 102.307C224.826 101.625 224.485 101.086 223.74 100.952C224.215 100.88 224.619 100.548 225.023 99.6589C225.427 98.7792 225.562 98.5728 225.768 98.3753C226.038 98.1688 226.307 98.2406 226.307 98.2406L226.442 96.6158C226.101 96.6158 225.697 96.544 225.356 96.6158C224.745 96.6158 224.404 96.8223 224.072 97.1544C223.803 97.4237 223.668 97.7649 223.461 98.1688C223.255 98.6446 223.057 98.9857 222.851 99.4525C222.582 99.9282 222.51 100.135 221.9 100.135H221.496V96.7415H219.126V105.754H221.496V102.092H221.837C222.519 102.092 222.654 102.298 222.986 102.971C223.39 103.788 224.207 105.754 224.207 105.754L226.783 105.682L226.792 105.7ZM138.255 105.7H141.038L136.899 93.088C136.495 92.9534 135.948 92.8187 135.337 92.8187C134.727 92.8187 134.52 92.8905 133.982 93.088L129.574 105.7H132.222C132.222 105.7 132.564 104.614 133.039 103.259H137.582C137.923 104.614 138.264 105.7 138.264 105.7H138.255ZM133.641 101.086C133.641 101.086 134.386 98.5817 134.52 98.1688C134.79 97.1544 135.266 95.5207 135.266 95.5207H135.337C135.337 95.5207 135.741 97.2173 136.02 98.1688C136.154 98.5099 136.836 101.086 136.836 101.086H133.65H133.641ZM186.181 99.6589C185.364 99.6589 184.691 100.341 184.691 101.149C184.691 101.966 185.373 102.639 186.181 102.639C186.998 102.639 187.671 101.957 187.671 101.149C187.671 100.332 186.989 99.6589 186.181 99.6589Z" fill="white"/>
</svg>
