<svg width="431" height="16" viewBox="0 0 431 16" fill="none" xmlns="http://www.w3.org/2000/svg">
<path d="M1 7C0.447715 7 -5.72403e-08 7.44772 0 8C5.72403e-08 8.55228 0.447715 9 1 9L1 8L1 7ZM430.707 8.70708C431.098 8.31655 431.098 7.68339 430.707 7.29286L424.343 0.928901C423.953 0.538377 423.319 0.538377 422.929 0.928901C422.538 1.31943 422.538 1.95259 422.929 2.34311L428.586 7.99997L422.929 13.6568C422.538 14.0473 422.538 14.6805 422.929 15.071C423.319 15.4616 423.953 15.4616 424.343 15.071L430.707 8.70708ZM2.98611 9C3.5384 9 3.98611 8.55228 3.98611 8C3.98611 7.44772 3.5384 7 2.98611 7L2.98611 8L2.98611 9ZM6.95833 7C6.40605 7 5.95833 7.44771 5.95833 8C5.95833 8.55228 6.40605 9 6.95833 9L6.95833 8L6.95833 7ZM10.9306 9C11.4828 9 11.9306 8.55228 11.9306 8C11.9306 7.44771 11.4828 7 10.9306 7L10.9306 8L10.9306 9ZM14.9028 7C14.3505 7 13.9028 7.44771 13.9028 8C13.9028 8.55228 14.3505 9 14.9028 9L14.9028 8L14.9028 7ZM18.875 9C19.4273 9 19.875 8.55228 19.875 8C19.875 7.44771 19.4273 7 18.875 7L18.875 8L18.875 9ZM22.8472 7C22.2949 7 21.8472 7.44771 21.8472 8C21.8472 8.55228 22.2949 9 22.8472 9L22.8472 8L22.8472 7ZM26.8194 9C27.3717 9 27.8194 8.55228 27.8194 8C27.8194 7.44771 27.3717 7 26.8194 7L26.8194 8L26.8194 9ZM30.7917 7C30.2394 7 29.7917 7.44771 29.7917 8C29.7917 8.55228 30.2394 9 30.7917 9L30.7917 8L30.7917 7ZM34.7639 9C35.3162 9 35.7639 8.55228 35.7639 8C35.7639 7.44771 35.3162 7 34.7639 7L34.7639 8L34.7639 9ZM38.7361 7C38.1838 7 37.7361 7.44771 37.7361 8C37.7361 8.55228 38.1838 9 38.7361 9L38.7361 8L38.7361 7ZM42.7083 9C43.2606 9 43.7083 8.55228 43.7083 8C43.7083 7.44771 43.2606 7 42.7083 7L42.7083 8L42.7083 9ZM46.6806 7C46.1283 7 45.6806 7.44771 45.6806 8C45.6806 8.55228 46.1283 9 46.6806 9L46.6806 8L46.6806 7ZM50.6528 9C51.2051 9 51.6528 8.55228 51.6528 8C51.6528 7.44771 51.2051 7 50.6528 7L50.6528 8L50.6528 9ZM54.625 7C54.0727 7 53.625 7.44771 53.625 8C53.625 8.55228 54.0727 9 54.625 9L54.625 8L54.625 7ZM58.5972 9C59.1495 9 59.5972 8.55228 59.5972 8C59.5972 7.44771 59.1495 7 58.5972 7L58.5972 8L58.5972 9ZM62.5694 7C62.0172 7 61.5694 7.44771 61.5694 8C61.5694 8.55228 62.0172 9 62.5694 9L62.5694 8L62.5694 7ZM66.5417 9C67.0939 9 67.5417 8.55228 67.5417 8C67.5417 7.44771 67.0939 7 66.5417 7L66.5417 8L66.5417 9ZM70.5139 6.99999C69.9616 6.99999 69.5139 7.44771 69.5139 7.99999C69.5139 8.55228 69.9616 8.99999 70.5139 8.99999L70.5139 7.99999L70.5139 6.99999ZM74.4861 8.99999C75.0384 8.99999 75.4861 8.55228 75.4861 7.99999C75.4861 7.44771 75.0384 6.99999 74.4861 6.99999L74.4861 7.99999L74.4861 8.99999ZM78.4583 6.99999C77.906 6.99999 77.4583 7.44771 77.4583 7.99999C77.4583 8.55228 77.906 8.99999 78.4583 8.99999L78.4583 7.99999L78.4583 6.99999ZM82.4305 8.99999C82.9828 8.99999 83.4305 8.55228 83.4305 7.99999C83.4305 7.44771 82.9828 6.99999 82.4305 6.99999L82.4305 7.99999L82.4305 8.99999ZM86.4028 6.99999C85.8505 6.99999 85.4028 7.44771 85.4028 7.99999C85.4028 8.55228 85.8505 8.99999 86.4028 8.99999L86.4028 7.99999L86.4028 6.99999ZM90.375 8.99999C90.9273 8.99999 91.375 8.55228 91.375 7.99999C91.375 7.44771 90.9273 6.99999 90.375 6.99999L90.375 7.99999L90.375 8.99999ZM94.3472 6.99999C93.7949 6.99999 93.3472 7.44771 93.3472 7.99999C93.3472 8.55228 93.7949 8.99999 94.3472 8.99999L94.3472 7.99999L94.3472 6.99999ZM98.3194 8.99999C98.8717 8.99999 99.3194 8.55228 99.3194 7.99999C99.3194 7.44771 98.8717 6.99999 98.3194 6.99999L98.3194 7.99999L98.3194 8.99999ZM102.292 6.99999C101.739 6.99999 101.292 7.44771 101.292 7.99999C101.292 8.55228 101.739 8.99999 102.292 8.99999L102.292 7.99999L102.292 6.99999ZM106.264 8.99999C106.816 8.99999 107.264 8.55228 107.264 7.99999C107.264 7.44771 106.816 6.99999 106.264 6.99999L106.264 7.99999L106.264 8.99999ZM110.236 6.99999C109.684 6.99999 109.236 7.44771 109.236 7.99999C109.236 8.55228 109.684 8.99999 110.236 8.99999L110.236 7.99999L110.236 6.99999ZM114.208 8.99999C114.761 8.99999 115.208 8.55228 115.208 7.99999C115.208 7.44771 114.761 6.99999 114.208 6.99999L114.208 7.99999L114.208 8.99999ZM118.181 6.99999C117.628 6.99999 117.181 7.44771 117.181 7.99999C117.181 8.55228 117.628 8.99999 118.181 8.99999L118.181 7.99999L118.181 6.99999ZM122.153 8.99999C122.705 8.99999 123.153 8.55228 123.153 7.99999C123.153 7.44771 122.705 6.99999 122.153 6.99999L122.153 7.99999L122.153 8.99999ZM126.125 6.99999C125.573 6.99999 125.125 7.44771 125.125 7.99999C125.125 8.55228 125.573 8.99999 126.125 8.99999L126.125 7.99999L126.125 6.99999ZM130.097 8.99999C130.649 8.99999 131.097 8.55228 131.097 7.99999C131.097 7.44771 130.649 6.99999 130.097 6.99999L130.097 7.99999L130.097 8.99999ZM134.069 6.99999C133.517 6.99999 133.069 7.44771 133.069 7.99999C133.069 8.55228 133.517 8.99999 134.069 8.99999L134.069 7.99999L134.069 6.99999ZM138.042 8.99999C138.594 8.99999 139.042 8.55227 139.042 7.99999C139.042 7.44771 138.594 6.99999 138.042 6.99999L138.042 7.99999L138.042 8.99999ZM142.014 6.99999C141.462 6.99999 141.014 7.4477 141.014 7.99999C141.014 8.55227 141.462 8.99999 142.014 8.99999L142.014 7.99999L142.014 6.99999ZM145.986 8.99999C146.538 8.99999 146.986 8.55227 146.986 7.99999C146.986 7.4477 146.538 6.99999 145.986 6.99999L145.986 7.99999L145.986 8.99999ZM149.958 6.99999C149.406 6.99999 148.958 7.4477 148.958 7.99999C148.958 8.55227 149.406 8.99999 149.958 8.99999L149.958 7.99999L149.958 6.99999ZM153.931 8.99999C154.483 8.99999 154.931 8.55227 154.931 7.99999C154.931 7.4477 154.483 6.99999 153.931 6.99999L153.931 7.99999L153.931 8.99999ZM157.903 6.99999C157.351 6.99999 156.903 7.4477 156.903 7.99999C156.903 8.55227 157.351 8.99999 157.903 8.99999L157.903 7.99999L157.903 6.99999ZM161.875 8.99999C162.427 8.99999 162.875 8.55227 162.875 7.99999C162.875 7.4477 162.427 6.99999 161.875 6.99999L161.875 7.99999L161.875 8.99999ZM165.847 6.99999C165.295 6.99999 164.847 7.4477 164.847 7.99999C164.847 8.55227 165.295 8.99999 165.847 8.99999L165.847 7.99999L165.847 6.99999ZM169.82 8.99999C170.372 8.99999 170.82 8.55227 170.82 7.99999C170.82 7.4477 170.372 6.99999 169.82 6.99999L169.82 7.99999L169.82 8.99999ZM173.792 6.99999C173.239 6.99999 172.792 7.4477 172.792 7.99999C172.792 8.55227 173.239 8.99999 173.792 8.99999L173.792 7.99999L173.792 6.99999ZM177.764 8.99999C178.316 8.99999 178.764 8.55227 178.764 7.99999C178.764 7.4477 178.316 6.99999 177.764 6.99999L177.764 7.99999L177.764 8.99999ZM181.736 6.99999C181.184 6.99999 180.736 7.4477 180.736 7.99999C180.736 8.55227 181.184 8.99999 181.736 8.99999L181.736 7.99999L181.736 6.99999ZM185.708 8.99999C186.261 8.99999 186.708 8.55227 186.708 7.99999C186.708 7.4477 186.261 6.99999 185.708 6.99999L185.708 7.99999L185.708 8.99999ZM189.681 6.99999C189.128 6.99999 188.681 7.4477 188.681 7.99999C188.681 8.55227 189.128 8.99999 189.681 8.99999L189.681 7.99999L189.681 6.99999ZM193.653 8.99999C194.205 8.99999 194.653 8.55227 194.653 7.99999C194.653 7.4477 194.205 6.99999 193.653 6.99999L193.653 7.99999L193.653 8.99999ZM197.625 6.99999C197.073 6.99999 196.625 7.4477 196.625 7.99999C196.625 8.55227 197.073 8.99999 197.625 8.99999L197.625 7.99999L197.625 6.99999ZM201.597 8.99999C202.15 8.99999 202.597 8.55227 202.597 7.99999C202.597 7.4477 202.15 6.99999 201.597 6.99999L201.597 7.99999L201.597 8.99999ZM205.57 6.99998C205.017 6.99998 204.57 7.4477 204.57 7.99998C204.57 8.55227 205.017 8.99998 205.57 8.99998L205.57 7.99998L205.57 6.99998ZM209.542 8.99998C210.094 8.99998 210.542 8.55227 210.542 7.99998C210.542 7.4477 210.094 6.99998 209.542 6.99998L209.542 7.99998L209.542 8.99998ZM213.514 6.99998C212.962 6.99998 212.514 7.4477 212.514 7.99998C212.514 8.55227 212.962 8.99998 213.514 8.99998L213.514 7.99998L213.514 6.99998ZM217.486 8.99998C218.039 8.99998 218.486 8.55227 218.486 7.99998C218.486 7.4477 218.039 6.99998 217.486 6.99998L217.486 7.99998L217.486 8.99998ZM221.458 6.99998C220.906 6.99998 220.458 7.4477 220.458 7.99998C220.458 8.55227 220.906 8.99998 221.458 8.99998L221.458 7.99998L221.458 6.99998ZM225.431 8.99998C225.983 8.99998 226.431 8.55227 226.431 7.99998C226.431 7.4477 225.983 6.99998 225.431 6.99998L225.431 7.99998L225.431 8.99998ZM229.403 6.99998C228.851 6.99998 228.403 7.4477 228.403 7.99998C228.403 8.55227 228.851 8.99998 229.403 8.99998L229.403 7.99998L229.403 6.99998ZM233.375 8.99998C233.927 8.99998 234.375 8.55227 234.375 7.99998C234.375 7.4477 233.927 6.99998 233.375 6.99998L233.375 7.99998L233.375 8.99998ZM237.347 6.99998C236.795 6.99998 236.347 7.4477 236.347 7.99998C236.347 8.55227 236.795 8.99998 237.347 8.99998L237.347 7.99998L237.347 6.99998ZM241.32 8.99998C241.872 8.99998 242.32 8.55227 242.32 7.99998C242.32 7.4477 241.872 6.99998 241.32 6.99998L241.32 7.99998L241.32 8.99998ZM245.292 6.99998C244.74 6.99998 244.292 7.4477 244.292 7.99998C244.292 8.55227 244.74 8.99998 245.292 8.99998L245.292 7.99998L245.292 6.99998ZM249.264 8.99998C249.816 8.99998 250.264 8.55227 250.264 7.99998C250.264 7.4477 249.816 6.99998 249.264 6.99998L249.264 7.99998L249.264 8.99998ZM253.236 6.99998C252.684 6.99998 252.236 7.4477 252.236 7.99998C252.236 8.55227 252.684 8.99998 253.236 8.99998L253.236 7.99998L253.236 6.99998ZM257.209 8.99998C257.761 8.99998 258.209 8.55227 258.209 7.99998C258.209 7.4477 257.761 6.99998 257.209 6.99998L257.209 7.99998L257.209 8.99998ZM261.181 6.99998C260.628 6.99998 260.181 7.4477 260.181 7.99998C260.181 8.55227 260.628 8.99998 261.181 8.99998L261.181 7.99998L261.181 6.99998ZM265.153 8.99998C265.705 8.99998 266.153 8.55227 266.153 7.99998C266.153 7.4477 265.705 6.99998 265.153 6.99998L265.153 7.99998L265.153 8.99998ZM269.125 6.99998C268.573 6.99998 268.125 7.4477 268.125 7.99998C268.125 8.55227 268.573 8.99998 269.125 8.99998L269.125 7.99998L269.125 6.99998ZM273.097 8.99998C273.65 8.99998 274.097 8.55226 274.097 7.99998C274.097 7.4477 273.65 6.99998 273.097 6.99998L273.097 7.99998L273.097 8.99998ZM277.07 6.99998C276.517 6.99998 276.07 7.44769 276.07 7.99998C276.07 8.55226 276.517 8.99998 277.07 8.99998L277.07 7.99998L277.07 6.99998ZM281.042 8.99998C281.594 8.99998 282.042 8.55226 282.042 7.99998C282.042 7.44769 281.594 6.99998 281.042 6.99998L281.042 7.99998L281.042 8.99998ZM285.014 6.99998C284.462 6.99998 284.014 7.44769 284.014 7.99998C284.014 8.55226 284.462 8.99998 285.014 8.99998L285.014 7.99998L285.014 6.99998ZM288.986 8.99998C289.539 8.99998 289.986 8.55226 289.986 7.99998C289.986 7.44769 289.539 6.99998 288.986 6.99998L288.986 7.99998L288.986 8.99998ZM292.959 6.99998C292.406 6.99998 291.959 7.44769 291.959 7.99998C291.959 8.55226 292.406 8.99998 292.959 8.99998L292.959 7.99998L292.959 6.99998ZM296.931 8.99998C297.483 8.99998 297.931 8.55226 297.931 7.99998C297.931 7.44769 297.483 6.99998 296.931 6.99998L296.931 7.99998L296.931 8.99998ZM300.903 6.99998C300.351 6.99998 299.903 7.44769 299.903 7.99998C299.903 8.55226 300.351 8.99998 300.903 8.99998L300.903 7.99998L300.903 6.99998ZM304.875 8.99998C305.428 8.99998 305.875 8.55226 305.875 7.99998C305.875 7.44769 305.428 6.99998 304.875 6.99998L304.875 7.99998L304.875 8.99998ZM308.848 6.99998C308.295 6.99998 307.848 7.44769 307.848 7.99998C307.848 8.55226 308.295 8.99998 308.848 8.99998L308.848 7.99998L308.848 6.99998ZM312.82 8.99998C313.372 8.99998 313.82 8.55226 313.82 7.99998C313.82 7.44769 313.372 6.99998 312.82 6.99998L312.82 7.99998L312.82 8.99998ZM316.792 6.99998C316.24 6.99998 315.792 7.44769 315.792 7.99998C315.792 8.55226 316.24 8.99998 316.792 8.99998L316.792 7.99998L316.792 6.99998ZM320.764 8.99998C321.316 8.99998 321.764 8.55226 321.764 7.99998C321.764 7.44769 321.316 6.99998 320.764 6.99998L320.764 7.99998L320.764 8.99998ZM324.736 6.99998C324.184 6.99998 323.736 7.44769 323.736 7.99998C323.736 8.55226 324.184 8.99998 324.736 8.99998L324.736 7.99998L324.736 6.99998ZM328.709 8.99998C329.261 8.99998 329.709 8.55226 329.709 7.99998C329.709 7.44769 329.261 6.99998 328.709 6.99998L328.709 7.99998L328.709 8.99998ZM332.681 6.99998C332.129 6.99998 331.681 7.44769 331.681 7.99998C331.681 8.55226 332.129 8.99998 332.681 8.99998L332.681 7.99998L332.681 6.99998ZM336.653 8.99998C337.205 8.99998 337.653 8.55226 337.653 7.99998C337.653 7.44769 337.205 6.99998 336.653 6.99998L336.653 7.99998L336.653 8.99998ZM340.625 6.99997C340.073 6.99997 339.625 7.44769 339.625 7.99998C339.625 8.55226 340.073 8.99997 340.625 8.99997L340.625 7.99997L340.625 6.99997ZM344.598 8.99997C345.15 8.99997 345.598 8.55226 345.598 7.99997C345.598 7.44769 345.15 6.99997 344.598 6.99997L344.598 7.99997L344.598 8.99997ZM348.57 6.99997C348.018 6.99997 347.57 7.44769 347.57 7.99997C347.57 8.55226 348.018 8.99997 348.57 8.99997L348.57 7.99997L348.57 6.99997ZM352.542 8.99997C353.094 8.99997 353.542 8.55226 353.542 7.99997C353.542 7.44769 353.094 6.99997 352.542 6.99997L352.542 7.99997L352.542 8.99997ZM356.514 6.99997C355.962 6.99997 355.514 7.44769 355.514 7.99997C355.514 8.55226 355.962 8.99997 356.514 8.99997L356.514 7.99997L356.514 6.99997ZM360.486 8.99997C361.039 8.99997 361.486 8.55226 361.486 7.99997C361.486 7.44769 361.039 6.99997 360.486 6.99997L360.486 7.99997L360.486 8.99997ZM364.459 6.99997C363.906 6.99997 363.459 7.44769 363.459 7.99997C363.459 8.55226 363.906 8.99997 364.459 8.99997L364.459 7.99997L364.459 6.99997ZM368.431 8.99997C368.983 8.99997 369.431 8.55226 369.431 7.99997C369.431 7.44769 368.983 6.99997 368.431 6.99997L368.431 7.99997L368.431 8.99997ZM372.403 6.99997C371.851 6.99997 371.403 7.44769 371.403 7.99997C371.403 8.55226 371.851 8.99997 372.403 8.99997L372.403 7.99997L372.403 6.99997ZM376.375 8.99997C376.928 8.99997 377.375 8.55226 377.375 7.99997C377.375 7.44769 376.928 6.99997 376.375 6.99997L376.375 7.99997L376.375 8.99997ZM380.348 6.99997C379.795 6.99997 379.348 7.44769 379.348 7.99997C379.348 8.55226 379.795 8.99997 380.348 8.99997L380.348 7.99997L380.348 6.99997ZM384.32 8.99997C384.872 8.99997 385.32 8.55226 385.32 7.99997C385.32 7.44769 384.872 6.99997 384.32 6.99997L384.32 7.99997L384.32 8.99997ZM388.292 6.99997C387.74 6.99997 387.292 7.44769 387.292 7.99997C387.292 8.55226 387.74 8.99997 388.292 8.99997L388.292 7.99997L388.292 6.99997ZM392.264 8.99997C392.817 8.99997 393.264 8.55226 393.264 7.99997C393.264 7.44769 392.817 6.99997 392.264 6.99997L392.264 7.99997L392.264 8.99997ZM396.237 6.99997C395.684 6.99997 395.237 7.44769 395.237 7.99997C395.237 8.55226 395.684 8.99997 396.237 8.99997L396.237 7.99997L396.237 6.99997ZM400.209 8.99997C400.761 8.99997 401.209 8.55226 401.209 7.99997C401.209 7.44769 400.761 6.99997 400.209 6.99997L400.209 7.99997L400.209 8.99997ZM404.181 6.99997C403.629 6.99997 403.181 7.44769 403.181 7.99997C403.181 8.55226 403.629 8.99997 404.181 8.99997L404.181 7.99997L404.181 6.99997ZM408.153 8.99997C408.706 8.99997 409.153 8.55225 409.153 7.99997C409.153 7.44769 408.706 6.99997 408.153 6.99997L408.153 7.99997L408.153 8.99997ZM412.125 6.99997C411.573 6.99997 411.125 7.44768 411.125 7.99997C411.125 8.55225 411.573 8.99997 412.125 8.99997L412.125 7.99997L412.125 6.99997ZM416.098 8.99997C416.65 8.99997 417.098 8.55225 417.098 7.99997C417.098 7.44768 416.65 6.99997 416.098 6.99997L416.098 7.99997L416.098 8.99997ZM420.07 6.99997C419.518 6.99997 419.07 7.44768 419.07 7.99997C419.07 8.55225 419.518 8.99997 420.07 8.99997L420.07 7.99997L420.07 6.99997ZM424.042 8.99997C424.594 8.99997 425.042 8.55225 425.042 7.99997C425.042 7.44768 424.594 6.99997 424.042 6.99997L424.042 7.99997L424.042 8.99997ZM428.014 6.99997C427.462 6.99997 427.014 7.44768 427.014 7.99997C427.014 8.55225 427.462 8.99997 428.014 8.99997L428.014 7.99997L428.014 6.99997ZM1 8L1 9L2.98611 9L2.98611 8L2.98611 7L1 7L1 8ZM6.95833 8L6.95833 9L10.9306 9L10.9306 8L10.9306 7L6.95833 7L6.95833 8ZM14.9028 8L14.9028 9L18.875 9L18.875 8L18.875 7L14.9028 7L14.9028 8ZM22.8472 8L22.8472 9L26.8194 9L26.8194 8L26.8194 7L22.8472 7L22.8472 8ZM30.7917 8L30.7917 9L34.7639 9L34.7639 8L34.7639 7L30.7917 7L30.7917 8ZM38.7361 8L38.7361 9L42.7083 9L42.7083 8L42.7083 7L38.7361 7L38.7361 8ZM46.6806 8L46.6806 9L50.6528 9L50.6528 8L50.6528 7L46.6806 7L46.6806 8ZM54.625 8L54.625 9L58.5972 9L58.5972 8L58.5972 7L54.625 7L54.625 8ZM62.5694 8L62.5694 9L66.5417 9L66.5417 8L66.5417 7L62.5694 7L62.5694 8ZM70.5139 7.99999L70.5139 8.99999L74.4861 8.99999L74.4861 7.99999L74.4861 6.99999L70.5139 6.99999L70.5139 7.99999ZM78.4583 7.99999L78.4583 8.99999L82.4305 8.99999L82.4305 7.99999L82.4305 6.99999L78.4583 6.99999L78.4583 7.99999ZM86.4028 7.99999L86.4028 8.99999L90.375 8.99999L90.375 7.99999L90.375 6.99999L86.4028 6.99999L86.4028 7.99999ZM94.3472 7.99999L94.3472 8.99999L98.3194 8.99999L98.3194 7.99999L98.3194 6.99999L94.3472 6.99999L94.3472 7.99999ZM102.292 7.99999L102.292 8.99999L106.264 8.99999L106.264 7.99999L106.264 6.99999L102.292 6.99999L102.292 7.99999ZM110.236 7.99999L110.236 8.99999L114.208 8.99999L114.208 7.99999L114.208 6.99999L110.236 6.99999L110.236 7.99999ZM118.181 7.99999L118.181 8.99999L122.153 8.99999L122.153 7.99999L122.153 6.99999L118.181 6.99999L118.181 7.99999ZM126.125 7.99999L126.125 8.99999L130.097 8.99999L130.097 7.99999L130.097 6.99999L126.125 6.99999L126.125 7.99999ZM134.069 7.99999L134.069 8.99999L138.042 8.99999L138.042 7.99999L138.042 6.99999L134.069 6.99999L134.069 7.99999ZM142.014 7.99999L142.014 8.99999L145.986 8.99999L145.986 7.99999L145.986 6.99999L142.014 6.99999L142.014 7.99999ZM149.958 7.99999L149.958 8.99999L153.931 8.99999L153.931 7.99999L153.931 6.99999L149.958 6.99999L149.958 7.99999ZM157.903 7.99999L157.903 8.99999L161.875 8.99999L161.875 7.99999L161.875 6.99999L157.903 6.99999L157.903 7.99999ZM165.847 7.99999L165.847 8.99999L169.82 8.99999L169.82 7.99999L169.82 6.99999L165.847 6.99999L165.847 7.99999ZM173.792 7.99999L173.792 8.99999L177.764 8.99999L177.764 7.99999L177.764 6.99999L173.792 6.99999L173.792 7.99999ZM181.736 7.99999L181.736 8.99999L185.708 8.99999L185.708 7.99999L185.708 6.99999L181.736 6.99999L181.736 7.99999ZM189.681 7.99999L189.681 8.99999L193.653 8.99999L193.653 7.99999L193.653 6.99999L189.681 6.99999L189.681 7.99999ZM197.625 7.99999L197.625 8.99999L201.597 8.99999L201.597 7.99999L201.597 6.99999L197.625 6.99999L197.625 7.99999ZM205.57 7.99998L205.57 8.99998L209.542 8.99998L209.542 7.99998L209.542 6.99998L205.57 6.99998L205.57 7.99998ZM213.514 7.99998L213.514 8.99998L217.486 8.99998L217.486 7.99998L217.486 6.99998L213.514 6.99998L213.514 7.99998ZM221.458 7.99998L221.458 8.99998L225.431 8.99998L225.431 7.99998L225.431 6.99998L221.458 6.99998L221.458 7.99998ZM229.403 7.99998L229.403 8.99998L233.375 8.99998L233.375 7.99998L233.375 6.99998L229.403 6.99998L229.403 7.99998ZM237.347 7.99998L237.347 8.99998L241.32 8.99998L241.32 7.99998L241.32 6.99998L237.347 6.99998L237.347 7.99998ZM245.292 7.99998L245.292 8.99998L249.264 8.99998L249.264 7.99998L249.264 6.99998L245.292 6.99998L245.292 7.99998ZM253.236 7.99998L253.236 8.99998L257.209 8.99998L257.209 7.99998L257.209 6.99998L253.236 6.99998L253.236 7.99998ZM261.181 7.99998L261.181 8.99998L265.153 8.99998L265.153 7.99998L265.153 6.99998L261.181 6.99998L261.181 7.99998ZM269.125 7.99998L269.125 8.99998L273.097 8.99998L273.097 7.99998L273.097 6.99998L269.125 6.99998L269.125 7.99998ZM277.07 7.99998L277.07 8.99998L281.042 8.99998L281.042 7.99998L281.042 6.99998L277.07 6.99998L277.07 7.99998ZM285.014 7.99998L285.014 8.99998L288.986 8.99998L288.986 7.99998L288.986 6.99998L285.014 6.99998L285.014 7.99998ZM292.959 7.99998L292.959 8.99998L296.931 8.99998L296.931 7.99998L296.931 6.99998L292.959 6.99998L292.959 7.99998ZM300.903 7.99998L300.903 8.99998L304.875 8.99998L304.875 7.99998L304.875 6.99998L300.903 6.99998L300.903 7.99998ZM308.848 7.99998L308.848 8.99998L312.82 8.99998L312.82 7.99998L312.82 6.99998L308.848 6.99998L308.848 7.99998ZM316.792 7.99998L316.792 8.99998L320.764 8.99998L320.764 7.99998L320.764 6.99998L316.792 6.99998L316.792 7.99998ZM324.736 7.99998L324.736 8.99998L328.709 8.99998L328.709 7.99998L328.709 6.99998L324.736 6.99998L324.736 7.99998ZM332.681 7.99998L332.681 8.99998L336.653 8.99998L336.653 7.99998L336.653 6.99998L332.681 6.99998L332.681 7.99998ZM340.625 7.99997L340.625 8.99997L344.598 8.99997L344.598 7.99997L344.598 6.99997L340.625 6.99997L340.625 7.99997ZM348.57 7.99997L348.57 8.99997L352.542 8.99997L352.542 7.99997L352.542 6.99997L348.57 6.99997L348.57 7.99997ZM356.514 7.99997L356.514 8.99997L360.486 8.99997L360.486 7.99997L360.486 6.99997L356.514 6.99997L356.514 7.99997ZM364.459 7.99997L364.459 8.99997L368.431 8.99997L368.431 7.99997L368.431 6.99997L364.459 6.99997L364.459 7.99997ZM372.403 7.99997L372.403 8.99997L376.375 8.99997L376.375 7.99997L376.375 6.99997L372.403 6.99997L372.403 7.99997ZM380.348 7.99997L380.348 8.99997L384.32 8.99997L384.32 7.99997L384.32 6.99997L380.348 6.99997L380.348 7.99997ZM388.292 7.99997L388.292 8.99997L392.264 8.99997L392.264 7.99997L392.264 6.99997L388.292 6.99997L388.292 7.99997ZM396.237 7.99997L396.237 8.99997L400.209 8.99997L400.209 7.99997L400.209 6.99997L396.237 6.99997L396.237 7.99997ZM404.181 7.99997L404.181 8.99997L408.153 8.99997L408.153 7.99997L408.153 6.99997L404.181 6.99997L404.181 7.99997ZM412.125 7.99997L412.125 8.99997L416.098 8.99997L416.098 7.99997L416.098 6.99997L412.125 6.99997L412.125 7.99997ZM420.07 7.99997L420.07 8.99997L424.042 8.99997L424.042 7.99997L424.042 6.99997L420.07 6.99997L420.07 7.99997ZM428.014 7.99997L428.014 8.99997L430 8.99997L430 7.99997L430 6.99997L428.014 6.99997L428.014 7.99997Z" fill="#AACCFF"/>
</svg>
